<svg width="105" height="11" fill="none" xmlns="http://www.w3.org/2000/svg"><path d="M6.14.927H.344a.153.153 0 00-.115.05.177.177 0 00-.05.116v9.414a.17.17 0 00.165.169h1.94a.164.164 0 00.118-.05c.03-.03.05-.072.05-.119V6.843h3.372a.164.164 0 00.118-.05c.03-.03.05-.071.05-.119v-1.53a.166.166 0 00-.05-.119.165.165 0 00-.118-.05H2.451V2.81H6.14a.153.153 0 00.115-.05c.03-.03.05-.072.05-.116V1.087a.155.155 0 00-.05-.116.169.169 0 00-.115-.05m6.941 5.72c.852-.514 1.426-1.4 1.423-2.598 0-.498-.069-.944-.22-1.337-.228-.586-.648-1.046-1.269-1.342-.618-.296-1.43-.443-2.463-.443h-2.72a.153.153 0 00-.115.05.171.171 0 00-.05.116v9.415c0 .044.017.085.05.116.03.03.071.05.115.05h1.942a.164.164 0 00.118-.05c.03-.03.05-.072.05-.116V7.236h.824c.11 0 .228-.008.343-.025l1.637 3.362a.164.164 0 00.149.095h2.15c.058 0 .113-.03.143-.083a.163.163 0 000-.166l-2.101-3.783-.006.005zm-.994-2.598c0 .282-.044.503-.118.678a.963.963 0 01-.56.528c-.267.108-.621.158-1.047.155h-.428v-2.62h.733c.5 0 .851.11 1.074.307.222.196.343.495.346.95M18.113.927H16.17a.153.153 0 00-.116.05.172.172 0 00-.05.116v9.415c0 .044.017.085.05.118.03.03.072.05.116.05h1.942a.153.153 0 00.115-.05c.03-.03.05-.071.05-.118V1.093a.155.155 0 00-.05-.116.169.169 0 00-.115-.05zM26.1 8.772h-3.82V6.63h3.411a.153.153 0 00.116-.05.166.166 0 00.049-.116V4.962a.166.166 0 00-.05-.12.164.164 0 00-.115-.05H22.28V2.785h3.73a.153.153 0 00.115-.05c.03-.03.05-.072.05-.116v-1.53a.155.155 0 00-.05-.117.164.164 0 00-.115-.05h-5.834a.164.164 0 00-.118.05.165.165 0 00-.05.116v9.415c0 .044.017.085.05.116.03.03.071.05.118.05h5.927a.153.153 0 00.116-.05.166.166 0 00.049-.116v-1.57a.155.155 0 00-.05-.116.169.169 0 00-.115-.05M35.346.73H33.51a.153.153 0 00-.115.05.177.177 0 00-.05.116v6.121L30.6.827a.165.165 0 00-.152-.1h-2.535a.153.153 0 00-.115.05.172.172 0 00-.05.117v9.414c0 .044.017.085.05.119.03.03.071.05.115.05h1.821a.163.163 0 00.118-.05.17.17 0 00.05-.12V4.182l2.76 6.193c.028.061.086.1.151.1h2.536a.153.153 0 00.115-.05c.03-.03.05-.072.05-.119V.896a.155.155 0 00-.05-.116.169.169 0 00-.115-.05m4.971.194h-2.903a.163.163 0 00-.118.05.166.166 0 00-.05.12v9.413c0 .045.017.086.05.117.03.03.074.05.118.05h2.428c1.805 0 3.156-.421 4.054-1.257.901-.836 1.324-2.067 1.324-3.617 0-1.621-.39-2.85-1.217-3.67-.826-.818-2.06-1.206-3.688-1.203m2.364 6.35c-.189.58-.497.925-.955 1.152-.46.227-1.08.316-1.86.316h-.349v-5.93h.827c.426 0 .797.046 1.11.149.47.155.807.423 1.049.871.239.449.37 1.088.37 1.965 0 .606-.065 1.093-.189 1.478m7.699-2.449l-.041.16.041-.16c-.725-.191-1.197-.382-1.47-.584a.901.901 0 01-.28-.31.778.778 0 01-.08-.365c0-.277.113-.496.344-.67.233-.172.596-.282 1.088-.282a4.2 4.2 0 012.068.564c.041.025.09.028.135.014a.167.167 0 00.099-.094l.568-1.397a.169.169 0 00-.066-.205c-.654-.415-1.566-.772-3.03-.77-1.049 0-1.93.269-2.554.773-.623.503-.98 1.245-.978 2.133 0 .803.198 1.453.632 1.954.434.498 1.085.835 1.961 1.068.791.21 1.247.39 1.475.576.115.09.179.18.217.285.041.105.058.235.058.4-.003.35-.113.582-.327.748-.217.169-.566.268-1.052.268-.77 0-1.612-.166-2.54-.633a.175.175 0 00-.13-.009.174.174 0 00-.096.092l-.607 1.422a.166.166 0 00.066.208c.94.58 2.288.86 3.36.863 1.147 0 2.07-.285 2.71-.825.64-.54.98-1.33.98-2.28 0-.67-.117-1.278-.51-1.785-.393-.506-1.038-.89-2.041-1.154m10.52-.005l-.041.16.041-.16c-.725-.191-1.197-.382-1.47-.584a.901.901 0 01-.28-.31.778.778 0 01-.08-.365c0-.277.114-.496.344-.67.234-.172.596-.282 1.088-.282a4.2 4.2 0 012.068.564c.041.025.09.028.135.014a.167.167 0 00.099-.094l.568-1.397a.169.169 0 00-.066-.205c-.653-.415-1.565-.772-3.03-.77-1.049 0-1.93.269-2.554.773-.623.503-.98 1.245-.977 2.133 0 .803.197 1.453.631 1.954.434.498 1.085.835 1.961 1.068.791.21 1.247.39 1.475.576.116.09.179.18.217.285.041.105.058.235.058.4-.003.35-.113.582-.327.748-.217.169-.566.268-1.052.268-.769 0-1.612-.166-2.54-.633a.175.175 0 00-.13-.009.16.16 0 00-.093.092l-.607 1.422a.166.166 0 00.066.208c.94.58 2.288.86 3.36.863 1.147 0 2.07-.285 2.71-.825.64-.54.98-1.33.98-2.28 0-.67-.117-1.278-.51-1.785-.393-.506-1.038-.89-2.041-1.154m10.712 3.551a.171.171 0 00-.1-.097.16.16 0 00-.136.013c-.547.319-1.294.59-2.294.59-.75 0-1.338-.252-1.755-.758-.418-.51-.668-1.3-.668-2.4 0-1.198.283-1.956.717-2.41.434-.456 1.039-.639 1.745-.639.744 0 1.318.152 1.953.437.082.039.178 0 .216-.08l.649-1.384a.169.169 0 00-.069-.216c-.739-.412-1.728-.713-2.878-.713-1.305 0-2.48.387-3.327 1.214-.849.83-1.354 2.092-1.351 3.791 0 1.796.47 3.092 1.294 3.93.824.841 1.983 1.21 3.304 1.21 1.316 0 2.546-.388 3.205-.825a.168.168 0 00.063-.2l-.568-1.463zm7.012-1.744c.852-.514 1.426-1.4 1.423-2.598 0-.498-.069-.944-.22-1.337-.228-.586-.648-1.046-1.269-1.342-.618-.296-1.43-.443-2.464-.443h-2.719a.163.163 0 00-.165.166v9.415c0 .044.017.085.05.116.03.03.071.05.115.05h1.94a.164.164 0 00.117-.05c.03-.03.05-.072.05-.116V7.236h.821c.11 0 .228-.008.343-.025l1.637 3.362a.163.163 0 00.149.095h2.15c.058 0 .113-.03.143-.083a.163.163 0 000-.166l-2.1-3.783v.005zm-.994-2.598c0 .282-.044.503-.118.678a.963.963 0 01-.56.528c-.267.108-.621.158-1.047.155h-.429v-2.62h.734c.5 0 .851.11 1.074.307.222.196.343.495.346.95m10.014 4.731h-3.82V6.63h3.411a.153.153 0 00.115-.05.171.171 0 00.05-.116V4.962a.169.169 0 00-.165-.169h-3.411v-2.01h3.73a.164.164 0 00.118-.05c.03-.03.05-.071.05-.115v-1.53a.156.156 0 00-.05-.117.166.166 0 00-.118-.05h-5.834a.164.164 0 00-.118.05.165.165 0 00-.05.116v9.415c0 .044.017.085.05.116.03.03.07.05.118.05h5.927a.153.153 0 00.115-.05c.03-.03.05-.072.05-.116v-1.57a.155.155 0 00-.05-.116.175.175 0 00-.115-.05m7.746.006h-3.82V6.63h3.41a.153.153 0 00.116-.05.172.172 0 00.05-.116V4.962a.169.169 0 00-.165-.169h-3.412v-2.01h3.73a.164.164 0 00.118-.05c.03-.03.05-.071.05-.115v-1.53a.156.156 0 00-.05-.117.165.165 0 00-.118-.05h-5.834a.163.163 0 00-.118.05.164.164 0 00-.05.116v9.415c0 .044.017.085.05.116.03.03.072.05.118.05h5.928a.153.153 0 00.115-.05c.03-.03.05-.072.05-.116v-1.57a.155.155 0 00-.05-.116.174.174 0 00-.115-.05m9.369-7.792a.168.168 0 00-.118-.05h-1.835a.156.156 0 00-.116.05.173.173 0 00-.049.12v6.12l-2.747-6.19a.165.165 0 00-.15-.1H97.22a.153.153 0 00-.115.05.173.173 0 00-.05.12v9.413c0 .045.017.086.05.12.03.03.071.05.115.05h1.821a.153.153 0 00.115-.05.173.173 0 00.05-.12V4.381l2.76 6.193c.028.06.085.1.151.1h2.536a.168.168 0 00.167-.169V1.092a.165.165 0 00-.049-.119z" fill="#fff"/></svg>