<svg width="226" height="40" fill="none" xmlns="http://www.w3.org/2000/svg"><path d="M22.596 31v-5.166H8.736v-6.51h13.566V14.2H8.736V8.11h13.86V2.986H2.772V31h19.824zm22.05 0V17.896c0-5.838-4.242-7.686-8.862-7.686-3.192 0-6.384 1.008-8.862 3.192l2.016 3.57c1.722-1.596 3.738-2.394 5.922-2.394 2.688 0 4.452 1.344 4.452 3.402v2.814c-1.344-1.638-3.738-2.478-6.426-2.478-3.234 0-7.056 1.722-7.056 6.468 0 4.536 3.822 6.72 7.056 6.72 2.646 0 5.04-.966 6.426-2.604V31h5.334zm-5.334-4.872c-.882 1.176-2.562 1.764-4.284 1.764-2.1 0-3.822-1.092-3.822-2.982 0-1.932 1.722-3.066 3.822-3.066 1.722 0 3.402.588 4.284 1.764v2.52zm10.205 10.08c2.52 2.226 5.25 3.024 8.736 3.024 4.998 0 10.962-1.89 10.962-9.618v-18.9h-5.376v2.604c-1.638-2.058-3.822-3.108-6.258-3.108-5.124 0-8.946 3.696-8.946 10.332 0 6.762 3.864 10.332 8.946 10.332 2.478 0 4.662-1.176 6.258-3.192v2.058c0 3.99-3.024 5.124-5.586 5.124-2.562 0-4.704-.714-6.342-2.52l-2.394 3.864zm14.322-12.39c-.882 1.302-2.814 2.31-4.578 2.31-3.024 0-5.124-2.1-5.124-5.586s2.1-5.586 5.124-5.586c1.764 0 3.696.966 4.578 2.31v6.552zM79.84 31V2.986h-5.335V31h5.334zm3.986-10.164c0 6.51 4.662 10.668 10.836 10.668 3.15 0 6.3-.924 8.358-2.814l-2.352-3.444c-1.302 1.26-3.528 2.016-5.418 2.016-3.444 0-5.502-2.142-5.838-4.704h15.078v-1.176c0-6.636-4.116-11.172-10.164-11.172-6.174 0-10.5 4.746-10.5 10.626zm10.5-6.384c3.528 0 4.872 2.562 4.998 4.494h-9.996c.252-2.016 1.68-4.494 4.998-4.494z" fill="#000"/></svg>