<svg width="264" height="24" fill="none" xmlns="http://www.w3.org/2000/svg"><path d="M19.402 21.057V3.715h-3.718v6.812h-8.19V3.715H3.802v17.342h3.692v-7.28h8.19v7.28h3.718zM31.868 12.4c0 5.225 3.822 8.97 9.048 8.97 5.252 0 9.074-3.745 9.074-8.97 0-5.227-3.822-8.97-9.074-8.97-5.226 0-9.048 3.743-9.048 8.97zm14.326 0c0 3.223-2.08 5.693-5.278 5.693-3.198 0-5.252-2.47-5.252-5.694 0-3.25 2.054-5.694 5.252-5.694s5.278 2.444 5.278 5.694zm27.291 8.657v-3.25h-7.332V3.715H62.46v17.342h11.024zm24.737 0V17.86h-8.58v-4.03h8.398v-3.172h-8.398v-3.77h8.58V3.715H85.95v17.342h12.272zm32.991 0V3.715h-3.692v17.342h3.692zm28.844 0V3.715h-3.692v11.232l-8.034-11.232h-3.796v17.342h3.692V9.41l8.268 11.648h3.562zm29-8.657c0 5.225 3.822 8.97 9.048 8.97 5.252 0 9.074-3.745 9.074-8.97 0-5.227-3.822-8.97-9.074-8.97-5.226 0-9.048 3.743-9.048 8.97zm14.326 0c0 3.223-2.08 5.693-5.278 5.693-3.198 0-5.252-2.47-5.252-5.694 0-3.25 2.054-5.694 5.252-5.694s5.278 2.444 5.278 5.694zm31.789 8.657V3.715h-3.692v11.232l-8.034-11.232h-3.796v17.342h3.692V9.41l8.268 11.648h3.562zm25.571 0V17.86h-8.58v-4.03h8.398v-3.172h-8.398v-3.77h8.58V3.715h-12.272v17.342h12.272z" fill="#fff"/></svg>