<svg width="290" height="116" fill="none" xmlns="http://www.w3.org/2000/svg"><path d="M89.22 44.74c.06.36.45.63 1.17.81.72.18 1.56.3 2.52.36 1.02.06 2.07.09 3.15.09h2.7c1.92 0 3.48.03 4.68.09 1.2 0 2.04.06 2.52.18.6.18.93.27.99.27.12-.06.24-.3.36-.72.24-1.2.54-2.82.9-4.86l1.08-6.12c.36-2.04.66-3.81.9-5.31.3-1.56.48-2.46.54-2.7.12-.48.12-.72 0-.72-.12-.06-.42.09-.9.45-.18.12-.69.54-1.53 1.26-.84.66-1.92 1.53-3.24 2.61-1.26 1.08-2.67 2.28-4.23 3.6-1.5 1.26-3 2.55-4.5 3.87a130.1 130.1 0 00-4.05 3.69c-1.26 1.2-2.28 2.25-3.06 3.15zM66 66.7c.06-1.08.45-2.04 1.17-2.88.78-.9 1.8-1.95 3.06-3.15 11.52-10.74 20.82-19.2 27.9-25.38 7.08-6.24 11.61-10.05 13.59-11.43.48-.3 1.2-.57 2.16-.81.96-.24 1.62-.54 1.98-.9.36-.36.54-.39.54-.09.06.24.03.48-.09.72-.6.9-1.08 1.95-1.44 3.15-.36 1.14-.6 2.1-.72 2.88-.06.24-.24 1.05-.54 2.43l-.9 4.95c-.36 1.92-.75 4.02-1.17 6.3-.36 2.22-.72 4.38-1.08 6.48-.36 2.04-.66 3.9-.9 5.58-.18 1.62-.3 2.76-.36 3.42 0 1.02.09 1.83.27 2.43.24.54.51.96.81 1.26.3.24.6.39.9.45.3.06.54.09.72.09.3 0 .66-.03 1.08-.09.42-.12.87-.24 1.35-.36.48-.12.72-.09.72.09.06.18-.15.33-.63.45-.24.06-.69.18-1.35.36-.6.18-1.32.39-2.16.63-.78.24-1.59.48-2.43.72-.78.18-1.47.33-2.07.45-.9 0-1.5-.6-1.8-1.8.06-.36.18-1.11.36-2.25.18-1.2.36-2.46.54-3.78.24-1.32.45-2.55.63-3.69.18-1.2.27-1.98.27-2.34 0-.66-.33-1.32-.99-1.98-.6-.72-1.5-1.23-2.7-1.53-.42-.12-1.23-.21-2.43-.27-1.2-.06-2.64-.09-4.32-.09h-5.13c-1.68-.06-2.94-.15-3.78-.27-4.56 4.14-8.4 7.92-11.52 11.34-3.06 3.42-5.37 6.27-6.93 8.55-.48.78-.84 1.47-1.08 2.07-.18.66-.33 1.5-.45 2.52-.12.36-.3.45-.54.27L66 66.7zm94.838-61.38c0 .84-.33 2.07-.99 3.69-.66 1.62-1.62 3.51-2.881 5.67-1.199 2.1-2.699 4.38-4.5 6.84-1.739 2.4-3.75 4.8-6.029 7.2a74.588 74.588 0 01-7.38 6.93 60.118 60.118 0 01-8.641 5.76c-.54.96-1.29 2.25-2.25 3.87-.959 1.62-1.919 3.33-2.879 5.13-.9 1.8-1.71 3.57-2.43 5.31-.66 1.74-.99 3.21-.99 4.41 0 1.92.87 2.88 2.61 2.88 1.5 0 3.06-.42 4.68-1.26 1.62-.84 3.15-1.86 4.59-3.06 1.5-1.2 2.879-2.46 4.139-3.78 1.32-1.38 2.43-2.61 3.33-3.69.42-.42.661-.51.721-.27.059.18-.03.39-.27.63-1.08 1.32-2.37 2.73-3.87 4.23-1.441 1.5-3 2.88-4.68 4.14a26.833 26.833 0 01-5.13 3.15c-1.8.84-3.6 1.26-5.4 1.26-1.56 0-2.7-.36-3.42-1.08-.66-.78-.99-1.71-.99-2.79s.449-2.61 1.35-4.59c.959-2.04 2.07-4.17 3.33-6.39 1.26-2.22 2.52-4.32 3.78-6.3 1.259-1.98 2.19-3.48 2.79-4.5 1.02-1.74 2.069-3.54 3.149-5.4 1.14-1.92 2.25-3.78 3.331-5.58 1.08-1.8 2.099-3.51 3.059-5.13 1.021-1.68 1.951-3.15 2.79-4.41 1.02-1.56 2.07-3.03 3.151-4.41 1.08-1.38 2.46-2.76 4.14-4.14 2.279-1.92 4.38-3.39 6.3-4.41s3.21-1.53 3.869-1.53c.481 0 .871.15 1.17.45.301.24.451.63.451 1.17zm-4.051 2.34c0-.96-.39-1.44-1.169-1.44-.301 0-.63.09-.99.27-.36.18-.841.57-1.44 1.17-.541.54-1.231 1.32-2.07 2.34-.78 1.02-1.8 2.34-3.06 3.96-.481.66-1.17 1.62-2.07 2.88a844.42 844.42 0 00-3.33 5.04 655.69 655.69 0 00-4.86 7.65c-1.86 3-4.08 6.57-6.66 10.71 3.6-2.04 6.959-4.5 10.079-7.38 3.18-2.94 5.911-5.94 8.191-9 2.28-3.06 4.08-6.03 5.4-8.91 1.32-2.88 1.979-5.31 1.979-7.29z" fill="#fff"/><path d="M185.149 6.13c0 .9-.03 1.5-.09 1.8-.06.3-.18.36-.36.18-.3-.3-.72-.63-1.26-.99-.48-.42-1.35-.63-2.61-.63-1.08 0-2.07.06-2.97.18-.9.12-1.83.36-2.79.72-.9.36-1.86.87-2.88 1.53-1.02.6-2.16 1.44-3.42 2.52-1.8 1.5-3.75 3.72-5.85 6.66-2.1 2.88-4.23 6.06-6.39 9.54-2.1 3.42-4.11 6.93-6.03 10.53-1.92 3.54-3.6 6.72-5.04 9.54-.48.96-1.02 2.1-1.62 3.42-.54 1.26-1.05 2.55-1.53 3.87-.42 1.26-.78 2.46-1.08 3.6-.3 1.08-.45 1.89-.45 2.43 0 1.62.54 2.43 1.62 2.43.66 0 1.41-.3 2.25-.9.84-.66 1.65-1.56 2.43-2.7.78-1.2 1.44-2.64 1.98-4.32.54-1.74.81-3.69.81-5.85 0-.72-.06-1.29-.18-1.71-.06-.48-.15-.87-.27-1.17 0-.36.18-.72.54-1.08.24-.24.54-.51.9-.81.36-.36.69-.63.99-.81.18 0 .3.06.36.18 0 1.2.21 2.22.63 3.06.48.78 1.05 1.44 1.71 1.98.72.48 1.47.84 2.25 1.08.84.24 1.62.36 2.34.36 1.02 0 2.13-.15 3.33-.45 1.2-.36 2.43-.93 3.69-1.71.3-.18.48-.15.54.09.12.18.03.33-.27.45-1.92 1.02-3.69 1.77-5.31 2.25-1.56.48-3.03.72-4.41.72-1.14 0-2.19-.24-3.15-.72-.9-.54-1.59-1.14-2.07-1.8 0 2.28-.39 4.35-1.17 6.21-.72 1.86-1.62 3.45-2.7 4.77-1.08 1.26-2.25 2.25-3.51 2.97-1.26.72-2.4 1.08-3.42 1.08-.96 0-1.77-.3-2.43-.9-.6-.6-.9-1.53-.9-2.79 0-.96.21-2.13.63-3.51.42-1.38.93-2.76 1.53-4.14a85.64 85.64 0 011.98-4.05c.66-1.32 1.2-2.37 1.62-3.15 1.62-3 3.36-6.06 5.22-9.18 1.86-3.12 3.81-6.21 5.85-9.27 2.1-3.06 4.29-6 6.57-8.82 2.34-2.88 4.8-5.52 7.38-7.92.72-.66 1.62-1.44 2.7-2.34 1.14-.9 2.34-1.74 3.6-2.52 1.26-.84 2.52-1.53 3.78-2.07 1.32-.54 2.52-.81 3.6-.81s1.89.3 2.43.9c.6.54.9 1.23.9 2.07z" fill="#fff"/><path d="M190.376 51.67a86.02 86.02 0 01-4.59 5.13 58.28 58.28 0 01-4.95 4.59c-1.68 1.38-3.36 2.49-5.04 3.33-1.62.84-3.12 1.26-4.5 1.26-1.2 0-2.04-.3-2.52-.9-.48-.6-.72-1.35-.72-2.25 0-.84.24-1.95.72-3.33.54-1.44 1.32-2.97 2.34-4.59-.78 1.02-1.68 2.1-2.7 3.24a39.003 39.003 0 01-3.15 3.15c-1.08.9-2.16 1.68-3.24 2.34-1.08.6-2.04.9-2.88.9-1.26 0-1.89-.63-1.89-1.89 0-1.38.54-3.12 1.62-5.22 1.08-2.1 2.52-4.11 4.32-6.03 1.86-1.98 3.96-3.66 6.3-5.04 2.34-1.44 4.77-2.16 7.29-2.16.3-.6.57-1.02.81-1.26.24-.24.48-.42.72-.54l2.52-.72.18.09c-.3.3-.6.69-.9 1.17-.24.42-.51.87-.81 1.35.3 0 .75.03 1.35.09.6.06 1.05.12 1.35.18.3.12.45.27.45.45s-.09.27-.27.27c-.36-.12-.9-.21-1.62-.27-.72-.06-1.26-.09-1.62-.09-2.76 4.86-4.8 8.73-6.12 11.61-1.26 2.82-1.89 4.92-1.89 6.3 0 .54.12.99.36 1.35.3.36.87.54 1.71.54.96 0 2.1-.33 3.42-.99 1.32-.72 2.73-1.68 4.23-2.88 1.5-1.26 3.03-2.7 4.59-4.32 1.62-1.62 3.15-3.33 4.59-5.13.12-.18.24-.21.36-.09.12.06.18.18.18.36zm-14.04-6.84c-2.04 0-3.99.72-5.85 2.16a25.139 25.139 0 00-4.95 5.13c-1.44 1.92-2.61 3.84-3.51 5.76-.84 1.92-1.26 3.33-1.26 4.23 0 .48.18.72.54.72.36 0 .9-.24 1.62-.72.78-.48 1.65-1.11 2.61-1.89.96-.84 1.92-1.8 2.88-2.88 1.02-1.08 1.95-2.25 2.79-3.51.96-1.44 1.89-2.97 2.79-4.59.9-1.62 1.71-3.06 2.43-4.32l-.09-.09z" fill="#fff"/><path d="M206.05 31.15c-.48.12-1.02.36-1.62.72-.6.3-1.05.69-1.35 1.17-1.38 1.92-2.73 3.93-4.05 6.03-1.26 2.1-2.49 4.2-3.69 6.3h11.16c.18.12.27.24.27.36s-.06.21-.18.27c-.48 0-1.2.03-2.16.09-.96 0-2.01.03-3.15.09-1.14.06-2.31.12-3.51.18-1.2.06-2.25.12-3.15.18-1.68 3-2.97 5.55-3.87 7.65-.9 2.1-1.35 3.93-1.35 5.49 0 2.16.99 3.24 2.97 3.24.96 0 2.04-.24 3.24-.72 1.26-.54 2.58-1.23 3.96-2.07.18-.18.36-.15.54.09.18.18.12.33-.18.45-2.04 1.32-3.93 2.28-5.67 2.88-1.74.6-3.51.9-5.31.9-.96 0-1.8-.27-2.52-.81-.72-.6-1.08-1.59-1.08-2.97 0-1.2.54-2.97 1.62-5.31 1.08-2.34 2.67-5.22 4.77-8.64-.72.06-1.62.15-2.7.27-1.02.06-1.62.09-1.8.09-.3 0-.45-.12-.45-.36.24-.42.63-.84 1.17-1.26l4.59-.09c.54-.9 1.14-1.89 1.8-2.97.66-1.14 1.32-2.25 1.98-3.33.66-1.14 1.32-2.22 1.98-3.24.72-1.08 1.35-2.07 1.89-2.97.66-.3 1.56-.69 2.7-1.17 1.2-.48 2.25-.87 3.15-1.17.12 0 .21.09.27.27.06.12-.03.24-.27.36zm16.834 14.49c-.36.42-.75.93-1.17 1.53-.36.6-.6 1.05-.72 1.35-.06.18-.18.27-.36.27-.06 0-.15-.09-.27-.27-.12-.18-.3-.36-.54-.54-.18-.24-.45-.45-.81-.63-.36-.18-.87-.27-1.53-.27-.78 0-1.65.27-2.61.81s-1.8 1.14-2.52 1.8c-1.14.96-2.16 2.01-3.06 3.15-.84 1.14-1.65 2.34-2.43 3.6-.78 1.2-1.53 2.46-2.25 3.78a95.14 95.14 0 01-2.34 3.87c-.06.18-.24.27-.54.27-.12 0-.39-.18-.81-.54-.36-.36-.54-.63-.54-.81 0-.36.21-.9.63-1.62l2.88-5.04c1.02-1.74 1.95-3.36 2.79-4.86.9-1.5 1.68-2.79 2.34-3.87.66-1.14 1.11-1.98 1.35-2.52.3-.54.51-.81.63-.81s.42.15.9.45c.48.3.72.72.72 1.26 0 .18-.12.48-.36.9-.18.42-.42.87-.72 1.35l-.72 1.26c-.24.42-.42.72-.54.9-.18.3-.21.45-.09.45s.27-.09.45-.27c.6-.6 1.32-1.26 2.16-1.98.9-.72 1.83-1.38 2.79-1.98.96-.66 1.89-1.2 2.79-1.62.96-.42 1.8-.63 2.52-.63.54 0 .99.15 1.35.45.42.24.63.51.63.81zm26.529 3.06c-1.02 1.38-2.28 2.64-3.78 3.78-1.44 1.08-3.09 1.62-4.95 1.62-1.02 0-2.04-.24-3.06-.72-.96-.54-1.74-1.32-2.34-2.34-.42.96-.96 2.07-1.62 3.33a37.31 37.31 0 01-2.34 3.69c-.9 1.2-1.92 2.31-3.06 3.33a15.733 15.733 0 01-3.51 2.52c-1.08.48-1.98.72-2.7.72-2.16 0-3.24-.96-3.24-2.88 0-1.08.18-2.19.54-3.33.42-1.14.93-2.25 1.53-3.33s1.23-2.1 1.89-3.06c.72-.96 1.38-1.74 1.98-2.34a18.78 18.78 0 014.32-3.51c1.62-.96 3.36-1.53 5.22-1.71.12-.48.3-1.02.54-1.62.24-.66.66-1.05 1.26-1.17l.9-.18c.3-.06.57-.15.81-.27a.45.45 0 01.54 0c.18.06.21.21.09.45-.42.66-.75 1.5-.99 2.52-.18 1.02-.27 2.13-.27 3.33 0 1.68.3 3.06.9 4.14.66 1.08 1.77 1.62 3.33 1.62s2.97-.51 4.23-1.53c1.26-1.02 2.31-2.13 3.15-3.33.12-.3.3-.39.54-.27.3.12.33.3.09.54zm-14.85.63c-.12-.54-.21-1.17-.27-1.89-.06-.72-.09-1.41-.09-2.07 0-.3-.12-.45-.36-.45-.66 0-1.35.24-2.07.72-.72.42-1.44 1.02-2.16 1.8a23.5 23.5 0 00-2.16 2.52c-.72.96-1.38 1.95-1.98 2.97-.78 1.32-1.5 2.76-2.16 4.32-.6 1.5-.87 2.94-.81 4.32 0 .42.06.81.18 1.17.18.36.54.54 1.08.54 1.02 0 2.13-.57 3.33-1.71 1.2-1.14 2.34-2.46 3.42-3.96 1.08-1.56 1.98-3.12 2.7-4.68.78-1.56 1.23-2.76 1.35-3.6z" fill="#fff"/><path d="M286.583 51.04c-4.08 4.68-8.52 8.28-13.32 10.8-4.74 2.52-9.72 3.78-14.94 3.78-.54 0-1.02-.09-1.44-.27-.42-.12-.63-.33-.63-.63 0-.12.03-.36.09-.72.12-.42.33-.93.63-1.53l.63-.45c.48.12 1.14.24 1.98.36.9.06 1.71.09 2.43.09 1.38 0 2.58-.36 3.6-1.08 1.08-.72 1.74-1.71 1.98-2.97.06-.42.09-1.08.09-1.98v-6.12c0-1.02.03-1.77.09-2.25-1.2.9-3 1.92-5.4 3.06-2.4 1.08-5.31 2.22-8.73 3.42-.3 1.08-.54 1.95-.72 2.61a7.25 7.25 0 01-.9 1.98c-.36.48-.93 1.05-1.71 1.71-.78.6-1.65 1.2-2.61 1.8-.9.6-1.89 1.08-2.97 1.44-1.02.42-2.04.63-3.06.63-1.2 0-2.25-.18-3.15-.54-.84-.36-1.56-.81-2.16-1.35-.6-.54-1.02-1.08-1.26-1.62-.3-.6-.45-1.11-.45-1.53.12-.24.36-.51.72-.81.36-.3.66-.51.9-.63 2.22-.36 4.62-.84 7.2-1.44 2.64-.6 5.1-1.29 7.38-2.07.12-.78.18-1.86.18-3.24.06-1.38.09-2.76.09-4.14 0-1.44.36-2.76 1.08-3.96.72-1.2 1.68-1.8 2.88-1.8.78.3 1.95.45 3.51.45.12.06.15.18.09.36 0 .12-.06.21-.18.27-.3 0-.66.09-1.08.27-.42.12-.84.42-1.26.9-.36.42-.69 1.05-.99 1.89-.3.84-.54 1.92-.72 3.24l-.36 2.34c-.12.78-.24 1.59-.36 2.43 2.82-.9 5.49-1.92 8.01-3.06 2.52-1.14 4.35-2.19 5.49-3.15.42-.3.63-.69.63-1.17.06-.48.21-.96.45-1.44.24-.48.6-.93 1.08-1.35.54-.48 1.08-.87 1.62-1.17.6-.36 1.14-.63 1.62-.81.48-.24.84-.36 1.08-.36.18 0 .39.06.63.18.3.12.45.24.45.36 0 .18-.15.27-.45.27-.42 0-.9.33-1.44.99-.54.6-.96 1.41-1.26 2.43-.18.6-.36 1.29-.54 2.07-.12.78-.24 1.62-.36 2.52a35.9 35.9 0 00-.27 2.52c-.06.84-.12 1.62-.18 2.34-.06.9-.33 1.98-.81 3.24-.48 1.26-1.53 2.43-3.15 3.51-.18.12-.3.27-.36.45 0 .12.18.18.54.18 3.66-.12 7.11-1.29 10.35-3.51 3.3-2.22 6.39-4.95 9.27-8.19.18-.12.33-.12.45 0 .12.06.12.21 0 .45zm-35.82 4.41c-2.1.72-4.23 1.41-6.39 2.07-2.1.6-3.93 1.14-5.49 1.62-.96.24-1.44.78-1.44 1.62 0 .66.36 1.38 1.08 2.16.78.78 1.83 1.17 3.15 1.17.72 0 1.56-.15 2.52-.45.96-.3 1.89-.78 2.79-1.44.9-.66 1.68-1.53 2.34-2.61.72-1.14 1.2-2.52 1.44-4.14z" fill="#fff"/></svg>