<svg width="290" height="116" fill="none" xmlns="http://www.w3.org/2000/svg"><path d="M193.83 57.97c.24-.12.36 0 .36.36-.36.3-.72.69-1.08 1.17-.3.42-.57.81-.81 1.17-.42.78-1.26 1.32-2.52 1.62-1.5.36-3.12.69-4.86.99-1.74.24-3.51.48-5.31.72-1.8.24-3.57.42-5.31.54-1.74.12-3.39.18-4.95.18-2.28 0-4.14-.09-5.58-.27-1.44-.12-2.58-.33-3.42-.63-.78-.36-1.32-.75-1.62-1.17-.3-.48-.45-1.02-.45-1.62 0-1.08.33-2.22.99-3.42.24-.42.78-1.35 1.62-2.79.84-1.44 1.71-2.94 2.61-4.5.9-1.62 1.71-3.06 2.43-4.32.72-1.32 1.08-2.01 1.08-2.07 0-.18-.09-.3-.27-.36-.18-.06-.6-.09-1.26-.09-.3 0-.45-.09-.45-.27 0-.42.36-.69 1.08-.81 1.38-.18 2.4-.9 3.06-2.16.24-.42.75-1.35 1.53-2.79.84-1.44 1.68-2.97 2.52-4.59.9-1.68 1.68-3.18 2.34-4.5.72-1.38 1.08-2.19 1.08-2.43 0-.24-.18-.36-.54-.36-1.8 0-3.6.06-5.4.18-1.8.12-3.39.36-4.77.72l-.18-.09c.12-1.02.36-1.71.72-2.07 1.86.12 3.81.21 5.85.27 2.1.06 4.08.09 5.94.09.66 0 1.8-.03 3.42-.09 1.62-.06 3.42-.12 5.4-.18l6.12-.18c2.04-.06 3.78-.09 5.22-.09.36 0 .54.15.54.45-.12.3-.36.78-.72 1.44-.36.6-.69 1.23-.99 1.89l-.36-.09c0-.36-.09-.69-.27-.99-.12-.3-.27-.48-.45-.54-1.86-.3-3.87-.51-6.03-.63s-4.32-.18-6.48-.18c-.96 0-1.68.3-2.16.9-1.62 2.16-3.27 4.62-4.95 7.38-1.62 2.7-3.15 5.34-4.59 7.92-.24.54-.06.81.54.81.84.06 1.68.09 2.52.09h2.61c2.76 0 5.16-.06 7.2-.18 2.1-.18 4.2-.51 6.3-.99l.27.27-.45.9c-.18.36-.33.69-.45.99-.06.24-.3.36-.72.36-1.56-.06-3.27-.09-5.13-.09-1.8-.06-3.63-.09-5.49-.09h-4.05c-1.26 0-2.46.03-3.6.09-.48 0-.81.18-.99.54-1.02 1.8-2.07 3.69-3.15 5.67-1.02 1.98-1.92 3.9-2.7 5.76-.6 1.38-.9 2.61-.9 3.69 0 2.82 2.13 4.23 6.39 4.23 1.5 0 3.33-.12 5.49-.36a68.5 68.5 0 006.75-1.08c2.28-.54 4.44-1.17 6.48-1.89 2.1-.72 3.75-1.53 4.95-2.43zm34.29-6.3a86.02 86.02 0 01-4.59 5.13 58.28 58.28 0 01-4.95 4.59c-1.68 1.38-3.36 2.49-5.04 3.33-1.62.84-3.12 1.26-4.5 1.26-1.2 0-2.04-.3-2.52-.9-.48-.6-.72-1.35-.72-2.25 0-.84.24-1.95.72-3.33.54-1.44 1.32-2.97 2.34-4.59-.78 1.02-1.68 2.1-2.7 3.24a39.003 39.003 0 01-3.15 3.15c-1.08.9-2.16 1.68-3.24 2.34-1.08.6-2.04.9-2.88.9-1.26 0-1.89-.63-1.89-1.89 0-1.38.54-3.12 1.62-5.22 1.08-2.1 2.52-4.11 4.32-6.03 1.86-1.98 3.96-3.66 6.3-5.04 2.34-1.44 4.77-2.16 7.29-2.16.3-.6.57-1.02.81-1.26.24-.24.48-.42.72-.54l2.52-.72.18.09c-.3.3-.6.69-.9 1.17-.24.42-.51.87-.81 1.35.3 0 .75.03 1.35.09.6.06 1.05.12 1.35.18.3.12.45.27.45.45s-.09.27-.27.27c-.36-.12-.9-.21-1.62-.27-.72-.06-1.26-.09-1.62-.09-2.76 4.86-4.8 8.73-6.12 11.61-1.26 2.82-1.89 4.92-1.89 6.3 0 .54.12.99.36 1.35.3.36.87.54 1.71.54.96 0 2.1-.33 3.42-.99 1.32-.72 2.73-1.68 4.23-2.88 1.5-1.26 3.03-2.7 4.59-4.32 1.62-1.62 3.15-3.33 4.59-5.13.12-.18.24-.21.36-.09.12.06.18.18.18.36zm-14.04-6.84c-2.04 0-3.99.72-5.85 2.16a25.139 25.139 0 00-4.95 5.13c-1.44 1.92-2.61 3.84-3.51 5.76-.84 1.92-1.26 3.33-1.26 4.23 0 .48.18.72.54.72.36 0 .9-.24 1.62-.72.78-.48 1.65-1.11 2.61-1.89.96-.84 1.92-1.8 2.88-2.88 1.02-1.08 1.95-2.25 2.79-3.51.96-1.44 1.89-2.97 2.79-4.59.9-1.62 1.71-3.06 2.43-4.32l-.09-.09z" fill="#fff"/><path d="M244.514 39.97c0 .54-.15 1.08-.45 1.62-3 5.58-5.7 10.53-8.1 14.85-2.4 4.26-4.68 8.19-6.84 11.79-2.16 3.66-4.29 7.17-6.39 10.53-2.1 3.42-4.32 7.05-6.66 10.89a76.115 76.115 0 01-6.21 8.55c-2.28 2.7-4.77 5.01-7.47 6.93a33.927 33.927 0 01-8.91 4.59c-3.24 1.14-6.78 1.71-10.62 1.71-2.82 0-5.13-.39-6.93-1.17-1.86-.72-3.3-1.71-4.32-2.97-1.08-1.26-1.83-2.7-2.25-4.32a20 20 0 01-.63-5.04c0-.72.06-1.5.18-2.34.12-.78.27-1.41.45-1.89.06-.24.18-.36.36-.36s.27.15.27.45c-.12.42-.24.9-.36 1.44-.12.6-.18 1.23-.18 1.89 0 2.1.45 3.9 1.35 5.4.9 1.56 2.16 2.82 3.78 3.78 1.56 1.02 3.42 1.77 5.58 2.25 2.16.54 4.47.81 6.93.81 2.58 0 5.19-.42 7.83-1.26 2.58-.84 5.16-2.25 7.74-4.23 2.58-1.92 5.13-4.44 7.65-7.56 2.46-3.12 4.89-6.96 7.29-11.52 1.56-2.88 3.21-5.94 4.95-9.18 1.74-3.24 3.42-6.36 5.04-9.36 1.62-2.94 3.06-5.58 4.32-7.92 1.32-2.4 2.28-4.14 2.88-5.22-1.2 1.62-2.37 3.15-3.51 4.59-1.14 1.44-2.22 2.7-3.24 3.78-.96 1.08-1.89 1.92-2.79 2.52-.9.66-1.71.99-2.43.99-.54 0-.99-.18-1.35-.54-.36-.36-.54-.93-.54-1.71 0-.9.36-2.16 1.08-3.78.78-1.68 1.77-3.42 2.97-5.22 1.26-1.8 2.67-3.51 4.23-5.13 1.56-1.62 3.15-2.82 4.77-3.6 1.44-.72 2.88-1.08 4.32-1.08.42 0 .75.03.99.09l1.44-2.52c.54-.84 1.08-1.74 1.62-2.7.42-.78.81-1.17 1.17-1.17.24 0 .45.27.63.81.24.54.36 1.05.36 1.53zm-5.76 5.31c-.18-.06-.42-.09-.72-.09h-.63c-.84 0-1.65.09-2.43.27-.72.12-1.35.42-1.89.9-1.5 1.26-2.79 2.67-3.87 4.23-1.08 1.56-1.98 3.09-2.7 4.59-.72 1.5-1.26 2.88-1.62 4.14-.3 1.2-.45 2.07-.45 2.61 0 .66.18.99.54.99.36 0 1.08-.51 2.16-1.53s2.28-2.37 3.6-4.05a82.06 82.06 0 004.23-5.67c1.44-2.1 2.7-4.23 3.78-6.39zM287.07 5.32c0 .84-.33 2.07-.99 3.69-.66 1.62-1.62 3.51-2.88 5.67-1.2 2.1-2.7 4.38-4.5 6.84-1.74 2.4-3.75 4.8-6.03 7.2-2.22 2.4-4.68 4.71-7.38 6.93-2.7 2.16-5.58 4.08-8.64 5.76-.54.96-1.29 2.25-2.25 3.87s-1.92 3.33-2.88 5.13c-.9 1.8-1.71 3.57-2.43 5.31-.66 1.74-.99 3.21-.99 4.41 0 1.92.87 2.88 2.61 2.88 1.5 0 3.06-.42 4.68-1.26 1.62-.84 3.15-1.86 4.59-3.06 1.5-1.2 2.88-2.46 4.14-3.78 1.32-1.38 2.43-2.61 3.33-3.69.42-.42.66-.51.72-.27.06.18-.03.39-.27.63-1.08 1.32-2.37 2.73-3.87 4.23-1.44 1.5-3 2.88-4.68 4.14a26.802 26.802 0 01-5.13 3.15c-1.8.84-3.6 1.26-5.4 1.26-1.56 0-2.7-.36-3.42-1.08-.66-.78-.99-1.71-.99-2.79s.45-2.61 1.35-4.59a94.59 94.59 0 013.33-6.39c1.26-2.22 2.52-4.32 3.78-6.3 1.26-1.98 2.19-3.48 2.79-4.5 1.02-1.74 2.07-3.54 3.15-5.4 1.14-1.92 2.25-3.78 3.33-5.58 1.08-1.8 2.1-3.51 3.06-5.13 1.02-1.68 1.95-3.15 2.79-4.41 1.02-1.56 2.07-3.03 3.15-4.41 1.08-1.38 2.46-2.76 4.14-4.14 2.28-1.92 4.38-3.39 6.3-4.41s3.21-1.53 3.87-1.53c.48 0 .87.15 1.17.45.3.24.45.63.45 1.17zm-4.05 2.34c0-.96-.39-1.44-1.17-1.44-.3 0-.63.09-.99.27-.36.18-.84.57-1.44 1.17-.54.54-1.23 1.32-2.07 2.34-.78 1.02-1.8 2.34-3.06 3.96a448 448 0 00-2.07 2.88c-.84 1.26-1.95 2.94-3.33 5.04-1.32 2.04-2.94 4.59-4.86 7.65-1.86 3-4.08 6.57-6.66 10.71 3.6-2.04 6.96-4.5 10.08-7.38 3.18-2.94 5.91-5.94 8.19-9 2.28-3.06 4.08-6.03 5.4-8.91 1.32-2.88 1.98-5.31 1.98-7.29z" fill="#fff"/><path d="M285.371 53.29c-1.02 1.26-2.25 2.58-3.69 3.96a35.274 35.274 0 01-4.59 3.69 27.914 27.914 0 01-5.13 2.7c-1.74.66-3.48.99-5.22.99-2.82 0-4.23-1.26-4.23-3.78 0-1.68.42-3.48 1.26-5.4.9-1.98 2.04-3.78 3.42-5.4 1.38-1.68 2.88-3.06 4.5-4.14 1.68-1.14 3.27-1.71 4.77-1.71.84 0 1.41.15 1.71.45.36.3.54.69.54 1.17 0 .72-.24 1.5-.72 2.34-.42.84-1.08 1.65-1.98 2.43-.9.72-2.04 1.35-3.42 1.89-1.38.48-3.03.72-4.95.72-.3.54-.63 1.41-.99 2.61-.36 1.14-.54 2.31-.54 3.51 0 2.46 1.11 3.69 3.33 3.69 1.38 0 2.79-.33 4.23-.99 1.5-.66 2.94-1.47 4.32-2.43 1.38-1.02 2.64-2.1 3.78-3.24 1.2-1.2 2.19-2.31 2.97-3.33.12-.12.24-.15.36-.09.18.06.27.18.27.36zm-9.45-7.02c0-.78-.39-1.17-1.17-1.17-.6 0-1.23.24-1.89.72-.6.42-1.2.99-1.8 1.71-.6.72-1.17 1.5-1.71 2.34-.54.84-.99 1.65-1.35 2.43.12.06.33.12.63.18h.72c1.74 0 3.27-.6 4.59-1.8 1.32-1.26 1.98-2.73 1.98-4.41z" fill="#fff"/></svg>