<svg width="239" height="40" fill="none" xmlns="http://www.w3.org/2000/svg"><path d="M27.972 31V2.986h-6.006V13.99H8.736V2.986H2.772V31h5.964V19.24h13.23V31h6.006zm14.803.504c6.72 0 10.752-4.872 10.752-10.668 0-5.754-4.032-10.626-10.752-10.626-6.678 0-10.71 4.872-10.71 10.626 0 5.796 4.032 10.668 10.71 10.668zm0-4.746c-3.318 0-5.166-2.73-5.166-5.922 0-3.15 1.848-5.88 5.166-5.88 3.318 0 5.208 2.73 5.208 5.88 0 3.192-1.89 5.922-5.208 5.922zM62.818 31V2.986h-5.334V31h5.334zm3.987-10.164c0 6.51 4.662 10.668 10.836 10.668 3.15 0 6.3-.924 8.358-2.814l-2.352-3.444c-1.302 1.26-3.528 2.016-5.418 2.016-3.444 0-5.502-2.142-5.838-4.704h15.078v-1.176c0-6.636-4.116-11.172-10.164-11.172-6.174 0-10.5 4.746-10.5 10.626zm10.5-6.384c3.528 0 4.872 2.562 4.998 4.494h-9.996c.252-2.016 1.68-4.494 4.998-4.494zM108.158 31V2.986h-5.964V31h5.964zm24.461 0V16.678c0-3.948-2.142-6.468-6.594-6.468-3.318 0-5.796 1.596-7.098 3.15v-2.646h-5.334V31h5.334V17.35c.882-1.218 2.52-2.394 4.62-2.394 2.268 0 3.738.966 3.738 3.78V31h5.334zm14.825-13.986c0 8.442 6.174 14.49 14.616 14.49 8.484 0 14.658-6.048 14.658-14.49s-6.174-14.49-14.658-14.49c-8.442 0-14.616 6.048-14.616 14.49zm23.142 0c0 5.208-3.36 9.198-8.526 9.198s-8.484-3.99-8.484-9.198c0-5.25 3.318-9.198 8.484-9.198s8.526 3.948 8.526 9.198zM199.803 31V16.678c0-3.948-2.142-6.468-6.594-6.468-3.318 0-5.796 1.596-7.098 3.15v-2.646h-5.334V31h5.334V17.35c.882-1.218 2.52-2.394 4.62-2.394 2.268 0 3.738.966 3.738 3.78V31h5.334zm3.994-10.164c0 6.51 4.662 10.668 10.836 10.668 3.15 0 6.3-.924 8.358-2.814l-2.352-3.444c-1.302 1.26-3.528 2.016-5.418 2.016-3.444 0-5.502-2.142-5.838-4.704h15.078v-1.176c0-6.636-4.116-11.172-10.164-11.172-6.174 0-10.5 4.746-10.5 10.626zm10.5-6.384c3.528 0 4.872 2.562 4.998 4.494h-9.996c.252-2.016 1.68-4.494 4.998-4.494z" fill="#000"/></svg>