<svg width="226" height="40" fill="none" xmlns="http://www.w3.org/2000/svg"><path d="M16.128 31.504c6.384 0 9.912-3.402 11.928-6.888l-5.124-2.478c-1.176 2.31-3.696 4.074-6.804 4.074-4.872 0-8.568-3.906-8.568-9.198s3.696-9.198 8.568-9.198c3.108 0 5.628 1.806 6.804 4.074l5.124-2.52c-1.974-3.486-5.544-6.846-11.928-6.846-8.19 0-14.7 5.88-14.7 14.49s6.51 14.49 14.7 14.49zm24.76 0c6.72 0 10.752-4.872 10.752-10.668 0-5.754-4.032-10.626-10.752-10.626-6.678 0-10.71 4.872-10.71 10.626 0 5.796 4.032 10.668 10.71 10.668zm0-4.746c-3.318 0-5.166-2.73-5.166-5.922 0-3.15 1.848-5.88 5.166-5.88 3.318 0 5.208 2.73 5.208 5.88 0 3.192-1.89 5.922-5.208 5.922zM74.623 31V16.678c0-3.948-2.142-6.468-6.594-6.468-3.318 0-5.796 1.596-7.098 3.15v-2.646h-5.334V31h5.334V17.35c.882-1.218 2.52-2.394 4.62-2.394 2.268 0 3.738.966 3.738 3.78V31h5.334zm24.617 0V2.986h-5.376v10.332C92.268 11.26 90 10.21 87.606 10.21c-5.166 0-8.988 4.032-8.988 10.668 0 6.762 3.864 10.626 8.988 10.626 2.436 0 4.662-1.092 6.258-3.066V31h5.376zm-5.376-6.552c-.924 1.344-2.814 2.31-4.62 2.31-3.024 0-5.124-2.394-5.124-5.88 0-3.528 2.1-5.922 5.124-5.922 1.806 0 3.696.966 4.62 2.31v7.182zm20.073 7.056c6.72 0 10.752-4.872 10.752-10.668 0-5.754-4.032-10.626-10.752-10.626-6.678 0-10.71 4.872-10.71 10.626 0 5.796 4.032 10.668 10.71 10.668zm0-4.746c-3.318 0-5.166-2.73-5.166-5.922 0-3.15 1.848-5.88 5.166-5.88 3.318 0 5.208 2.73 5.208 5.88 0 3.192-1.89 5.922-5.208 5.922zM133.98 31V17.602c.882-1.302 3.234-2.268 4.998-2.268.588 0 1.092.042 1.47.126v-5.208c-2.52 0-5.04 1.428-6.468 3.234v-2.772h-5.334V31h5.334z" fill="#000"/></svg>