<svg width="280" height="20" fill="none" xmlns="http://www.w3.org/2000/svg"><path d="M33.822 18.818c0 .156-.13.234-.39.234-.173 0-.33-.009-.468-.026l-3.302-.052-3.302.052a2.753 2.753 0 01-.39.026c-.347 0-.52-.087-.52-.26 0-.19.234-.286.702-.286 1.525-.017 2.288-.173 2.288-.468a1.5 1.5 0 00-.052-.208l-.208-.702-.13-.364c-.156-.537-.537-1.725-1.144-3.562h-5.564c-1.04 2.773-1.56 4.368-1.56 4.784 0 .243.104.39.312.442.052.017.485.052 1.3.104.503.017.754.104.754.26 0 .173-.225.26-.676.26a43.11 43.11 0 01-2.782-.104c-.26-.017-.529-.026-.806-.026s-.546.017-.806.052a2.832 2.832 0 01-.338.026c-.243 0-.364-.078-.364-.234 0-.156.269-.243.806-.26.555-.017.953-.095 1.196-.234.243-.156.433-.442.572-.858 2.236-6.379 4.056-11.5 5.46-15.366a3.47 3.47 0 01.208-.702l.13-.468c.052-.19.121-.286.208-.286.052 0 .095.052.13.156.225.676.737 2.089 1.534 4.238.624 1.681 2.175 5.902 4.654 12.662.139.381.312.624.52.728.225.104.676.165 1.352.182.45.017.676.104.676.26zm-7.072-6.214L25.372 8.73l-1.248-3.562c-.728 1.907-1.603 4.385-2.626 7.436h5.252zm33.985 4.342c0 .45-.026 1.196-.078 2.236h-.286c-.104 0-.355-.017-.754-.052a15.63 15.63 0 00-1.352-.052L47.449 19c-.295 0-.442-.078-.442-.234 0-.121.234-.2.702-.234.658-.035 1.048-.104 1.17-.208.139-.121.208-.45.208-.988V2.724c0-.641-.07-1.014-.208-1.118-.121-.104-.58-.156-1.378-.156-.33 0-.494-.095-.494-.286 0-.156.104-.234.312-.234h.234c.572.052 1.707.078 3.406.078.156 0 .46-.009.91-.026.45-.035.823-.052 1.118-.052h.286c.312 0 .468.087.468.26 0 .104-.052.173-.156.208-.087.017-.382.035-.884.052-.503.017-.806.104-.91.26-.087.139-.13.59-.13 1.352v15.34c.468.017 1.118.026 1.95.026 2.028 0 3.458-.104 4.29-.312.832-.208 1.395-.598 1.69-1.17.294-.572.468-1.343.52-2.314.017-.225.121-.338.312-.338.225 0 .33.13.312.39l-.026.65v.234c.017.121.026.243.026.364v1.014zm27.534-2.678c0 1.768-.806 3.077-2.418 3.926-.78.416-1.898.676-3.354.78-.399.017-1.578.026-3.536.026h-3.172c-.295 0-.442-.078-.442-.234 0-.156.269-.234.806-.234.624 0 .988-.06 1.092-.182.121-.139.182-.537.182-1.196V3.088c0-.763-.035-1.205-.104-1.326-.121-.208-.563-.32-1.326-.338-.468 0-.702-.087-.702-.26 0-.156.216-.234.65-.234h.312c.19.017.364.026.52.026l5.07.052c1.872.017 3.267.33 4.186.936 1.075.71 1.612 1.742 1.612 3.094 0 1.179-.442 2.15-1.326 2.912-.884.745-2.124 1.213-3.718 1.404v.156c1.577.104 2.808.433 3.692.988 1.317.832 1.976 2.089 1.976 3.77zm-3.484-8.97c0-1.664-.382-2.773-1.144-3.328-.399-.295-1.153-.442-2.262-.442-.295 0-.754.026-1.378.078v7.54h.234l1.43-.052c.988-.035 1.75-.381 2.288-1.04.554-.676.832-1.595.832-2.756zm.754 8.684c0-2.184-.884-3.536-2.652-4.056-.52-.156-1.482-.234-2.886-.234v7.748c0 .503.052.789.156.858.173.121.659.182 1.456.182 1.196 0 2.15-.381 2.86-1.144.71-.763 1.066-1.88 1.066-3.354zm34.446 4.836c0 .156-.13.234-.39.234-.174 0-.33-.009-.468-.026l-3.302-.052-3.302.052a2.765 2.765 0 01-.39.026c-.347 0-.52-.087-.52-.26 0-.19.234-.286.702-.286 1.525-.017 2.288-.173 2.288-.468 0-.017-.018-.087-.052-.208l-.208-.702-.13-.364c-.156-.537-.538-1.725-1.144-3.562h-5.564c-1.04 2.773-1.56 4.368-1.56 4.784 0 .243.104.39.312.442.052.017.485.052 1.3.104.502.017.754.104.754.26 0 .173-.226.26-.676.26-.798 0-1.725-.035-2.782-.104a12.36 12.36 0 00-.806-.026c-.278 0-.546.017-.806.052a2.845 2.845 0 01-.338.026c-.243 0-.364-.078-.364-.234 0-.156.268-.243.806-.26.554-.017.953-.095 1.196-.234.242-.156.433-.442.572-.858 2.236-6.379 4.056-11.5 5.46-15.366.034-.208.104-.442.208-.702l.13-.468c.052-.19.121-.286.208-.286.052 0 .095.052.13.156.225.676.736 2.089 1.534 4.238.624 1.681 2.175 5.902 4.654 12.662.138.381.312.624.52.728.225.104.676.165 1.352.182.45.017.676.104.676.26zm-7.072-6.214l-1.378-3.874-1.248-3.562c-.728 1.907-1.604 4.385-2.626 7.436h5.252zm34.4-7.046c0 .225-.104.338-.312.338-.208 0-.355-.225-.442-.676l-.104-.936c-.121-.624-.32-1.153-.598-1.586-.364-.572-.962-.936-1.794-1.092-.537-.104-.97-.147-1.3-.13-.814.035-1.308.06-1.482.078v15.678c0 .624.165 1.014.494 1.17.174.087.659.139 1.456.156.208.017.312.095.312.234 0 .156-.138.234-.416.234-.138 0-.26-.009-.364-.026a76.714 76.714 0 00-2.21-.052c-.572 0-1.109.009-1.612.026a57.66 57.66 0 01-1.924.026c-.398 0-.598-.07-.598-.208 0-.156.373-.243 1.118-.26.538 0 .884-.113 1.04-.338.087-.139.13-.494.13-1.066V1.554c-1.716.017-2.782.104-3.198.26-1.092.399-1.733 1.465-1.924 3.198-.052.52-.173.78-.364.78-.208 0-.312-.182-.312-.546 0-.19.009-.381.026-.572l.052-.598c.052-.797.13-1.846.234-3.146h1.17l5.304.078c.624.017 1.595.009 2.912-.026l4.316-.078c.035.97.148 2.41.338 4.316 0 .052.009.121.026.208a.73.73 0 01.026.13zM176.81 18.22c0 .728-.607 1.092-1.82 1.092-1.352 0-2.409-.563-3.172-1.69-.329-.485-.546-.953-.65-1.404-.087-.45-.225-1.595-.416-3.432-.104-1.11-.459-1.89-1.066-2.34-.607-.468-1.595-.72-2.964-.754v8.19c0 .347.277.563.832.65.156.017.555.035 1.196.052.225 0 .338.07.338.208 0 .156-.147.234-.442.234h-.312c-.156-.017-.91-.026-2.262-.026-.26 0-.702.009-1.326.026h-2.21c-.381 0-.572-.078-.572-.234 0-.121.251-.19.754-.208.815-.017 1.257-.121 1.326-.312.069-.087.104-.425.104-1.014V2.906c0-.693-.078-1.11-.234-1.248-.139-.139-.581-.217-1.326-.234-.433 0-.65-.078-.65-.234 0-.173.139-.26.416-.26.052 0 .13.009.234.026l3.458.078c.347 0 .832-.009 1.456-.026a34.096 34.096 0 011.456-.052c1.612 0 2.886.364 3.822 1.092.953.71 1.43 1.681 1.43 2.912 0 1.213-.485 2.219-1.456 3.016-.971.78-2.288 1.24-3.952 1.378-.156.017-.243.043-.26.078 0 .07.087.104.26.104 1.82.312 3.068.953 3.744 1.924.693.953 1.153 2.687 1.378 5.2.139 1.421.624 2.132 1.456 2.132.26 0 .39-.052.39-.156 0-.017-.009-.035-.026-.052-.087-.19-.13-.347-.13-.468 0-.364.191-.546.572-.546.416 0 .624.217.624.65zm-5.382-13.026c0-2.479-1.075-3.718-3.224-3.718-.572 0-.962.078-1.17.234-.208.156-.312.433-.312.832v6.604c1.664.017 2.86-.286 3.588-.91.745-.624 1.118-1.638 1.118-3.042zm36.515 4.888c0 2.583-.78 4.767-2.34 6.552-1.542 1.785-3.44 2.678-5.694 2.678-2.392 0-4.402-.901-6.032-2.704-1.629-1.82-2.444-4.056-2.444-6.708 0-2.704.78-4.914 2.34-6.63 1.578-1.733 3.588-2.6 6.032-2.6 2.306 0 4.238.901 5.798 2.704 1.56 1.803 2.34 4.039 2.34 6.708zm-2.912.13c0-3.172-.65-5.642-1.95-7.41-.814-1.11-1.95-1.664-3.406-1.664-1.386 0-2.461.425-3.224 1.274-1.404 1.56-2.106 4.1-2.106 7.618 0 2.79.486 4.957 1.456 6.5.988 1.543 2.366 2.314 4.134 2.314 1.647 0 2.886-.728 3.718-2.184.919-1.612 1.378-3.761 1.378-6.448zm29.855 3.718c0 1.49-.572 2.765-1.716 3.822-1.126 1.04-2.487 1.56-4.082 1.56-.936 0-2.054-.286-3.354-.858-.346-.156-.606-.234-.78-.234-.208 0-.338.251-.39.754-.017.26-.13.39-.338.39-.173 0-.26-.104-.26-.312 0-.139.009-.243.026-.312a22.64 22.64 0 00.208-2.938c0-.173-.017-.659-.052-1.456a2.682 2.682 0 01-.026-.416c0-.26.104-.39.312-.39.174 0 .295.208.364.624.451 3.085 1.916 4.628 4.394 4.628 1.058 0 1.872-.295 2.444-.884.59-.607.884-1.456.884-2.548 0-.97-.286-1.794-.858-2.47-.554-.693-1.516-1.378-2.886-2.054-1.646-.815-2.79-1.603-3.432-2.366-.641-.763-.962-1.707-.962-2.834 0-1.439.46-2.626 1.378-3.562.936-.936 2.115-1.404 3.536-1.404.59 0 1.404.2 2.444.598.364.139.633.208.806.208.191 0 .312-.035.364-.104.07-.07.13-.251.182-.546.035-.173.13-.26.286-.26.174 0 .26.104.26.312 0 .139-.008.243-.026.312a12.41 12.41 0 00-.078 1.508c0 .832.044 1.49.13 1.976l.026.416c.018.19-.06.286-.234.286-.19 0-.32-.2-.39-.598-.19-1.023-.641-1.872-1.352-2.548-.71-.693-1.508-1.04-2.392-1.04-.866 0-1.56.277-2.08.832-.502.555-.754 1.309-.754 2.262 0 1.11.373 2.002 1.118 2.678.416.381 1.318.919 2.704 1.612 1.63.815 2.8 1.647 3.51 2.496.711.832 1.066 1.785 1.066 2.86zm26.614 0c0 1.49-.572 2.765-1.716 3.822-1.127 1.04-2.487 1.56-4.082 1.56-.936 0-2.054-.286-3.354-.858-.347-.156-.607-.234-.78-.234-.208 0-.338.251-.39.754-.017.26-.13.39-.338.39-.173 0-.26-.104-.26-.312 0-.139.009-.243.026-.312a22.64 22.64 0 00.208-2.938c0-.173-.017-.659-.052-1.456a2.682 2.682 0 01-.026-.416c0-.26.104-.39.312-.39.173 0 .295.208.364.624.451 3.085 1.915 4.628 4.394 4.628 1.057 0 1.872-.295 2.444-.884.589-.607.884-1.456.884-2.548 0-.97-.286-1.794-.858-2.47-.555-.693-1.517-1.378-2.886-2.054-1.647-.815-2.791-1.603-3.432-2.366-.641-.763-.962-1.707-.962-2.834 0-1.439.459-2.626 1.378-3.562.936-.936 2.115-1.404 3.536-1.404.589 0 1.404.2 2.444.598.364.139.633.208.806.208.191 0 .312-.035.364-.104.069-.07.13-.251.182-.546.035-.173.13-.26.286-.26.173 0 .26.104.26.312 0 .139-.009.243-.026.312a12.41 12.41 0 00-.078 1.508c0 .832.043 1.49.13 1.976l.026.416c.017.19-.061.286-.234.286-.191 0-.321-.2-.39-.598-.191-1.023-.641-1.872-1.352-2.548-.711-.693-1.508-1.04-2.392-1.04-.867 0-1.56.277-2.08.832-.503.555-.754 1.309-.754 2.262 0 1.11.373 2.002 1.118 2.678.416.381 1.317.919 2.704 1.612 1.629.815 2.799 1.647 3.51 2.496.711.832 1.066 1.785 1.066 2.86z" fill="#EBE4D5"/></svg>