<svg width="280" height="20" fill="none" xmlns="http://www.w3.org/2000/svg"><path d="M22.784 18.766c0 .156-.165.234-.494.234l-3.588-.026c-.243 0-.599.009-1.067.026-.468.017-.814.026-1.04.026-.346 0-.52-.07-.52-.208 0-.139.408-.234 1.223-.286.433-.035.684-.104.754-.208.069-.121.104-.529.104-1.222V9.51H10.33v7.358c0 .78.06 1.24.181 1.378.122.139.53.234 1.223.286.45.035.675.113.675.234 0 .156-.173.234-.52.234h-.233c-.417 0-.859-.009-1.327-.026-.45-.017-.719-.026-.805-.026-.243 0-.607.009-1.092.026-.486.017-1.214.026-2.184.026-.347 0-.52-.07-.52-.208 0-.139.173-.225.52-.26l.702-.052c.38-.035.624-.121.728-.26.052-.087.078-.572.078-1.456V3.036c0-.78-.044-1.24-.13-1.378-.07-.139-.338-.217-.806-.234-.538-.035-.858-.06-.962-.078-.087-.017-.13-.087-.13-.208 0-.139.112-.208.338-.208.069 0 .216.009.442.026.433.035 1.456.052 3.068.052.883 0 1.499-.009 1.845-.026a3.5 3.5 0 01.469-.026c.311 0 .467.087.467.26 0 .156-.285.234-.857.234-.555 0-.893.07-1.014.208-.104.121-.157.529-.157 1.222v5.98h7.826V3.27c0-.919-.069-1.456-.207-1.612-.14-.173-.625-.251-1.457-.234-.26 0-.39-.078-.39-.234 0-.156.148-.234.443-.234h1.404a55.276 55.276 0 003.536 0c.38-.017.623-.026.727-.026.365 0 .547.078.547.234 0 .156-.382.243-1.145.26-.225 0-.39.017-.494.052-.173.052-.285.147-.337.286-.035.139-.052.546-.052 1.222v13.832c0 .832.043 1.317.13 1.456.173.19.675.286 1.508.286.277-.035.416.035.416.208zm32.017-8.684c0 2.583-.78 4.767-2.34 6.552-1.542 1.785-3.44 2.678-5.694 2.678-2.392 0-4.402-.901-6.032-2.704-1.629-1.82-2.444-4.056-2.444-6.708 0-2.704.78-4.914 2.34-6.63C42.21 1.537 44.22.67 46.663.67c2.306 0 4.239.901 5.799 2.704 1.56 1.803 2.34 4.039 2.34 6.708zm-2.912.13c0-3.172-.65-5.642-1.95-7.41-.814-1.11-1.95-1.664-3.406-1.664-1.386 0-2.46.425-3.224 1.274-1.403 1.56-2.105 4.1-2.105 7.618 0 2.79.485 4.957 1.456 6.5.988 1.543 2.366 2.314 4.134 2.314 1.646 0 2.886-.728 3.718-2.184.918-1.612 1.377-3.761 1.377-6.448zm32.091 6.734c0 .45-.025 1.196-.077 2.236h-.286c-.104 0-.356-.017-.754-.052a15.63 15.63 0 00-1.352-.052L70.695 19c-.295 0-.442-.078-.442-.234 0-.121.234-.2.702-.234.658-.035 1.048-.104 1.17-.208.138-.121.208-.45.208-.988V2.724c0-.641-.07-1.014-.208-1.118-.122-.104-.581-.156-1.378-.156-.33 0-.494-.095-.494-.286 0-.156.104-.234.312-.234h.234c.572.052 1.707.078 3.406.078.156 0 .459-.009.91-.026.45-.035.823-.052 1.118-.052h.286c.312 0 .468.087.468.26 0 .104-.052.173-.156.208-.087.017-.382.035-.884.052-.503.017-.806.104-.91.26-.087.139-.13.59-.13 1.352v15.34c.468.017 1.118.026 1.95.026 2.028 0 3.458-.104 4.29-.312.832-.208 1.395-.598 1.69-1.17.294-.572.468-1.343.52-2.314.017-.225.121-.338.312-.338.225 0 .329.13.312.39l-.026.65v.234c.017.121.026.243.026.364v1.014zm28.523-2.158c0 .07-.018.494-.052 1.274-.035.78-.052 1.525-.052 2.236v.858c-1.699-.087-5.062-.13-10.088-.13-.607 0-1.205.009-1.794.026h-1.456c-.33 0-.494-.078-.494-.234 0-.104.052-.165.156-.182.052 0 .381-.026.988-.078.45-.035.719-.13.806-.286.104-.156.156-.563.156-1.222V2.438c0-.503-.078-.797-.234-.884-.139-.104-.607-.156-1.404-.156-.278 0-.416-.078-.416-.234 0-.156.19-.234.572-.234l4.446.026c.156 0 1.135-.009 2.938-.026h3.64c.52 0 .996-.035 1.43-.104.034.745.112 1.777.234 3.094l.104 1.118c.017.087.026.2.026.338 0 .173-.078.26-.234.26-.191 0-.33-.217-.416-.65-.33-1.56-.867-2.548-1.612-2.964-.555-.312-2.011-.468-4.368-.468h-2.132v7.618h.624c1.941 0 3.12-.147 3.536-.442.433-.295.728-1.153.884-2.574.034-.364.13-.546.286-.546.19 0 .286.156.286.468 0 .312-.018.771-.052 1.378a25.88 25.88 0 00-.052 1.378c0 1.855.034 3.129.104 3.822.017.173.026.32.026.442 0 .225-.096.338-.286.338-.122 0-.208-.07-.26-.208-.035-.156-.104-.641-.208-1.456-.139-1.023-.564-1.655-1.274-1.898-.312-.104-1.127-.156-2.444-.156h-1.17v8.736c3.813 0 6.049-.078 6.708-.234 1.144-.26 1.794-1.37 1.95-3.328.034-.433.147-.65.338-.65.173 0 .26.182.26.546zm30.917 4.004c0 .139-.104.208-.312.208h-.26c-.104-.052-1.283-.078-3.536-.078-.433 0-.867.017-1.3.052-.225.017-.572.026-1.04.026-.225 0-.338-.078-.338-.234 0-.139.225-.217.676-.234.693-.017 1.101-.095 1.222-.234.121-.156.182-.659.182-1.508V3.114c0-.85-.043-1.326-.13-1.43-.104-.173-.581-.277-1.43-.312-.329-.017-.494-.087-.494-.208 0-.156.104-.234.312-.234l3.51.052c.26 0 .763-.009 1.508-.026l.988-.026c.277 0 .416.078.416.234 0 .139-.381.225-1.144.26-.433.017-.702.095-.806.234-.087.139-.13.503-.13 1.092v13.884c0 .988.043 1.525.13 1.612.191.19.754.303 1.69.338.191 0 .286.07.286.208zM174.464 1.19c0 .173-.217.251-.65.234l-.572-.026h-.468c-.277 0-.442.052-.494.156-.052.087-.078.373-.078.858v14.976c0 .919-.009 1.456-.026 1.612-.017.156-.069.234-.156.234-.104 0-.225-.095-.364-.286l-3.328-4.862a642.764 642.764 0 01-7.02-10.582l.026 14.508c.017.225.147.373.39.442.243.052.823.087 1.742.104.225 0 .338.07.338.208 0 .173-.225.26-.676.26-.156 0-.65-.026-1.482-.078a12.947 12.947 0 00-.806-.026c.017 0-.139.017-.468.052-.312.035-.797.052-1.456.052h-.26c-.399 0-.598-.078-.598-.234 0-.156.173-.234.52-.234 1.023-.017 1.612-.078 1.768-.182.173-.121.26-.494.26-1.118V4.44c0-1.439-.295-2.34-.884-2.704-.277-.173-.771-.26-1.482-.26-.451 0-.676-.087-.676-.26 0-.156.13-.234.39-.234.347 0 .789.009 1.326.026s.823.026.858.026c.052 0 .295-.009.728-.026.572 0 1.127-.009 1.664-.026l8.97 13.338V2.75c0-.537-.009-.858-.026-.962a.32.32 0 00-.208-.26c-.121-.07-.537-.104-1.248-.104-.624 0-.936-.078-.936-.234 0-.173.208-.26.624-.26h1.638c.277.017.442.026.494.026l.468-.026h1.586c.381 0 .572.087.572.26zm40.907 8.892c0 2.583-.78 4.767-2.34 6.552-1.543 1.785-3.441 2.678-5.694 2.678-2.392 0-4.403-.901-6.032-2.704-1.63-1.82-2.444-4.056-2.444-6.708 0-2.704.78-4.914 2.34-6.63 1.577-1.733 3.588-2.6 6.032-2.6 2.305 0 4.238.901 5.798 2.704 1.56 1.803 2.34 4.039 2.34 6.708zm-2.912.13c0-3.172-.65-5.642-1.95-7.41-.815-1.11-1.95-1.664-3.406-1.664-1.387 0-2.462.425-3.224 1.274-1.404 1.56-2.106 4.1-2.106 7.618 0 2.79.485 4.957 1.456 6.5.988 1.543 2.366 2.314 4.134 2.314 1.646 0 2.886-.728 3.718-2.184.918-1.612 1.378-3.761 1.378-6.448zm34.353-9.022c0 .173-.217.251-.65.234l-.572-.026h-.468c-.277 0-.442.052-.494.156-.052.087-.078.373-.078.858v14.976c0 .919-.009 1.456-.026 1.612-.017.156-.069.234-.156.234-.104 0-.225-.095-.364-.286l-3.328-4.862a642.764 642.764 0 01-7.02-10.582l.026 14.508c.017.225.147.373.39.442.243.052.823.087 1.742.104.225 0 .338.07.338.208 0 .173-.225.26-.676.26-.156 0-.65-.026-1.482-.078a12.947 12.947 0 00-.806-.026c.017 0-.139.017-.468.052-.312.035-.797.052-1.456.052h-.26c-.399 0-.598-.078-.598-.234 0-.156.173-.234.52-.234 1.023-.017 1.612-.078 1.768-.182.173-.121.26-.494.26-1.118V4.44c0-1.439-.295-2.34-.884-2.704-.277-.173-.771-.26-1.482-.26-.451 0-.676-.087-.676-.26 0-.156.13-.234.39-.234.347 0 .789.009 1.326.026s.823.026.858.026c.052 0 .295-.009.728-.026.572 0 1.127-.009 1.664-.026l8.97 13.338V2.75c0-.537-.009-.858-.026-.962a.32.32 0 00-.208-.26c-.121-.07-.537-.104-1.248-.104-.624 0-.936-.078-.936-.234 0-.173.208-.26.624-.26h1.638c.277.017.442.026.494.026l.468-.026h1.586c.381 0 .572.087.572.26zm28.647 13.598c0 .07-.018.494-.052 1.274-.035.78-.052 1.525-.052 2.236v.858c-1.699-.087-5.062-.13-10.088-.13-.607 0-1.205.009-1.794.026h-1.456c-.33 0-.494-.078-.494-.234 0-.104.052-.165.156-.182.052 0 .381-.026.988-.078.45-.035.719-.13.806-.286.104-.156.156-.563.156-1.222V2.438c0-.503-.078-.797-.234-.884-.139-.104-.607-.156-1.404-.156-.278 0-.416-.078-.416-.234 0-.156.19-.234.572-.234l4.446.026c.156 0 1.135-.009 2.938-.026h3.64c.52 0 .996-.035 1.43-.104.034.745.112 1.777.234 3.094l.104 1.118c.017.087.026.2.026.338 0 .173-.078.26-.234.26-.191 0-.33-.217-.416-.65-.33-1.56-.867-2.548-1.612-2.964-.555-.312-2.011-.468-4.368-.468h-2.132v7.618h.624c1.941 0 3.12-.147 3.536-.442.433-.295.728-1.153.884-2.574.034-.364.13-.546.286-.546.19 0 .286.156.286.468 0 .312-.018.771-.052 1.378a25.88 25.88 0 00-.052 1.378c0 1.855.034 3.129.104 3.822.017.173.026.32.026.442 0 .225-.096.338-.286.338-.122 0-.208-.07-.26-.208-.035-.156-.104-.641-.208-1.456-.139-1.023-.564-1.655-1.274-1.898-.312-.104-1.127-.156-2.444-.156h-1.17v8.736c3.813 0 6.049-.078 6.708-.234 1.144-.26 1.794-1.37 1.95-3.328.034-.433.147-.65.338-.65.173 0 .26.182.26.546z" fill="#EBE4D5"/></svg>