<svg width="226" height="40" fill="none" xmlns="http://www.w3.org/2000/svg"><g clip-path="url(#clip0_3084_31126)" fill="#000"><path d="M28.896 31L18.102 2.986h-7.476L-.21 31h6.552l1.764-4.83h12.516L22.386 31h6.51zm-9.912-9.996H9.702l4.662-12.852 4.62 12.852zM36.691 31V2.986h-5.334V31h5.334zm10.623 0v-2.562c1.596 1.974 3.822 3.066 6.258 3.066 5.124 0 8.988-3.864 8.988-10.626 0-6.636-3.822-10.668-8.988-10.668-2.394 0-4.662 1.05-6.258 3.108V2.986H41.98V31h5.334zm0-13.692c.882-1.344 2.856-2.352 4.578-2.352 3.108 0 5.166 2.394 5.166 5.922 0 3.528-2.058 5.88-5.166 5.88-1.722 0-3.696-.966-4.578-2.268v-7.182zM84.103 31V17.896c0-5.838-4.242-7.686-8.862-7.686-3.192 0-6.384 1.008-8.862 3.192l2.016 3.57c1.722-1.596 3.738-2.394 5.922-2.394 2.688 0 4.452 1.344 4.452 3.402v2.814c-1.344-1.638-3.738-2.478-6.426-2.478-3.234 0-7.056 1.722-7.056 6.468 0 4.536 3.822 6.72 7.056 6.72 2.646 0 5.04-.966 6.426-2.604V31h5.334zm-5.334-4.872c-.882 1.176-2.562 1.764-4.284 1.764-2.1 0-3.822-1.092-3.822-2.982 0-1.932 1.722-3.066 3.822-3.066 1.722 0 3.402.588 4.284 1.764v2.52zm17.429 5.376c2.226 0 3.654-.588 4.452-1.302l-1.134-4.032c-.294.294-1.05.588-1.848.588-1.176 0-1.848-.966-1.848-2.226v-9.156h4.116v-4.662H95.82V5.17h-5.376v5.544h-3.36v4.662h3.36V25.96c0 3.612 2.016 5.544 5.754 5.544zM108.919 31V17.602c.882-1.302 3.234-2.268 4.998-2.268.588 0 1.092.042 1.47.126v-5.208c-2.52 0-5.04 1.428-6.468 3.234v-2.772h-5.334V31h5.334zm19.209.504c6.72 0 10.752-4.872 10.752-10.668 0-5.754-4.032-10.626-10.752-10.626-6.678 0-10.71 4.872-10.71 10.626 0 5.796 4.032 10.668 10.71 10.668zm0-4.746c-3.318 0-5.166-2.73-5.166-5.922 0-3.15 1.848-5.88 5.166-5.88 3.318 0 5.208 2.73 5.208 5.88 0 3.192-1.89 5.922-5.208 5.922zm12.945 1.596c2.142 1.974 5.544 3.15 9.072 3.15 5.628 0 8.778-2.772 8.778-6.51 0-5.04-4.662-5.964-8.148-6.636-2.268-.462-3.864-.924-3.864-2.184 0-1.176 1.26-1.89 3.192-1.89 2.478 0 4.788 1.05 6.006 2.352l2.1-3.654c-1.974-1.596-4.704-2.772-8.148-2.772-5.334 0-8.316 2.982-8.316 6.384 0 4.83 4.494 5.67 7.98 6.342 2.31.462 4.074.966 4.074 2.394 0 1.26-1.092 2.058-3.402 2.058-2.52 0-5.544-1.386-7.014-2.772l-2.31 3.738zm20.016 0c2.142 1.974 5.544 3.15 9.072 3.15 5.628 0 8.778-2.772 8.778-6.51 0-5.04-4.662-5.964-8.148-6.636-2.268-.462-3.864-.924-3.864-2.184 0-1.176 1.26-1.89 3.192-1.89 2.478 0 4.788 1.05 6.006 2.352l2.1-3.654c-1.974-1.596-4.704-2.772-8.148-2.772-5.334 0-8.316 2.982-8.316 6.384 0 4.83 4.494 5.67 7.98 6.342 2.31.462 4.074.966 4.074 2.394 0 1.26-1.092 2.058-3.402 2.058-2.52 0-5.544-1.386-7.014-2.772l-2.31 3.738z"/></g><defs><clipPath id="clip0_3084_31126"><path fill="#fff" d="M0 0h226v40H0z"/></clipPath></defs></svg>