<svg width="154" height="11" fill="none" xmlns="http://www.w3.org/2000/svg"><path d="M4.58 10.168c1.153 0 2.1-.444 2.833-1.296l-.936-1.116c-.468.516-1.068.876-1.824.876-1.416 0-2.316-1.152-2.316-3.096 0-1.896 1.008-3.048 2.34-3.048.684 0 1.188.3 1.644.744l.936-1.14C6.68 1.492 5.78.964 4.653.964 2.397.964.525 2.668.525 5.596c0 2.964 1.812 4.572 4.056 4.572zM16.765 10h5.58V8.512H18.54V6.148h3.108v-1.5H18.54V2.596h3.672V1.12h-5.448V10zm15.302 0h1.776V6.652h1.308c1.86 0 3.336-.864 3.336-2.844 0-2.04-1.476-2.688-3.336-2.688h-3.084V10zm1.776-4.752V2.536h1.14c1.152 0 1.776.324 1.776 1.272s-.624 1.44-1.776 1.44h-1.14zM36.89 10h1.98l-2.808-4.92-1.236 1.116L36.89 10zm12.747 0h1.776V2.596h2.508V1.12H47.13v1.476h2.508V10zm13.656 0h1.776V1.12h-1.776V10zm11.881 0h1.776V6.4h3.156V4.924H76.95V2.596h3.696V1.12h-5.472V10zm14.94 0h1.776V1.12h-1.776V10zm15.492.168c1.152 0 2.1-.444 2.832-1.296l-.936-1.116c-.468.516-1.068.876-1.824.876-1.416 0-2.316-1.152-2.316-3.096 0-1.896 1.008-3.048 2.34-3.048.684 0 1.188.3 1.644.744l.936-1.14c-.576-.6-1.476-1.128-2.604-1.128-2.256 0-4.128 1.704-4.128 4.632 0 2.964 1.812 4.572 4.056 4.572zM116.65 10h1.8l1.272-4.62c.264-.924.516-1.944.756-2.904h.048c.252.948.504 1.98.768 2.904l1.272 4.62h1.86l-2.844-8.88h-2.088L116.65 10zm1.764-2.28h4.224V6.352h-4.224V7.72zM134.177 10h1.776V2.596h2.508V1.12h-6.792v1.476h2.508V10zm13.656 0h5.58V8.512h-3.804V6.148h3.108v-1.5h-3.108V2.596h3.672V1.12h-5.448V10z" fill="#8D9884"/></svg>