<svg width="280" height="20" fill="none" xmlns="http://www.w3.org/2000/svg"><path d="M88.612 14.788c0 .07-.018.494-.052 1.274-.035.78-.052 1.525-.052 2.236v.858c-1.699-.087-5.062-.13-10.088-.13-.607 0-1.205.009-1.794.026H75.17c-.33 0-.494-.078-.494-.234 0-.104.052-.165.156-.182.052 0 .381-.026.988-.078.45-.035.72-.13.806-.286.104-.156.156-.563.156-1.222V2.438c0-.503-.078-.798-.234-.884-.139-.104-.607-.156-1.404-.156-.278 0-.416-.078-.416-.234 0-.156.19-.234.572-.234l4.446.026c.156 0 1.135-.009 2.938-.026h3.64c.52 0 .996-.035 1.43-.104.034.745.112 1.776.234 3.094l.104 1.118c.017.086.026.2.026.338 0 .173-.078.26-.234.26-.19 0-.33-.217-.416-.65-.33-1.56-.867-2.548-1.612-2.964-.555-.312-2.01-.468-4.368-.468h-2.132v7.618h.624c1.941 0 3.12-.148 3.536-.442.433-.295.728-1.153.884-2.574.034-.364.13-.546.286-.546.19 0 .286.156.286.468 0 .312-.018.771-.052 1.378a26.208 26.208 0 00-.052 1.378c0 1.854.034 3.129.104 3.822.017.173.026.32.026.442 0 .225-.096.338-.286.338-.122 0-.208-.07-.26-.208-.035-.156-.104-.642-.208-1.456-.139-1.023-.564-1.655-1.274-1.898-.312-.104-1.127-.156-2.444-.156h-1.17v8.736c3.813 0 6.05-.078 6.708-.234 1.144-.26 1.794-1.37 1.95-3.328.034-.433.147-.65.338-.65.173 0 .26.182.26.546zm31.007 4.03c0 .156-.13.234-.39.234-.174 0-.33-.009-.468-.026l-3.302-.052-3.302.052a2.78 2.78 0 01-.39.026c-.347 0-.52-.087-.52-.26 0-.19.234-.286.702-.286 1.525-.018 2.288-.174 2.288-.468 0-.018-.018-.087-.052-.208l-.208-.702-.13-.364c-.156-.537-.538-1.725-1.144-3.562h-5.564c-1.04 2.773-1.56 4.368-1.56 4.784 0 .242.104.39.312.442.052.017.485.052 1.3.104.502.017.754.104.754.26 0 .173-.226.26-.676.26a43.16 43.16 0 01-2.782-.104c-.26-.018-.529-.026-.806-.026-.278 0-.546.017-.806.052a2.866 2.866 0 01-.338.026c-.243 0-.364-.078-.364-.234 0-.156.268-.243.806-.26.554-.018.953-.096 1.196-.234.242-.156.433-.442.572-.858 2.236-6.379 4.056-11.5 5.46-15.366.034-.208.104-.442.208-.702l.13-.468c.052-.19.121-.286.208-.286.052 0 .095.052.13.156.225.676.736 2.088 1.534 4.238.624 1.681 2.175 5.902 4.654 12.662.138.381.312.624.52.728.225.104.676.165 1.352.182.45.017.676.104.676.26zm-7.072-6.214l-1.378-3.874-1.248-3.562c-.728 1.906-1.604 4.385-2.626 7.436h5.252zm37.417.91c0 .139-.208.208-.624.208-.936 0-1.456.139-1.56.416-.07.19-.104.944-.104 2.262v.832c-.902.762-1.76 1.3-2.574 1.612-.815.312-1.794.468-2.938.468-2.739 0-4.914-.815-6.526-2.444-1.612-1.647-2.418-3.874-2.418-6.682 0-2.843.788-5.14 2.366-6.89 1.577-1.75 3.657-2.626 6.24-2.626 1.126 0 2.357.312 3.692.936.398.19.728.286.988.286.329 0 .546-.208.65-.624.086-.243.19-.364.312-.364.138 0 .208.078.208.234 0 .017-.018.182-.052.494-.122 1.022-.174 1.776-.156 2.262l.026 1.404c.017.71.008 1.152-.026 1.326-.035.173-.13.26-.286.26-.156 0-.243-.122-.26-.364-.087-1.664-.572-2.973-1.456-3.926-.884-.97-2.046-1.456-3.484-1.456-1.803 0-3.233.806-4.29 2.418-1.04 1.594-1.56 3.778-1.56 6.552 0 2.686.528 4.819 1.586 6.396 1.074 1.56 2.522 2.34 4.342 2.34 1.386 0 2.34-.399 2.86-1.196.26-.399.39-1.118.39-2.158 0-.867-.087-1.378-.26-1.534-.156-.156-.72-.226-1.69-.208-.243 0-.399-.009-.468-.026-.07-.035-.104-.095-.104-.182 0-.19.19-.286.572-.286h.468c.381.052 1.334.07 2.86.052l2.08-.026c.121 0 .251-.009.39-.026h.286c.346 0 .52.087.52.26zm27.523 3.432c0 .45-.026 1.196-.078 2.236h-.286c-.104 0-.355-.017-.754-.052a15.735 15.735 0 00-1.352-.052L164.201 19c-.295 0-.442-.078-.442-.234 0-.121.234-.2.702-.234.659-.035 1.049-.104 1.17-.208.139-.122.208-.45.208-.988V2.724c0-.642-.069-1.014-.208-1.118-.121-.104-.581-.156-1.378-.156-.329 0-.494-.096-.494-.286 0-.156.104-.234.312-.234h.234c.572.052 1.707.078 3.406.078.156 0 .459-.009.91-.026.451-.035.823-.052 1.118-.052h.286c.312 0 .468.086.468.26 0 .104-.052.173-.156.208-.087.017-.381.034-.884.052-.503.017-.806.104-.91.26-.087.138-.13.59-.13 1.352v15.34c.468.017 1.118.026 1.95.026 2.028 0 3.458-.104 4.29-.312.832-.208 1.395-.598 1.69-1.17.295-.572.468-1.344.52-2.314.017-.226.121-.338.312-.338.225 0 .329.13.312.39l-.026.65v.234c.017.121.026.242.026.364v1.014zm28.522-2.158c0 .07-.017.494-.052 1.274-.035.78-.052 1.525-.052 2.236v.858c-1.699-.087-5.061-.13-10.088-.13-.607 0-1.205.009-1.794.026h-1.456c-.329 0-.494-.078-.494-.234 0-.104.052-.165.156-.182.052 0 .381-.026.988-.078.451-.035.719-.13.806-.286.104-.156.156-.563.156-1.222V2.438c0-.503-.078-.798-.234-.884-.139-.104-.607-.156-1.404-.156-.277 0-.416-.078-.416-.234 0-.156.191-.234.572-.234l4.446.026c.156 0 1.135-.009 2.938-.026h3.64c.52 0 .997-.035 1.43-.104.035.745.113 1.776.234 3.094l.104 1.118c.017.086.026.2.026.338 0 .173-.078.26-.234.26-.191 0-.329-.217-.416-.65-.329-1.56-.867-2.548-1.612-2.964-.555-.312-2.011-.468-4.368-.468h-2.132v7.618h.624c1.941 0 3.12-.148 3.536-.442.433-.295.728-1.153.884-2.574.035-.364.13-.546.286-.546.191 0 .286.156.286.468 0 .312-.017.771-.052 1.378a25.88 25.88 0 00-.052 1.378c0 1.854.035 3.129.104 3.822.017.173.026.32.026.442 0 .225-.095.338-.286.338-.121 0-.208-.07-.26-.208-.035-.156-.104-.642-.208-1.456-.139-1.023-.563-1.655-1.274-1.898-.312-.104-1.127-.156-2.444-.156h-1.17v8.736c3.813 0 6.049-.078 6.708-.234 1.144-.26 1.794-1.37 1.95-3.328.035-.433.147-.65.338-.65.173 0 .26.182.26.546z" fill="#EBE4D5"/></svg>