<svg width="264" height="24" fill="none" xmlns="http://www.w3.org/2000/svg"><path d="M36.558 21.057L29.876 3.715h-4.628L18.54 21.057h4.056l1.091-2.99h7.749l1.092 2.99h4.03zm-6.136-6.188h-5.746l2.886-7.956 2.86 7.956zm28.641 6.188v-3.25h-7.332V3.715h-3.692v17.342h11.024zm21.877 0c3.302 0 5.044-2.08 5.044-4.68 0-2.184-1.482-3.978-3.328-4.264 1.638-.338 2.99-1.794 2.99-3.978 0-2.314-1.69-4.42-4.992-4.42h-9.126v17.342h9.412zM75.22 6.861h4.628c1.248 0 2.028.832 2.028 1.898 0 1.118-.78 1.924-2.028 1.924H75.22V6.861zm0 6.968h4.758c1.456 0 2.236.936 2.236 2.028 0 1.248-.832 2.054-2.236 2.054H75.22V13.83zm39.601 7.228l-6.682-17.342h-4.628l-6.708 17.342h4.056l1.092-2.99h7.748l1.092 2.99h4.03zm-6.136-6.188h-5.746l2.886-7.956 2.86 7.956zm23.663 6.188V6.965h5.044v-3.25H123.56v3.25h5.07v14.092h3.718zm31.331 0l-3.9-6.604c1.872-.442 3.796-2.08 3.796-5.148 0-3.224-2.21-5.59-5.824-5.59h-8.112v17.342h3.692v-6.214h2.704l3.406 6.214h4.238zM159.805 9.28c0 1.456-1.118 2.392-2.6 2.392h-3.874V6.887h3.874c1.482 0 2.6.936 2.6 2.392zm15.589 3.12c0 5.225 3.822 8.97 9.048 8.97 5.252 0 9.074-3.745 9.074-8.97 0-5.227-3.822-8.97-9.074-8.97-5.226 0-9.048 3.743-9.048 8.97zm14.326 0c0 3.223-2.08 5.693-5.278 5.693-3.198 0-5.252-2.47-5.252-5.694 0-3.25 2.054-5.694 5.252-5.694s5.278 2.444 5.278 5.694zm15.071 6.213c1.638 1.638 4.03 2.756 7.358 2.756 4.68 0 6.942-2.392 6.942-5.564 0-3.848-3.64-4.706-6.5-5.356-2.002-.468-3.458-.832-3.458-2.002 0-1.04.884-1.768 2.548-1.768 1.69 0 3.562.598 4.966 1.898l2.054-2.704c-1.716-1.586-4.004-2.418-6.76-2.418-4.082 0-6.578 2.34-6.578 5.226 0 3.874 3.64 4.654 6.474 5.304 2.002.468 3.51.91 3.51 2.21 0 .988-.988 1.95-3.016 1.95a7.603 7.603 0 01-5.512-2.34l-2.028 2.808zm25.47 0c1.638 1.638 4.03 2.756 7.358 2.756 4.68 0 6.942-2.392 6.942-5.564 0-3.848-3.64-4.706-6.5-5.356-2.002-.468-3.458-.832-3.458-2.002 0-1.04.884-1.768 2.548-1.768 1.69 0 3.562.598 4.966 1.898l2.054-2.704c-1.716-1.586-4.004-2.418-6.76-2.418-4.082 0-6.578 2.34-6.578 5.226 0 3.874 3.64 4.654 6.474 5.304 2.002.468 3.51.91 3.51 2.21 0 .988-.988 1.95-3.016 1.95a7.603 7.603 0 01-5.512-2.34l-2.028 2.808z" fill="#fff"/></svg>