<svg width="290" height="116" fill="none" xmlns="http://www.w3.org/2000/svg"><path d="M172.51 32.58c.12-.3.21-.75.27-1.35.12-.66.18-1.23.18-1.71 0-.9-.15-1.83-.45-2.79-.3-.96-.87-1.83-1.71-2.61-.78-.78-1.86-1.41-3.24-1.89-1.32-.48-3.06-.72-5.22-.72-1.74 0-3.36.36-4.86 1.08-1.5.66-2.91 1.47-4.23 2.43-1.5 1.08-3.21 2.67-5.13 4.77-1.86 2.1-3.63 4.47-5.31 7.11a44.82 44.82 0 00-4.23 8.28c-1.08 2.88-1.62 5.7-1.62 8.46 0 1.5.27 2.73.81 3.69s1.23 1.71 2.07 2.25c.9.54 1.92.93 3.06 1.17 1.14.18 2.31.27 3.51.27 5.04 0 9.63-1.32 13.77-3.96 4.14-2.7 8.07-6.6 11.79-11.7.18-.24.33-.36.45-.36.24 0 .36.42.36 1.26 0 .48-.09.9-.27 1.26-.12.3-.27.6-.45.9-2.76 4.14-6.42 7.41-10.98 9.81-4.5 2.34-9.45 3.51-14.85 3.51-1.74 0-3.42-.18-5.04-.54-1.56-.3-2.97-.84-4.23-1.62a9.37 9.37 0 01-2.88-3.24c-.72-1.38-1.08-3.09-1.08-5.13 0-2.28.42-4.62 1.26-7.02.9-2.4 2.04-4.71 3.42-6.93 1.38-2.22 2.91-4.29 4.59-6.21 1.74-1.92 3.48-3.54 5.22-4.86 2.16-1.68 4.56-3 7.2-3.96 2.64-1.02 5.4-1.53 8.28-1.53 2.16 0 4.35.24 6.57.72 2.28.42 4.38 1.2 6.3 2.34.48.24.72.6.72 1.08-.42.72-.96 1.86-1.62 3.42-.66 1.5-1.2 2.85-1.62 4.05l-.81.27zm31.321 12.96c-1.02 1.38-2.28 2.64-3.78 3.78-1.44 1.08-3.09 1.62-4.95 1.62-1.02 0-2.04-.24-3.06-.72-.96-.54-1.74-1.32-2.34-2.34-.42.96-.96 2.07-1.62 3.33a37.31 37.31 0 01-2.34 3.69c-.9 1.2-1.92 2.31-3.06 3.33a15.733 15.733 0 01-3.51 2.52c-1.08.48-1.98.72-2.7.72-2.16 0-3.24-.96-3.24-2.88 0-1.08.18-2.19.54-3.33.42-1.14.93-2.25 1.53-3.33s1.23-2.1 1.89-3.06c.72-.96 1.38-1.74 1.98-2.34a18.78 18.78 0 014.32-3.51c1.62-.96 3.36-1.53 5.22-1.71.12-.48.3-1.02.54-1.62.24-.66.66-1.05 1.26-1.17l.9-.18c.3-.06.57-.15.81-.27a.45.45 0 01.54 0c.18.06.21.21.09.45-.42.66-.75 1.5-.99 2.52-.18 1.02-.27 2.13-.27 3.33 0 1.68.3 3.06.9 4.14.66 1.08 1.77 1.62 3.33 1.62s2.97-.51 4.23-1.53c1.26-1.02 2.31-2.13 3.15-3.33.12-.3.3-.39.54-.27.3.12.33.3.09.54zm-14.85.63c-.12-.54-.21-1.17-.27-1.89-.06-.72-.09-1.41-.09-2.07 0-.3-.12-.45-.36-.45-.66 0-1.35.24-2.07.72-.72.42-1.44 1.02-2.16 1.8a23.5 23.5 0 00-2.16 2.52c-.72.96-1.38 1.95-1.98 2.97-.78 1.32-1.5 2.76-2.16 4.32-.6 1.5-.87 2.94-.81 4.32 0 .42.06.81.18 1.17.18.36.54.54 1.08.54 1.02 0 2.13-.57 3.33-1.71 1.2-1.14 2.34-2.46 3.42-3.96 1.08-1.56 1.98-3.12 2.7-4.68.78-1.56 1.23-2.76 1.35-3.6z" fill="#fff"/><path d="M224.711 49.23c-1.08 1.5-2.34 3.03-3.78 4.59-1.38 1.5-2.88 2.85-4.5 4.05-1.56 1.2-3.18 2.19-4.86 2.97-1.62.78-3.21 1.17-4.77 1.17-.72 0-1.38-.12-1.98-.36-.6-.18-.9-.69-.9-1.53 0-.84.3-1.89.9-3.15.6-1.32 1.29-2.7 2.07-4.14.84-1.44 1.68-2.91 2.52-4.41.9-1.5 1.62-2.88 2.16-4.14.12-.3.12-.54 0-.72-.06-.24-.24-.27-.54-.09-.66.42-1.44.99-2.34 1.71-.9.72-1.83 1.5-2.79 2.34-.9.78-1.8 1.59-2.7 2.43-.84.84-1.53 1.59-2.07 2.25-.96 1.5-1.8 2.88-2.52 4.14-.66 1.26-1.5 2.67-2.52 4.23-.24.36-.42.54-.54.54-.3 0-.57-.33-.81-.99-.18-.66-.27-1.08-.27-1.26 0-.54.36-1.26 1.08-2.16.78-.96 1.62-2.01 2.52-3.15.96-1.92 1.95-3.93 2.97-6.03 1.02-2.16 1.89-4.08 2.61-5.76.18-.3.45-.45.81-.45.36 0 .69.15.99.45.3.3.45.63.45.99 0 .24-.45 1.08-1.35 2.52-.84 1.38-1.68 3-2.52 4.86 1.14-1.02 2.37-2.1 3.69-3.24 1.38-1.14 2.67-2.19 3.87-3.15a65.11 65.11 0 013.24-2.34c.96-.66 1.62-.99 1.98-.99.24 0 .45.15.63.45.24.24.36.48.36.72s-.15.6-.45 1.08c-.66.96-1.47 2.19-2.43 3.69-.96 1.5-1.89 3.06-2.79 4.68-.84 1.56-1.56 3.06-2.16 4.5-.6 1.44-.9 2.58-.9 3.42 0 .72.15 1.23.45 1.53.3.24.78.36 1.44.36 1.02 0 2.22-.39 3.6-1.17 1.38-.78 2.79-1.74 4.23-2.88 1.5-1.2 2.91-2.52 4.23-3.96 1.32-1.44 2.4-2.82 3.24-4.14.12-.18.3-.21.54-.09.24.06.21.27-.09.63z" fill="#fff"/><path d="M276.906.99c0 .36-.18.72-.54 1.08-.36.36-.6.87-.72 1.53-.12.42-.33.63-.63.63-.18 0-.36-.03-.54-.09-.18-.12-.42-.24-.72-.36-.24-.12-.57-.21-.99-.27-.36-.12-.9-.18-1.62-.18-1.02 0-2.04.15-3.06.45-1.02.24-1.95.63-2.79 1.17-1.68 1.08-3.51 2.61-5.49 4.59a50.919 50.919 0 00-5.31 6.48c-4.02 5.76-7.56 11.16-10.62 16.2-3 4.98-5.52 9.45-7.56 13.41-2.04 3.96-3.57 7.35-4.59 10.17-1.02 2.76-1.53 4.8-1.53 6.12 0 1.02.21 1.86.63 2.52.48.66 1.23.99 2.25.99 1.62 0 3.15-.51 4.59-1.53 1.5-1.02 2.91-2.28 4.23-3.78 1.32-1.56 2.52-3.27 3.6-5.13a76.98 76.98 0 002.79-5.22c.12-.24.3-.33.54-.27.3.06.3.3 0 .72a69.196 69.196 0 01-3.51 6.21c-1.2 1.92-2.49 3.6-3.87 5.04-1.32 1.5-2.73 2.67-4.23 3.51-1.44.84-2.88 1.26-4.32 1.26-1.62 0-2.82-.45-3.6-1.35-.78-.84-1.17-1.95-1.17-3.33 0-1.44.27-2.97.81-4.59.6-1.68 1.5-3.72 2.7-6.12-1.68 2.04-3.15 3.75-4.41 5.13-1.26 1.38-2.37 2.46-3.33 3.24-.96.78-1.8 1.32-2.52 1.62-.66.36-1.26.54-1.8.54-.84 0-1.41-.21-1.71-.63-.3-.48-.45-1.08-.45-1.8 0-.54.15-1.23.45-2.07.3-.9.72-1.77 1.26-2.61 2.22-3.6 4.68-6.54 7.38-8.82 2.76-2.28 6.15-3.78 10.17-4.5 2.88-5.04 5.64-9.57 8.28-13.59 2.64-4.02 5.52-7.95 8.64-11.79 2.58-3.24 5.13-6.09 7.65-8.55 2.58-2.46 5.22-4.32 7.92-5.58 2.04-.96 3.81-1.44 5.31-1.44.72 0 1.29.09 1.71.27.48.18.72.42.72.72zm-40.95 41.31c-2.28.06-4.05.51-5.31 1.35-1.2.78-2.28 1.77-3.24 2.97-2.28 2.82-3.9 5.25-4.86 7.29-.96 1.98-1.44 3.45-1.44 4.41 0 .3.12.51.36.63s.42.18.54.18c.42 0 1.17-.45 2.25-1.35 1.14-.9 2.37-2.1 3.69-3.6 1.38-1.56 2.79-3.36 4.23-5.4 1.44-2.04 2.7-4.2 3.78-6.48z" fill="#fff"/><path d="M274.214 45.54c-1.02 1.38-2.28 2.64-3.78 3.78-1.44 1.08-3.09 1.62-4.95 1.62-1.02 0-2.04-.24-3.06-.72-.96-.54-1.74-1.32-2.34-2.34-.42.96-.96 2.07-1.62 3.33a37.31 37.31 0 01-2.34 3.69c-.9 1.2-1.92 2.31-3.06 3.33a15.733 15.733 0 01-3.51 2.52c-1.08.48-1.98.72-2.7.72-2.16 0-3.24-.96-3.24-2.88 0-1.08.18-2.19.54-3.33.42-1.14.93-2.25 1.53-3.33s1.23-2.1 1.89-3.06c.72-.96 1.38-1.74 1.98-2.34a18.78 18.78 0 014.32-3.51c1.62-.96 3.36-1.53 5.22-1.71.12-.48.3-1.02.54-1.62.24-.66.66-1.05 1.26-1.17l.9-.18c.3-.06.57-.15.81-.27a.45.45 0 01.54 0c.18.06.21.21.09.45-.42.66-.75 1.5-.99 2.52-.18 1.02-.27 2.13-.27 3.33 0 1.68.3 3.06.9 4.14.66 1.08 1.77 1.62 3.33 1.62s2.97-.51 4.23-1.53c1.26-1.02 2.31-2.13 3.15-3.33.12-.3.3-.39.54-.27.3.12.33.3.09.54zm-14.85.63c-.12-.54-.21-1.17-.27-1.89-.06-.72-.09-1.41-.09-2.07 0-.3-.12-.45-.36-.45-.66 0-1.35.24-2.07.72-.72.42-1.44 1.02-2.16 1.8a23.5 23.5 0 00-2.16 2.52c-.72.96-1.38 1.95-1.98 2.97-.78 1.32-1.5 2.76-2.16 4.32-.6 1.5-.87 2.94-.81 4.32 0 .42.06.81.18 1.17.18.36.54.54 1.08.54 1.02 0 2.13-.57 3.33-1.71 1.2-1.14 2.34-2.46 3.42-3.96 1.08-1.56 1.98-3.12 2.7-4.68.78-1.56 1.23-2.76 1.35-3.6z" fill="#fff"/><path d="M286.814 42.48c-.36.42-.75.93-1.17 1.53-.36.6-.6 1.05-.72 1.35-.06.18-.18.27-.36.27-.06 0-.15-.09-.27-.27-.12-.18-.3-.36-.54-.54-.18-.24-.45-.45-.81-.63-.36-.18-.87-.27-1.53-.27-.78 0-1.65.27-2.61.81s-1.8 1.14-2.52 1.8c-1.14.96-2.16 2.01-3.06 3.15-.84 1.14-1.65 2.34-2.43 3.6-.78 1.2-1.53 2.46-2.25 3.78a95.14 95.14 0 01-2.34 3.87c-.06.18-.24.27-.54.27-.12 0-.39-.18-.81-.54-.36-.36-.54-.63-.54-.81 0-.36.21-.9.63-1.62l2.88-5.04c1.02-1.74 1.95-3.36 2.79-4.86.9-1.5 1.68-2.79 2.34-3.87.66-1.14 1.11-1.98 1.35-2.52.3-.54.51-.81.63-.81s.42.15.9.45c.48.3.72.72.72 1.26 0 .18-.12.48-.36.9-.18.42-.42.87-.72 1.35l-.72 1.26c-.24.42-.42.72-.54.9-.18.3-.21.45-.09.45s.27-.09.45-.27c.6-.6 1.32-1.26 2.16-1.98.9-.72 1.83-1.38 2.79-1.98.96-.66 1.89-1.2 2.79-1.62.96-.42 1.8-.63 2.52-.63.54 0 .99.15 1.35.45.42.24.63.51.63.81z" fill="#fff"/></svg>