<svg width="280" height="20" fill="none" xmlns="http://www.w3.org/2000/svg"><path d="M68.962 13.176c0-.017-.017.217-.052.702a40.45 40.45 0 00-.104 2.912c0 .121.017.347.052.676.035.312.052.693.052 1.144v.234c0 .225-.07.338-.208.338-.139 0-.26-.13-.364-.39-.243-.607-.485-.98-.728-1.118-1.248 1.092-2.747 1.638-4.498 1.638-2.548 0-4.663-.884-6.344-2.652-1.664-1.785-2.496-4.03-2.496-6.734 0-2.721.763-4.94 2.288-6.656 1.543-1.733 3.527-2.6 5.954-2.6.884 0 1.586.078 2.106.234.537.139 1.196.433 1.976.884.381.225.667.338.858.338.156 0 .303-.139.442-.416.225-.485.407-.728.546-.728.139 0 .208.07.208.208 0 .07-.017.182-.052.338-.19.832-.286 2.392-.286 4.68 0 .33-.026.52-.078.572a.281.281 0 01-.208.078c-.173 0-.286-.165-.338-.494-.225-1.387-.546-2.418-.962-3.094-.85-1.387-2.184-2.08-4.004-2.08-1.404 0-2.513.468-3.328 1.404-1.473 1.681-2.21 4.143-2.21 7.384 0 2.895.607 5.14 1.82 6.734 1.057 1.387 2.461 2.08 4.212 2.08a4.68 4.68 0 002.47-.676 4.519 4.519 0 001.716-1.846c.416-.797.737-1.75.962-2.86.087-.416.2-.624.338-.624.173 0 .26.13.26.39zm32.47-3.094c0 2.583-.78 4.767-2.34 6.552-1.542 1.785-3.44 2.678-5.694 2.678-2.391 0-4.402-.901-6.031-2.704-1.63-1.82-2.445-4.056-2.445-6.708 0-2.704.78-4.914 2.34-6.63C88.84 1.537 90.85.67 93.294.67c2.306 0 4.239.901 5.799 2.704 1.559 1.803 2.339 4.039 2.339 6.708zm-2.912.13c0-3.172-.65-5.642-1.95-7.41-.814-1.11-1.95-1.664-3.405-1.664-1.387 0-2.462.425-3.225 1.274-1.403 1.56-2.105 4.1-2.105 7.618 0 2.79.485 4.957 1.456 6.5.987 1.543 2.365 2.314 4.133 2.314 1.647 0 2.886-.728 3.718-2.184.92-1.612 1.379-3.761 1.379-6.448zm34.354-9.022c0 .173-.217.251-.65.234l-.572-.026h-.468c-.278 0-.442.052-.494.156-.052.087-.078.373-.078.858v14.976c0 .919-.009 1.456-.026 1.612-.018.156-.07.234-.156.234-.104 0-.226-.095-.364-.286l-3.328-4.862a642.82 642.82 0 01-7.02-10.582l.026 14.508c.017.225.147.373.39.442.242.052.823.087 1.742.104.225 0 .338.07.338.208 0 .173-.226.26-.676.26-.156 0-.65-.026-1.482-.078a12.971 12.971 0 00-.806-.026c.017 0-.139.017-.468.052-.312.035-.798.052-1.456.052h-.26c-.399 0-.598-.078-.598-.234 0-.156.173-.234.52-.234 1.022-.017 1.612-.078 1.768-.182.173-.121.26-.494.26-1.118V4.44c0-1.439-.295-2.34-.884-2.704-.278-.173-.772-.26-1.482-.26-.451 0-.676-.087-.676-.26 0-.156.13-.234.39-.234.346 0 .788.009 1.326.026.537.017.823.026.858.026.052 0 .294-.009.728-.026.572 0 1.126-.009 1.664-.026l8.97 13.338V2.75c0-.537-.009-.858-.026-.962a.322.322 0 00-.208-.26c-.122-.07-.538-.104-1.248-.104-.624 0-.936-.078-.936-.234 0-.173.208-.26.624-.26h1.638c.277.017.442.026.494.026l.468-.026h1.586c.381 0 .572.087.572.26zm31.558 8.814c0 3.05-1.066 5.425-3.198 7.124-1.56 1.248-3.648 1.872-6.266 1.872-.069 0-.381-.009-.936-.026a79.686 79.686 0 00-2.366-.026h-1.3l-2.054.026a2.76 2.76 0 01-.39.026c-.329 0-.494-.087-.494-.26 0-.156.278-.234.832-.234.711 0 1.153-.13 1.326-.39.07-.121.104-.45.104-.988V3.114c0-.85-.069-1.343-.208-1.482-.121-.139-.563-.208-1.326-.208-.398 0-.598-.095-.598-.286 0-.139.148-.208.442-.208a41.329 41.329 0 001.742.052h2.782c3.12 0 5.33.217 6.63.65 1.578.52 2.852 1.551 3.822 3.094.971 1.525 1.456 3.285 1.456 5.278zM161.52 9.9c0-2.877-.563-4.983-1.69-6.318-1.126-1.352-2.886-2.028-5.278-2.028-1.161 0-1.863.121-2.106.364-.104.121-.156.537-.156 1.248v13.832c0 .485.009.78.026.884.035.104.113.19.234.26.416.208 1.292.312 2.626.312 1.872 0 3.38-.659 4.524-1.976 1.214-1.387 1.82-3.58 1.82-6.578zm35.292.182c0 2.583-.78 4.767-2.34 6.552-1.543 1.785-3.441 2.678-5.694 2.678-2.392 0-4.403-.901-6.032-2.704-1.63-1.82-2.444-4.056-2.444-6.708 0-2.704.78-4.914 2.34-6.63 1.577-1.733 3.588-2.6 6.032-2.6 2.305 0 4.238.901 5.798 2.704 1.56 1.803 2.34 4.039 2.34 6.708zm-2.912.13c0-3.172-.65-5.642-1.95-7.41-.815-1.11-1.95-1.664-3.406-1.664-1.387 0-2.462.425-3.224 1.274-1.404 1.56-2.106 4.1-2.106 7.618 0 2.79.485 4.957 1.456 6.5.988 1.543 2.366 2.314 4.134 2.314 1.646 0 2.886-.728 3.718-2.184.918-1.612 1.378-3.761 1.378-6.448zm33.105 8.008c0 .728-.607 1.092-1.82 1.092-1.352 0-2.409-.563-3.172-1.69-.329-.485-.546-.953-.65-1.404-.087-.45-.225-1.595-.416-3.432-.104-1.11-.459-1.89-1.066-2.34-.607-.468-1.595-.72-2.964-.754v8.19c0 .347.277.563.832.65.156.017.555.035 1.196.052.225 0 .338.07.338.208 0 .156-.147.234-.442.234h-.312c-.156-.017-.91-.026-2.262-.026-.26 0-.702.009-1.326.026h-2.21c-.381 0-.572-.078-.572-.234 0-.121.251-.19.754-.208.815-.017 1.257-.121 1.326-.312.069-.087.104-.425.104-1.014V2.906c0-.693-.078-1.11-.234-1.248-.139-.139-.581-.217-1.326-.234-.433 0-.65-.078-.65-.234 0-.173.139-.26.416-.26.052 0 .13.009.234.026l3.458.078c.347 0 .832-.009 1.456-.026a34.097 34.097 0 011.456-.052c1.612 0 2.886.364 3.822 1.092.953.71 1.43 1.681 1.43 2.912 0 1.213-.485 2.219-1.456 3.016-.971.78-2.288 1.24-3.952 1.378-.156.017-.243.043-.26.078 0 .07.087.104.26.104 1.82.312 3.068.953 3.744 1.924.693.953 1.153 2.687 1.378 5.2.139 1.421.624 2.132 1.456 2.132.26 0 .39-.052.39-.156 0-.017-.009-.035-.026-.052-.087-.19-.13-.347-.13-.468 0-.364.191-.546.572-.546.416 0 .624.217.624.65zm-5.382-13.026c0-2.479-1.075-3.718-3.224-3.718-.572 0-.962.078-1.17.234-.208.156-.312.433-.312.832v6.604c1.664.017 2.86-.286 3.588-.91.745-.624 1.118-1.638 1.118-3.042z" fill="#EBE4D5"/></svg>