<svg width="183" height="8" fill="none" xmlns="http://www.w3.org/2000/svg"><g clip-path="url(#clip0_3084_31008)" fill="#EBE4D5"><path d="M37 5.41v.24c0 .5-.06.86-.06 1.06a5.828 5.828 0 000 .62v.1c0 .09 0 .14-.11.14s-.15-.08-.22-.24l-.13-.27v-.08a2.38 2.38 0 01-1.74.61 3.21 3.21 0 01-3.29-3.31 3.26 3.26 0 01.86-2.34A2.92 2.92 0 0134.52 1a2.87 2.87 0 011.77.54.14.14 0 00.11.06s.09-.06.12-.18.15-.31.24-.31.1 0 .1.11a1.41 1.41 0 010 .13c-.065.467-.098.938-.1 1.41 0 .39-.06.59-.15.59s-.13-.07-.15-.21a4.199 4.199 0 00-.34-1.11 1.55 1.55 0 00-1.5-.76 1.53 1.53 0 00-1.36.82 4.27 4.27 0 00-.5 2.22 3.86 3.86 0 00.56 2.23 1.76 1.76 0 001.51.82A1.66 1.66 0 0036 6.87a2.54 2.54 0 00.64-1.37c0-.24.11-.36.18-.36.07 0 .18.09.18.27zM49.05 6c.005.06.005.12 0 .18v1.1a1.44 1.44 0 000 .28h-2.33L44 7.55c-.19 0-.29 0-.29-.11s0-.13.17-.13a1.22 1.22 0 00.52-.06c.05 0 .08-.19.08-.45V2c0-.38 0-.59-.1-.61a2.34 2.34 0 00-.49 0c-.11 0-.17 0-.17-.1s.06-.11.18-.11h4.79v.25c0 .14 0 .55.11 1.24a.862.862 0 010 .17c0 .12 0 .18-.1.18s-.14-.1-.18-.28c-.06-.74-.3-1.13-.67-1.25a5.93 5.93 0 00-1.45-.1h-.71V4H46a2.3 2.3 0 001.09-.15c.14-.09.24-.36.28-.8 0-.26.09-.39.17-.39.08 0 .14.09.14.28v2.29c.004.06.004.12 0 .18 0 .15-.05.23-.14.23-.09 0-.14-.12-.16-.35-.06-.51-.15-.81-.28-.9a2.28 2.28 0 00-1.1-.14h-.35v3c.805.027 1.61-.01 2.41-.11.38-.1.59-.55.66-1.34 0-.14.05-.21.15-.21.13.02.18.14.18.41zm12.39 1.15c0 .3-.26.44-.78.44A1.5 1.5 0 0159.44 7a1.2 1.2 0 01-.28-.5A8.053 8.053 0 0159 5.34a1.189 1.189 0 00-.39-.84 1.91 1.91 0 00-1.08-.27v2.89c0 .13.21.19.71.19.1 0 .15 0 .15.1s-.07.1-.2.1h-2.26c-.26 0-.39-.03-.39-.09 0-.07 0-.11.14-.11h.19c.32 0 .48-.06.48-.19V1.59a.22.22 0 00-.08-.2.85.85 0 00-.4 0c-.22 0-.33-.04-.33-.12 0-.06.06-.09.19-.09h2.65a2.61 2.61 0 011.5.38 1.16 1.16 0 01.57 1 1.309 1.309 0 01-.6 1.11 3.27 3.27 0 01-1.7.49 2.5 2.5 0 011.62.62 3.19 3.19 0 01.57 1.75c0 .58.23.87.52.87h.07v-.09a.35.35 0 010-.12c0-.17.09-.26.28-.26a.27.27 0 01.23.22zm-2.21-4.53A1.1 1.1 0 0058 1.36a.74.74 0 00-.4.07c-.05 0-.08.14-.08.3V4c1.14 0 1.71-.45 1.71-1.38zm13.9.2c0 .13 0 .2-.17.2s-.18-.09-.19-.26a2.28 2.28 0 00-.24-.91c-.18-.32-.53-.49-1.22-.49h-.43V7c0 .17.13.27.41.28.28.01.4 0 .4.11s-.08.1-.24.1h-2.28c-.19 0-.28 0-.28-.1s.15-.11.46-.11a.6.6 0 00.23 0 .16.16 0 00.12-.15V1.42a2.65 2.65 0 00-1.4.17 1.56 1.56 0 00-.44 1.11c0 .21-.09.32-.19.32s-.12-.11-.12-.32c0-.21 0-.79.12-1.57h3.27l1.76-.03c.096.012.194.012.29 0v1.6c.05.037.096.077.14.12zm9.2 4.59c0 .06-.04.09-.12.09h-2.36c-.15 0-.23 0-.23-.08s.1-.1.3-.11c.2-.01.43 0 .45-.1.012-.2.012-.4 0-.6V2.07a3.42 3.42 0 000-.64c0-.06-.09-.1-.21-.11h-.42c-.09 0-.13 0-.13-.1s.06-.09.18-.09h2.31c.15 0 .23 0 .23.11s-.16.09-.48.1c-.134 0-.214.02-.24.06a1.16 1.16 0 000 .38v5.28c0 .1 0 .16.11.18.16.043.324.067.49.07.07.01.12.05.12.1zm11.76-4.59c0 .12 0 .18-.1.18s-.15-.09-.18-.27a1.87 1.87 0 00-.4-1.07 2.43 2.43 0 00-1.55-.31h-1V4h.32a2.31 2.31 0 001.13-.16 1.68 1.68 0 00.28-1c0-.12 0-.18.14-.18s.14.07.14.22V5.4c0 .18-.06.26-.16.26s-.12-.07-.14-.22a2 2 0 00-.26-1 1.91 1.91 0 00-1-.15h-.45V7a.272.272 0 00.104.286.27.27 0 00.097.044c.14.011.28.011.42 0 .13 0 .2 0 .2.1s-.06.1-.19.1h-2.28c-.16 0-.24 0-.24-.1s.06-.11.19-.11a1.16 1.16 0 00.51-.06.8.8 0 00.07-.43V1.87a.83.83 0 00-.07-.44 1.11 1.11 0 00-.49-.08c-.13 0-.2 0-.2-.13s.1-.11.3-.11H92c.666.037 1.334.037 2 0v.77l.07.73c.01.14.02.23.02.21zm9.201 4.59c0 .06 0 .09-.13.09h-2.35c-.16 0-.24 0-.24-.08s.11-.1.31-.11c.2-.01.43 0 .44-.1.018-.2.018-.4 0-.6V2.07a6.21 6.21 0 000-.64c0-.06-.09-.1-.22-.11h-.42c-.08 0-.12 0-.12-.1s.06-.09.18-.09h2.31c.15 0 .23 0 .23.11s-.16.09-.48.1c-.127 0-.207.02-.24.06a.901.901 0 000 .38v5.28c0 .1 0 .16.1.18.163.043.331.066.5.07.07.01.13.05.13.1zm12.289-2v.24c0 .5-.06.86-.06 1.06v.72c0 .09 0 .14-.11.14s-.15-.08-.22-.24l-.13-.27v-.08a2.377 2.377 0 01-1.74.61 3.18 3.18 0 01-2.32-.94 3.252 3.252 0 01-1-2.37 3.262 3.262 0 01.87-2.34A2.927 2.927 0 01113.1 1c.634-.02 1.256.17 1.77.54a.142.142 0 00.11.06s.09-.06.13-.18c.04-.12.14-.31.23-.31s.1 0 .1.11a1.41 1.41 0 010 .13 9.5 9.5 0 00-.09 1.41c0 .39-.07.59-.16.59s-.12-.07-.15-.21a4.191 4.191 0 00-.34-1.11 1.548 1.548 0 00-1.5-.76 1.525 1.525 0 00-1.36.82 4.276 4.276 0 00-.5 2.22 3.943 3.943 0 00.56 2.23 1.765 1.765 0 001.51.82 1.639 1.639 0 001.21-.49c.348-.381.571-.859.64-1.37.054-.24.114-.36.18-.36.1 0 .14.09.14.27zm12.979 2.02c0 .05-.09.08-.28.08h-2.76c-.17 0-.25 0-.25-.11s.17-.12.5-.13c.33-.01.61 0 .61-.14a2.413 2.413 0 00-.09-.26c0-.07-.12-.38-.32-.93l-.17-.47h-2a9.74 9.74 0 00-.58 1.66c0 .09.06.13.17.14h.52c.11 0 .17 0 .17.08s-.1.1-.29.1h-1.71c-.15 0-.22 0-.22-.08s.06-.11.18-.12h.33a.596.596 0 00.31-.13 9.06 9.06 0 00.69-1.6c.16-.42.31-.81.46-1.18.043-.094.08-.191.11-.29 0-.07.06-.17.11-.3.16-.38.39-1 .68-1.74l.21-.59.06-.21c.06-.14.12-.21.17-.21.05 0 .09.13.18.39.28.68 1 2.49 2.17 5.41.11.29.22.44.32.46h.45c.18.05.27.09.27.17zm-2.84-2.2l-.9-2.39c-.23.56-.54 1.35-.94 2.39h1.84zM139.9 2.82c0 .13-.06.2-.17.2-.11 0-.19-.09-.19-.26a2.29 2.29 0 00-.24-.91c-.18-.32-.59-.49-1.22-.49h-.44V7c0 .17.14.27.41.28.27.01.41 0 .41.11s-.08.1-.24.1h-2.28c-.19 0-.28 0-.28-.1s.15-.11.46-.11a.51.51 0 00.22 0 .162.162 0 00.091-.052.166.166 0 00.039-.098V1.42a2.65 2.65 0 00-1.42.23c-.22.15-.36.52-.44 1.11 0 .21-.09.32-.18.32s-.13-.11-.13-.32c0-.21 0-.79.13-1.57h5.02c.099.012.2.012.3 0v.65l.05.57v.25c.09.08.1.14.1.16zM151.69 6v.18a1.56 1.56 0 000 .29v.81c.003.095.02.19.05.28h-5.01c-.2 0-.3 0-.3-.11s.06-.13.17-.13a1.18 1.18 0 00.52-.06c.06 0 .08-.19.08-.45V2c0-.38 0-.59-.1-.61a2.27 2.27 0 00-.49 0c-.11 0-.17 0-.17-.1s.07-.11.19-.11h4.78v.25c0 .14.05.55.11 1.24a.965.965 0 010 .17c0 .12-.03.18-.09.18-.09 0-.15-.1-.18-.28-.13-.71-.38-1.13-.74-1.25a6.001 6.001 0 00-1.51-.1h-.71V4h.33c.373.037.75-.014 1.1-.15.14-.09.23-.36.27-.8 0-.26.09-.39.17-.39.08 0 .14.09.14.28v2.29c.004.06.004.12 0 .18 0 .15 0 .23-.14.23s-.13-.12-.16-.35c-.06-.51-.15-.81-.28-.9a2.28 2.28 0 00-1.09-.15h-.34v3c.805.027 1.61-.01 2.41-.11.37-.1.59-.55.65-1.34 0-.14.06-.21.16-.21s.18.15.18.42z"/><path fill-rule="evenodd" clip-rule="evenodd" d="M3.48 4.42a1.83 1.83 0 00-1.58-.59 1.52 1.52 0 00-1.23.88A1.19 1.19 0 00.92 6c.37.372.85.614 1.37.69a3.57 3.57 0 001.6-.18 7.53 7.53 0 001.55-.71c1-.58 2.05-1.23 3.13-1.82a12.83 12.83 0 013.57-1.33 7.14 7.14 0 013.91.26 3.28 3.28 0 011.59 1.17 1.79 1.79 0 01.18 1.85 1.66 1.66 0 01-1.77.79 1 1 0 01-.75-1.42.941.941 0 00.81 1.17 1.22 1.22 0 001.24-.72 1.36 1.36 0 00-.27-1.34 2.83 2.83 0 00-1.33-.83 6.53 6.53 0 00-3.4-.07A12.2 12.2 0 009.1 4.78C8.05 5.33 7 6 6 6.55a9.05 9.05 0 01-1.77.75 4.32 4.32 0 01-2.06.12 3.09 3.09 0 01-1.74-1A1.82 1.82 0 010 5.47a1.52 1.52 0 01.21-.95 1.94 1.94 0 011.66-1 1.87 1.87 0 011.6.85m176.049.05a1.832 1.832 0 011.58-.59 1.524 1.524 0 011.23.88 1.19 1.19 0 01-.25 1.29c-.37.372-.85.614-1.37.69a3.57 3.57 0 01-1.6-.18 7.568 7.568 0 01-1.55-.73c-1-.58-2.05-1.23-3.13-1.82a12.823 12.823 0 00-3.57-1.33 7.14 7.14 0 00-3.91.26 3.286 3.286 0 00-1.59 1.17 1.797 1.797 0 00-.18 1.85 1.658 1.658 0 001.77.79.996.996 0 00.733-.521 1.01 1.01 0 00.017-.9.948.948 0 01-.137.771.943.943 0 01-.673.4 1.22 1.22 0 01-1.24-.72 1.357 1.357 0 01.27-1.34 2.836 2.836 0 011.33-.83 6.53 6.53 0 013.4-.07c1.139.265 2.233.693 3.25 1.27 1 .55 2.06 1.19 3.15 1.77a9.057 9.057 0 001.77.75 4.32 4.32 0 002.06.12 3.088 3.088 0 001.74-1 1.81 1.81 0 00.37-.91 1.515 1.515 0 00-.21-.95 1.937 1.937 0 00-1.66-1 1.864 1.864 0 00-1.6.85"/></g><defs><clipPath id="clip0_3084_31008"><path fill="#fff" d="M0 0h183v8H0z"/></clipPath></defs></svg>