<svg width="264" height="24" fill="none" xmlns="http://www.w3.org/2000/svg"><path d="M61.323 21.37c3.952 0 6.136-2.107 7.384-4.265l-3.172-1.534c-.728 1.43-2.288 2.522-4.212 2.522-3.016 0-5.304-2.418-5.304-5.694s2.288-5.694 5.304-5.694a4.75 4.75 0 014.212 2.522l3.172-1.56C67.485 5.51 65.275 3.43 61.323 3.43c-5.07 0-9.1 3.64-9.1 8.97s4.03 8.97 9.1 8.97zm18.63-8.97c0 5.225 3.822 8.97 9.048 8.97 5.252 0 9.074-3.745 9.074-8.97 0-5.227-3.822-8.97-9.074-8.97-5.226 0-9.048 3.743-9.048 8.97zm14.326 0c0 3.223-2.08 5.693-5.278 5.693-3.198 0-5.252-2.47-5.252-5.694 0-3.25 2.054-5.694 5.252-5.694s5.278 2.444 5.278 5.694zm31.789 8.657V3.715h-3.692v11.232l-8.034-11.232h-3.796v17.342h3.692V9.41l8.268 11.648h3.562zm20.137 0c5.434 0 9.204-3.432 9.204-8.658 0-5.226-3.77-8.684-9.204-8.684h-6.838v17.342h6.838zm-3.146-14.092h3.146c3.562 0 5.434 2.366 5.434 5.434 0 2.938-2.002 5.408-5.434 5.408h-3.146V6.965zm24.018 5.435c0 5.225 3.822 8.97 9.048 8.97 5.252 0 9.074-3.745 9.074-8.97 0-5.227-3.822-8.97-9.074-8.97-5.226 0-9.048 3.743-9.048 8.97zm14.326 0c0 3.223-2.08 5.693-5.278 5.693-3.198 0-5.252-2.47-5.252-5.694 0-3.25 2.054-5.694 5.252-5.694s5.278 2.444 5.278 5.694zm30.307 8.657l-3.9-6.604c1.872-.442 3.796-2.08 3.796-5.148 0-3.224-2.21-5.59-5.824-5.59h-8.112v17.342h3.692v-6.214h2.704l3.406 6.214h4.238zM207.836 9.28c0 1.456-1.118 2.392-2.6 2.392h-3.874V6.887h3.874c1.482 0 2.6.936 2.6 2.392z" fill="#fff"/></svg>