<svg width="290" height="116" fill="none" xmlns="http://www.w3.org/2000/svg"><path d="M.884 64.81c.36-.54.81-1.23 1.35-2.07.6-.84 1.38-1.98 2.34-3.42s2.16-3.27 3.6-5.49c1.5-2.22 3.3-4.98 5.4-8.28-.72-1.08-1.17-1.89-1.35-2.43.06-.3.36-.45.9-.45h1.53c.42 0 .72-.24.9-.72.3-.54.81-1.5 1.53-2.88a98.43 98.43 0 002.34-4.41c.84-1.56 1.56-3.03 2.16-4.41.6-1.38.9-2.31.9-2.79 0-.72-.18-1.17-.54-1.35-.36-.18-.93-.27-1.71-.27-.66 0-1.44.03-2.34.09-.84 0-1.59.06-2.25.18-.36 0-.54-.18-.54-.54 0-.36.24-.54.72-.54h2.61c1.08-.06 2.19-.12 3.33-.18 1.2-.12 2.37-.21 3.51-.27 1.2-.12 2.28-.21 3.24-.27.6 0 .69.39.27 1.17-.6.84-1.26 1.8-1.98 2.88-.66 1.08-1.29 2.13-1.89 3.15-.9 1.56-1.89 3.33-2.97 5.31-1.08 1.98-2.04 3.78-2.88 5.4-.18.3-.3.54-.36.72 0 .18.18.27.54.27 1.38.06 2.64.12 3.78.18h3.24c.54 0 1.44-.03 2.7-.09 1.32-.06 2.7-.12 4.14-.18 1.5-.06 2.94-.15 4.32-.27 1.38-.12 2.46-.21 3.24-.27.3-.06.57-.18.81-.36.24-.18.42-.39.54-.63 1.8-3.48 3.48-6.66 5.04-9.54 1.56-2.88 3.15-5.64 4.77-8.28.3-.42.69-.75 1.17-.99.6-.36 1.5-.81 2.7-1.35 1.2-.54 2.46-1.05 3.78-1.53 1.32-.54 2.55-.99 3.69-1.35 1.14-.36 1.98-.54 2.52-.54.12 0 .33.03.63.09s.45.18.45.36c0 .12-.12.21-.36.27-.24.06-.42.09-.54.09-.18 0-.54.06-1.08.18-.54.06-1.14.21-1.8.45-.66.18-1.35.45-2.07.81-.66.3-1.26.69-1.8 1.17-1.44 1.2-2.79 2.64-4.05 4.32-.84 1.2-1.71 2.49-2.61 3.87a99.75 99.75 0 00-2.61 4.23c-.84 1.44-1.65 2.88-2.43 4.32-.78 1.44-1.47 2.79-2.07 4.05-2.16 4.5-3.72 8.13-4.68 10.89-.96 2.76-1.44 4.77-1.44 6.03 0 2.34 1.2 3.51 3.6 3.51.84 0 1.86-.21 3.06-.63 1.26-.42 2.25-.87 2.97-1.35.18 0 .3.09.36.27.06.12-.03.3-.27.54-1.2.54-2.73 1.14-4.59 1.8-1.86.6-4.14.96-6.84 1.08-1.02-.06-1.77-.39-2.25-.99s-.72-1.38-.72-2.34c0-1.02.18-2.1.54-3.24.6-1.74 1.26-3.48 1.98-5.22.78-1.8 1.5-3.39 2.16-4.77.24-.48.36-.99.36-1.53 0-.84-.45-1.41-1.35-1.71-.9-.3-1.77-.45-2.61-.45a131.84 131.84 0 00-9.45.36c-1.56.12-3.06.27-4.5.45-1.44.12-2.67.27-3.69.45-.36.06-.66.21-.9.45a5.9 5.9 0 00-.72.9c-1.38 2.4-2.91 4.98-4.59 7.74-1.62 2.7-2.97 5.4-4.05 8.1-.12.36-.24.6-.36.72s-.42.18-.9.18c-.54 0-1.02.03-1.44.09-.42 0-.81.06-1.17.18-.36.12-.75.27-1.17.45-.42.18-.93.45-1.53.81l-.27-.18zM81.333 48.7c-1.02 1.38-2.28 2.64-3.78 3.78-1.44 1.08-3.09 1.62-4.95 1.62-1.02 0-2.04-.24-3.06-.72-.96-.54-1.74-1.32-2.34-2.34-.42.96-.96 2.07-1.62 3.33a37.31 37.31 0 01-2.34 3.69c-.9 1.2-1.92 2.31-3.06 3.33a15.733 15.733 0 01-3.51 2.52c-1.08.48-1.98.72-2.7.72-2.16 0-3.24-.96-3.24-2.88 0-1.08.18-2.19.54-3.33.42-1.14.93-2.25 1.53-3.33s1.23-2.1 1.89-3.06c.72-.96 1.38-1.74 1.98-2.34a18.78 18.78 0 014.32-3.51c1.62-.96 3.36-1.53 5.22-1.71.12-.48.3-1.02.54-1.62.24-.66.66-1.05 1.26-1.17l.9-.18c.3-.06.57-.15.81-.27a.45.45 0 01.54 0c.18.06.21.21.09.45-.42.66-.75 1.5-.99 2.52-.18 1.02-.27 2.13-.27 3.33 0 1.68.3 3.06.9 4.14.66 1.08 1.77 1.62 3.33 1.62s2.97-.51 4.23-1.53c1.26-1.02 2.31-2.13 3.15-3.33.12-.3.3-.39.54-.27.3.12.33.3.09.54zm-14.85.63c-.12-.54-.21-1.17-.27-1.89-.06-.72-.09-1.41-.09-2.07 0-.3-.12-.45-.36-.45-.66 0-1.35.24-2.07.72-.72.42-1.44 1.02-2.16 1.8a23.5 23.5 0 00-2.16 2.52c-.72.96-1.38 1.95-1.98 2.97-.78 1.32-1.5 2.76-2.16 4.32-.6 1.5-.87 2.94-.81 4.32 0 .42.06.81.18 1.17.18.36.54.54 1.08.54 1.02 0 2.13-.57 3.33-1.71 1.2-1.14 2.34-2.46 3.42-3.96 1.08-1.56 1.98-3.12 2.7-4.68.78-1.56 1.23-2.76 1.35-3.6z" fill="#fff"/><path d="M116.613 5.32c0 .84-.33 2.07-.99 3.69-.66 1.62-1.62 3.51-2.88 5.67-1.2 2.1-2.7 4.38-4.5 6.84-1.74 2.4-3.75 4.8-6.03 7.2-2.22 2.4-4.68 4.71-7.38 6.93-2.7 2.16-5.58 4.08-8.64 5.76-.54.96-1.29 2.25-2.25 3.87s-1.92 3.33-2.88 5.13c-.9 1.8-1.71 3.57-2.43 5.31-.66 1.74-.99 3.21-.99 4.41 0 1.92.87 2.88 2.61 2.88 1.5 0 3.06-.42 4.68-1.26 1.62-.84 3.15-1.86 4.59-3.06 1.5-1.2 2.88-2.46 4.14-3.78 1.32-1.38 2.43-2.61 3.33-3.69.42-.42.66-.51.72-.27.06.18-.03.39-.27.63-1.08 1.32-2.37 2.73-3.87 4.23-1.44 1.5-3 2.88-4.68 4.14a26.802 26.802 0 01-5.13 3.15c-1.8.84-3.6 1.26-5.4 1.26-1.56 0-2.7-.36-3.42-1.08-.66-.78-.99-1.71-.99-2.79s.45-2.61 1.35-4.59a94.59 94.59 0 013.33-6.39c1.26-2.22 2.52-4.32 3.78-6.3 1.26-1.98 2.19-3.48 2.79-4.5 1.02-1.74 2.07-3.54 3.15-5.4 1.14-1.92 2.25-3.78 3.33-5.58 1.08-1.8 2.1-3.51 3.06-5.13 1.02-1.68 1.95-3.15 2.79-4.41 1.02-1.56 2.07-3.03 3.15-4.41 1.08-1.38 2.46-2.76 4.14-4.14 2.28-1.92 4.38-3.39 6.3-4.41s3.21-1.53 3.87-1.53c.48 0 .87.15 1.17.45.3.24.45.63.45 1.17zm-4.05 2.34c0-.96-.39-1.44-1.17-1.44-.3 0-.63.09-.99.27-.36.18-.84.57-1.44 1.17-.54.54-1.23 1.32-2.07 2.34-.78 1.02-1.8 2.34-3.06 3.96a448 448 0 00-2.07 2.88c-.84 1.26-1.95 2.94-3.33 5.04-1.32 2.04-2.94 4.59-4.86 7.65-1.86 3-4.08 6.57-6.66 10.71 3.6-2.04 6.96-4.5 10.08-7.38 3.18-2.94 5.91-5.94 8.19-9 2.28-3.06 4.08-6.03 5.4-8.91 1.32-2.88 1.98-5.31 1.98-7.29z" fill="#fff"/><path d="M114.914 53.29c-1.02 1.26-2.25 2.58-3.69 3.96a35.274 35.274 0 01-4.59 3.69 27.914 27.914 0 01-5.13 2.7c-1.74.66-3.48.99-5.22.99-2.82 0-4.23-1.26-4.23-3.78 0-1.68.42-3.48 1.26-5.4.9-1.98 2.04-3.78 3.42-5.4 1.38-1.68 2.88-3.06 4.5-4.14 1.68-1.14 3.27-1.71 4.77-1.71.84 0 1.41.15 1.71.45.36.3.54.69.54 1.17 0 .72-.24 1.5-.72 2.34-.42.84-1.08 1.65-1.98 2.43-.9.72-2.04 1.35-3.42 1.89-1.38.48-3.03.72-4.95.72-.3.54-.63 1.41-.99 2.61-.36 1.14-.54 2.31-.54 3.51 0 2.46 1.11 3.69 3.33 3.69 1.38 0 2.79-.33 4.23-.99 1.5-.66 2.94-1.47 4.32-2.43 1.38-1.02 2.64-2.1 3.78-3.24 1.2-1.2 2.19-2.31 2.97-3.33.12-.12.24-.15.36-.09.18.06.27.18.27.36zm-9.45-7.02c0-.78-.39-1.17-1.17-1.17-.6 0-1.23.24-1.89.72-.6.42-1.2.99-1.8 1.71-.6.72-1.17 1.5-1.71 2.34-.54.84-.99 1.65-1.35 2.43.12.06.33.12.63.18h.72c1.74 0 3.27-.6 4.59-1.8 1.32-1.26 1.98-2.73 1.98-4.41zm40.057-14.13c0 .72-.33 1.44-.99 2.16-.6.72-1.29 1.08-2.07 1.08-.72 0-1.08-.36-1.08-1.08 0-.78.27-1.53.81-2.25.6-.72 1.32-1.08 2.16-1.08.78 0 1.17.39 1.17 1.17zm4.05 20.07a40.926 40.926 0 01-4.95 5.31c-1.86 1.68-3.57 3.03-5.13 4.05-1.2.78-2.43 1.38-3.69 1.8-1.26.42-2.4.63-3.42.63-.36 0-.78-.03-1.26-.09s-.93-.21-1.35-.45c-.36-.24-.69-.54-.99-.9-.24-.42-.36-.96-.36-1.62 0-.78.3-1.83.9-3.15.6-1.38 1.29-2.79 2.07-4.23.84-1.44 1.65-2.82 2.43-4.14.84-1.32 1.5-2.31 1.98-2.97.3-.48.81-.87 1.53-1.17.78-.36 1.29-.54 1.53-.54.3 0 .45.09.45.27 0 .12-.06.3-.18.54-.06.24-.15.42-.27.54-.78 1.2-1.59 2.52-2.43 3.96a94.47 94.47 0 00-2.16 4.23c-.66 1.32-1.2 2.55-1.62 3.69-.36 1.14-.54 2.04-.54 2.7 0 .72.18 1.26.54 1.62.42.3.96.45 1.62.45 1.2 0 2.52-.39 3.96-1.17 1.44-.84 2.85-1.83 4.23-2.97 1.44-1.14 2.76-2.34 3.96-3.6 1.2-1.26 2.13-2.34 2.79-3.24.3-.3.45-.36.45-.18.06.12.03.33-.09.63z" fill="#fff"/><path d="M173.229 52.39c-1.08 1.5-2.34 3.03-3.78 4.59-1.38 1.5-2.88 2.85-4.5 4.05-1.56 1.2-3.18 2.19-4.86 2.97-1.62.78-3.21 1.17-4.77 1.17-.72 0-1.38-.12-1.98-.36-.6-.18-.9-.69-.9-1.53 0-.84.3-1.89.9-3.15.6-1.32 1.29-2.7 2.07-4.14.84-1.44 1.68-2.91 2.52-4.41.9-1.5 1.62-2.88 2.16-4.14.12-.3.12-.54 0-.72-.06-.24-.24-.27-.54-.09-.66.42-1.44.99-2.34 1.71-.9.72-1.83 1.5-2.79 2.34-.9.78-1.8 1.59-2.7 2.43-.84.84-1.53 1.59-2.07 2.25-.96 1.5-1.8 2.88-2.52 4.14-.66 1.26-1.5 2.67-2.52 4.23-.24.36-.42.54-.54.54-.3 0-.57-.33-.81-.99-.18-.66-.27-1.08-.27-1.26 0-.54.36-1.26 1.08-2.16.78-.96 1.62-2.01 2.52-3.15.96-1.92 1.95-3.93 2.97-6.03 1.02-2.16 1.89-4.08 2.61-5.76.18-.3.45-.45.81-.45.36 0 .69.15.99.45.3.3.45.63.45.99 0 .24-.45 1.08-1.35 2.52-.84 1.38-1.68 3-2.52 4.86 1.14-1.02 2.37-2.1 3.69-3.24 1.38-1.14 2.67-2.19 3.87-3.15a65.11 65.11 0 013.24-2.34c.96-.66 1.62-.99 1.98-.99.24 0 .45.15.63.45.24.24.36.48.36.72s-.15.6-.45 1.08c-.66.96-1.47 2.19-2.43 3.69-.96 1.5-1.89 3.06-2.79 4.68-.84 1.56-1.56 3.06-2.16 4.5-.6 1.44-.9 2.58-.9 3.42 0 .72.15 1.23.45 1.53.3.24.78.36 1.44.36 1.02 0 2.22-.39 3.6-1.17 1.38-.78 2.79-1.74 4.23-2.88 1.5-1.2 2.91-2.52 4.23-3.96 1.32-1.44 2.4-2.82 3.24-4.14.12-.18.3-.21.54-.09.24.06.21.27-.09.63zm66.144-17.1c-.06 3.72-.93 7.35-2.61 10.89-1.68 3.54-3.9 6.69-6.66 9.45-2.7 2.76-5.85 4.98-9.45 6.66-3.6 1.68-7.35 2.52-11.25 2.52-2.34 0-4.53-.18-6.57-.54-1.98-.36-3.72-.99-5.22-1.89-1.44-.9-2.61-2.1-3.51-3.6-.84-1.5-1.26-3.39-1.26-5.67 0-1.92.33-3.93.99-6.03.72-2.16 1.62-4.26 2.7-6.3s2.31-3.96 3.69-5.76c1.38-1.8 2.73-3.3 4.05-4.5 2.58-2.34 5.49-4.05 8.73-5.13s6.57-1.62 9.99-1.62c1.86 0 3.75.18 5.67.54 1.98.36 3.75.99 5.31 1.89 1.62.84 2.94 2.01 3.96 3.51 1.02 1.44 1.5 3.3 1.44 5.58zm-4.5-.63c0-1.86-.3-3.42-.9-4.68-.6-1.32-1.41-2.37-2.43-3.15-1.02-.84-2.25-1.44-3.69-1.8-1.44-.42-3.03-.63-4.77-.63-3.18 0-6.03.63-8.55 1.89-2.52 1.2-4.83 3-6.93 5.4-1.14 1.26-2.34 2.79-3.6 4.59-1.2 1.8-2.31 3.72-3.33 5.76a42.101 42.101 0 00-2.52 6.21c-.66 2.04-.99 3.96-.99 5.76 0 1.92.27 3.54.81 4.86.6 1.26 1.41 2.28 2.43 3.06 1.02.72 2.22 1.26 3.6 1.62 1.44.3 3 .45 4.68.45 3.54 0 6.87-.93 9.99-2.79 3.18-1.86 5.97-4.2 8.37-7.02 2.4-2.88 4.29-6.03 5.67-9.45 1.44-3.48 2.16-6.84 2.16-10.08zm32.856 17.73c-1.08 1.5-2.34 3.03-3.78 4.59-1.38 1.5-2.88 2.85-4.5 4.05-1.56 1.2-3.18 2.19-4.86 2.97-1.62.78-3.21 1.17-4.77 1.17-.72 0-1.38-.12-1.98-.36-.6-.18-.9-.69-.9-1.53 0-.84.3-1.89.9-3.15.6-1.32 1.29-2.7 2.07-4.14.84-1.44 1.68-2.91 2.52-4.41.9-1.5 1.62-2.88 2.16-4.14.12-.3.12-.54 0-.72-.06-.24-.24-.27-.54-.09-.66.42-1.44.99-2.34 1.71-.9.72-1.83 1.5-2.79 2.34-.9.78-1.8 1.59-2.7 2.43-.84.84-1.53 1.59-2.07 2.25-.96 1.5-1.8 2.88-2.52 4.14-.66 1.26-1.5 2.67-2.52 4.23-.24.36-.42.54-.54.54-.3 0-.57-.33-.81-.99-.18-.66-.27-1.08-.27-1.26 0-.54.36-1.26 1.08-2.16.78-.96 1.62-2.01 2.52-3.15.96-1.92 1.95-3.93 2.97-6.03 1.02-2.16 1.89-4.08 2.61-5.76.18-.3.45-.45.81-.45.36 0 .69.15.99.45.3.3.45.63.45.99 0 .24-.45 1.08-1.35 2.52-.84 1.38-1.68 3-2.52 4.86 1.14-1.02 2.37-2.1 3.69-3.24 1.38-1.14 2.67-2.19 3.87-3.15a65.11 65.11 0 013.24-2.34c.96-.66 1.62-.99 1.98-.99.24 0 .45.15.63.45.24.24.36.48.36.72s-.15.6-.45 1.08c-.66.96-1.47 2.19-2.43 3.69-.96 1.5-1.89 3.06-2.79 4.68-.84 1.56-1.56 3.06-2.16 4.5-.6 1.44-.9 2.58-.9 3.42 0 .72.15 1.23.45 1.53.3.24.78.36 1.44.36 1.02 0 2.22-.39 3.6-1.17 1.38-.78 2.79-1.74 4.23-2.88 1.5-1.2 2.91-2.52 4.23-3.96 1.32-1.44 2.4-2.82 3.24-4.14.12-.18.3-.21.54-.09.24.06.21.27-.09.63z" fill="#fff"/><path d="M285.633 53.29c-1.02 1.26-2.25 2.58-3.69 3.96a35.274 35.274 0 01-4.59 3.69 27.914 27.914 0 01-5.13 2.7c-1.74.66-3.48.99-5.22.99-2.82 0-4.23-1.26-4.23-3.78 0-1.68.42-3.48 1.26-5.4.9-1.98 2.04-3.78 3.42-5.4 1.38-1.68 2.88-3.06 4.5-4.14 1.68-1.14 3.27-1.71 4.77-1.71.84 0 1.41.15 1.71.45.36.3.54.69.54 1.17 0 .72-.24 1.5-.72 2.34-.42.84-1.08 1.65-1.98 2.43-.9.72-2.04 1.35-3.42 1.89-1.38.48-3.03.72-4.95.72-.3.54-.63 1.41-.99 2.61-.36 1.14-.54 2.31-.54 3.51 0 2.46 1.11 3.69 3.33 3.69 1.38 0 2.79-.33 4.23-.99 1.5-.66 2.94-1.47 4.32-2.43 1.38-1.02 2.64-2.1 3.78-3.24 1.2-1.2 2.19-2.31 2.97-3.33.12-.12.24-.15.36-.09.18.06.27.18.27.36zm-9.45-7.02c0-.78-.39-1.17-1.17-1.17-.6 0-1.23.24-1.89.72-.6.42-1.2.99-1.8 1.71-.6.72-1.17 1.5-1.71 2.34-.54.84-.99 1.65-1.35 2.43.12.06.33.12.63.18h.72c1.74 0 3.27-.6 4.59-1.8 1.32-1.26 1.98-2.73 1.98-4.41z" fill="#fff"/></svg>