<svg width="30" height="30" fill="none" xmlns="http://www.w3.org/2000/svg"><circle cx="15" cy="15" r="14.5" stroke="#363636"/><path fill-rule="evenodd" clip-rule="evenodd" d="M12.99 13.97a.928.928 0 01.173-1.22l.761-.62a.928.928 0 00.172-1.22l-1.463-2.126c-.262-.381-.828-.552-1.256-.38 0 0-.052.02-.656.424-1.84 1.233-.768 5.069 1.377 8.186 2.145 3.116 5.364 5.514 7.205 4.282.603-.405.642-.445.642-.445.32-.33.369-.91.106-1.291l-1.463-2.126a.957.957 0 00-1.214-.292l-.864.47a.959.959 0 01-1.215-.293L12.99 13.97z" fill="#363636"/></svg>