<svg width="28" height="28" fill="none" xmlns="http://www.w3.org/2000/svg"><path fill-rule="evenodd" clip-rule="evenodd" d="M2.267 7.7a2.5 2.5 0 012.5-2.5h14.564a2 2 0 012 2v9.198a2 2 0 01-2 2H4.267a2 2 0 01-2-2V7.7z" fill="#222"/><path fill-rule="evenodd" clip-rule="evenodd" d="M4.954 10.366a2.5 2.5 0 012.5-2.5h17.49a2.5 2.5 0 012.5 2.5v11.64a2.5 2.5 0 01-2.5 2.5H7.454a2.5 2.5 0 01-2.5-2.5v-11.64z" fill="#fff"/><path fill-rule="evenodd" clip-rule="evenodd" d="M6.667 11.6a2 2 0 012-2h15.064a2 2 0 012 2v9.197a2 2 0 01-2 2H8.667a2 2 0 01-2-2V11.6z" fill="#222"/><path d="M16.933 14.731h4.399m-4.399 2.933h4.399" stroke="#fff" stroke-linecap="round" stroke-linejoin="round"/></svg>