<svg width="28" height="28" fill="none" xmlns="http://www.w3.org/2000/svg"><path d="M2.404 6.74c0-.69.56-1.25 1.25-1.25h16.06c.69 0 1.25.56 1.25 1.25v9.887c0 .69-.56 1.25-1.25 1.25H3.654c-.69 0-1.25-.56-1.25-1.25V6.74z" fill="#fff" stroke="#222" stroke-width="1.5" stroke-linejoin="round"/><path d="M7.035 11.37c0-.69.56-1.25 1.25-1.25h16.06c.69 0 1.25.56 1.25 1.25v9.887c0 .69-.56 1.25-1.25 1.25H8.284c-.69 0-1.25-.56-1.25-1.25V11.37z" fill="#fff" stroke="#222" stroke-width="1.5" stroke-linejoin="round"/><path d="M17.085 14.77h4.63m-4.63 3.086h4.63" stroke="#222" stroke-width="1.5" stroke-linecap="round" stroke-linejoin="round"/></svg>