<svg width="28" height="28" fill="none" xmlns="http://www.w3.org/2000/svg"><path d="M14 24.358c-2.919-2.365-5.099-4.562-6.54-6.59-1.442-2.029-2.162-3.907-2.162-5.633 0-2.59.875-4.653 2.624-6.19C9.672 4.41 11.697 3.641 14 3.641c2.302 0 4.328.768 6.078 2.304 1.749 1.537 2.624 3.6 2.624 6.19 0 1.726-.72 3.604-2.162 5.633-1.441 2.028-3.621 4.225-6.54 6.59z" stroke="#222" stroke-width="1.5" stroke-linecap="round" stroke-linejoin="round"/><path d="M16.916 11.612a2.915 2.915 0 11-5.83 0 2.915 2.915 0 015.83 0z" stroke="#222" stroke-width="1.5" stroke-linecap="round" stroke-linejoin="round"/></svg>