<svg width="14" height="12" fill="none" xmlns="http://www.w3.org/2000/svg"><mask id="a" fill="#fff"><path fill-rule="evenodd" clip-rule="evenodd" d="M13.354 2.633a3.96 3.96 0 01.313 1.556c0 .595-.126 1.156-.378 1.683a3.82 3.82 0 01-1.054 1.34A2809.688 2809.688 0 017.326 11.6a.507.507 0 01-.326.114.507.507 0 01-.325-.115 585.18 585.18 0 01-3.346-2.997A135.655 135.655 0 001.74 7.199 3.765 3.765 0 01.711 5.866a4.047 4.047 0 01-.377-1.665 3.726 3.726 0 01.312-1.556c.2-.476.486-.897.86-1.262C2.235.65 3.107.286 4.123.286a3.63 3.63 0 011.582.357c.499.238.93.574 1.295 1.007.365-.433.797-.77 1.296-1.007A3.63 3.63 0 019.878.286c1.015 0 1.888.361 2.617 1.084.373.365.66.786.86 1.263z"/></mask><path d="M13.354 2.633l-.922.386.001.003.921-.39zm-1.12 4.579l-.629-.777a1.081 1.081 0 00-.04.034l.67.743zm-2.55 2.283l-.666-.746.666.746zm-2.357 2.104l.625.78a.995.995 0 00.04-.033l-.665-.747zm-.651 0l-.66.751.034.03.626-.78zM3.329 8.602l.668-.744-.003-.003-.665.747zM1.857 7.301l-.7.714a.998.998 0 00.057.052l.643-.766zm-.117-.102l-.637.77.02.017.617-.787zM.334 4.2l1-.014v-.002l-1 .016zm.312-1.556l.918.397.005-.01-.923-.387zm.86-1.262l.7.714.008-.008-.708-.706zM7 1.65l-.765.644a1 1 0 001.53 0L7 1.65zm5.495-.28l-.704.71.004.004.7-.714zm-.062 1.652c.155.368.234.754.234 1.167h2a4.95 4.95 0 00-.392-1.946l-1.842.779zm.234 1.167c0 .449-.094.862-.28 1.252l1.805.862a4.858 4.858 0 00.475-2.114h-2zm-.28 1.252a2.82 2.82 0 01-.782.994l1.259 1.554a4.821 4.821 0 001.328-1.686l-1.805-.862zm-.822 1.028a949.91 949.91 0 01-2.548 2.28l1.332 1.492a940.59 940.59 0 002.555-2.287l-1.34-1.485zM9.016 8.75a2807.22 2807.22 0 01-2.355 2.104l1.33 1.493 2.358-2.105L9.016 8.75zM6.7 10.82a.48.48 0 01.3-.105v2c.351 0 .68-.117.951-.334l-1.25-1.56zm.3-.105a.486.486 0 01.3.105l-1.25 1.56c.271.218.6.335.95.335v-2zm.335.135c-.42-.37-1.53-1.365-3.338-2.99L2.66 9.345a597.175 597.175 0 003.354 3.005l1.321-1.501zM3.994 7.855A131.975 131.975 0 002.5 6.535L1.214 8.067c.107.09.582.51 1.45 1.282l1.33-1.494zM2.557 6.587a2.41 2.41 0 00-.2-.175L1.123 7.986a.422.422 0 01.034.03l1.4-1.43zm-.18-.16a2.766 2.766 0 01-.759-.982l-1.813.842c.305.658.74 1.222 1.298 1.683l1.274-1.542zm-.759-.982a3.047 3.047 0 01-.284-1.258l-2 .03c.01.724.167 1.418.47 2.07l1.814-.842zm-.284-1.26c-.007-.39.068-.769.23-1.143L-.27 2.248a4.726 4.726 0 00-.395 1.97l2-.033zm.235-1.153c.147-.352.357-.662.637-.935L.806.668c-.467.458-.83.99-1.082 1.59l1.845.774zm.645-.943c.545-.547 1.164-.803 1.909-.803v-2C2.837-.714 1.71-.24.798.676L2.214 2.09zm1.909-.803c.407 0 .787.086 1.151.26L6.135-.26a4.629 4.629 0 00-2.012-.454v2zm1.151.26c.367.174.686.42.96.748l1.532-1.287c-.454-.54-1-.966-1.63-1.267l-.862 1.805zm2.492.748c.275-.327.593-.574.96-.749L7.866-.26a4.833 4.833 0 00-1.631 1.267l1.53 1.287zm.96-.749a2.63 2.63 0 011.152-.26v-2c-.704 0-1.378.153-2.013.455l.861 1.805zm1.152-.26c.748 0 1.369.256 1.913.795L13.199.66C12.285-.247 11.16-.714 9.878-.714v2zm1.917.8c.28.273.49.583.637.934l1.845-.773a4.82 4.82 0 00-1.082-1.59l-1.4 1.428z" fill="#CFCFCF" mask="url(#a)"/></svg>