<svg width="20" height="20" fill="none" xmlns="http://www.w3.org/2000/svg"><path fill-rule="evenodd" clip-rule="evenodd" d="M18.245 5.791c.26.617.391 1.265.391 1.945a4.82 4.82 0 01-.472 2.105 4.775 4.775 0 01-1.318 1.674A3281.22 3281.22 0 0110.71 17a.633.633 0 01-.407.143.633.633 0 01-.407-.143 744.974 744.974 0 01-4.183-3.747 168.892 168.892 0 00-1.839-1.626 1.746 1.746 0 00-.146-.128 4.707 4.707 0 01-1.286-1.666 5.059 5.059 0 01-.472-2.08c-.01-.67.12-1.319.39-1.946a4.774 4.774 0 011.075-1.578c.911-.915 2.002-1.372 3.271-1.372.695 0 1.354.15 1.978.447a4.791 4.791 0 011.62 1.26 4.791 4.791 0 011.618-1.26 4.537 4.537 0 011.978-.447c1.27 0 2.36.452 3.271 1.356.467.457.825.983 1.075 1.578z" fill="#E73723"/><path fill-rule="evenodd" clip-rule="evenodd" d="M17.094 6.277l-.001-.003a3.524 3.524 0 00-.796-1.168L16.29 5.1c-.68-.674-1.455-.993-2.391-.993-.51 0-.984.108-1.44.325a3.541 3.541 0 00-1.2.936 1.25 1.25 0 01-1.914 0 3.542 3.542 0 00-1.2-.936 3.287 3.287 0 00-1.44-.325c-.93 0-1.705.32-2.386 1.004l-.01.01c-.35.342-.612.73-.796 1.17l-.006.012c-.202.468-.296.94-.288 1.429v.002c.008.56.127 1.08.356 1.572.223.482.534.885.938 1.22a194.231 194.231 0 012.031 1.792l.004.005c1.806 1.625 3.056 2.746 3.753 3.366l2.521-2.252a1187.2 1187.2 0 003.236-2.893c.419-.34.742-.75.977-1.242.233-.487.35-1.004.35-1.566 0-.516-.098-.999-.292-1.459zM9.896 17a744.974 744.974 0 01-4.183-3.747 168.892 168.892 0 00-1.839-1.626 1.746 1.746 0 00-.146-.128 4.707 4.707 0 01-1.286-1.666 5.059 5.059 0 01-.472-2.08c-.01-.67.12-1.319.39-1.946a4.774 4.774 0 011.075-1.578c.911-.915 2.002-1.372 3.271-1.372.695 0 1.354.15 1.978.447a4.759 4.759 0 011.62 1.26 4.758 4.758 0 011.62-1.26 4.537 4.537 0 011.976-.447c1.27 0 2.36.452 3.271 1.356.467.457.825.983 1.075 1.578.26.617.39 1.265.39 1.945a4.82 4.82 0 01-.472 2.105 4.775 4.775 0 01-1.318 1.674A3281.22 3281.22 0 0110.71 17a.633.633 0 01-.407.143.633.633 0 01-.407-.143z" fill="#4A4D56"/></svg>