<svg width="20" height="20" fill="none" xmlns="http://www.w3.org/2000/svg"><path fill-rule="evenodd" clip-rule="evenodd" d="M15.41 13.676a6.657 6.657 0 001.258-3.903c0-3.712-3.03-6.72-6.768-6.72S3.132 6.06 3.132 9.773c0 3.712 3.03 6.72 6.768 6.72 1.265 0 2.45-.345 3.463-.945l3.009 1.039-.962-2.91z" fill="#6AB5FF"/><path fill-rule="evenodd" clip-rule="evenodd" d="M9.9 3.678c-3.397 0-6.143 2.733-6.143 6.095 0 3.362 2.746 6.095 6.143 6.095a6.15 6.15 0 003.145-.858.624.624 0 01.522-.053l1.815.627-.566-1.711a.625.625 0 01.086-.562 6.033 6.033 0 001.14-3.538c0-3.362-2.745-6.095-6.142-6.095zM2.507 9.773c0-4.06 3.314-7.345 7.393-7.345s7.393 3.284 7.393 7.345a7.28 7.28 0 01-1.193 4.002l.865 2.616a.625.625 0 01-.797.787l-2.742-.947a7.4 7.4 0 01-3.526.887c-4.08 0-7.393-3.284-7.393-7.345z" fill="#4A4D56"/><path fill-rule="evenodd" clip-rule="evenodd" d="M7.759 9.229a.804.804 0 01.242.59c0 .233-.08.43-.242.592a.804.804 0 01-.591.242.804.804 0 01-.59-.242.804.804 0 01-.243-.591.8.8 0 01.242-.591.804.804 0 01.591-.243c.232 0 .43.081.591.243zm2.731 0a.804.804 0 01.243.59c0 .233-.081.43-.243.592a.804.804 0 01-.59.242.804.804 0 01-.592-.242.804.804 0 01-.242-.591.8.8 0 01.242-.591.804.804 0 01.591-.243c.233 0 .43.081.591.243zm2.731 0a.804.804 0 01.242.59c0 .233-.08.43-.242.592a.804.804 0 01-.59.242.804.804 0 01-.592-.242.804.804 0 01-.242-.591.8.8 0 01.242-.591.804.804 0 01.591-.243c.232 0 .43.081.591.243z" fill="#4A4D56"/></svg>