<svg width="20" height="20" fill="none" xmlns="http://www.w3.org/2000/svg"><path d="M5.348 7.61H2.177V4.437" stroke="#4A4D56" stroke-width="1.5" stroke-linecap="round" stroke-linejoin="round"/><path d="M2.703 7.538a7.76 7.76 0 110 4.921" stroke="#4A4D56" stroke-width="1.5" stroke-linecap="round"/><path d="M12.752 9.903l.015-.024s0 0 0 0l-.015.024m0 0l-.138-.213s0 0 0 0l.138.213m0 0h0m0 0h0m0 0l-.002.002-.132.218h0l.132-.218.002-.002m0 0h0m0 0l.001.002.006.01s0 0 0 0l-.006-.01-.001-.002m0 0h0m.256-.42l-.241.395h0l.24-.396zm-.249.432h0l.261.405-.26-.405zm-.796-.19l.307.186-.313.201a1910.8 1910.8 0 00-3.334 2.153V7.699a437.194 437.194 0 011.881 1.14l1.459.886z" fill="#FFE400" stroke="#4A4D56" stroke-width="1.5"/><path fill-rule="evenodd" clip-rule="evenodd" d="M2.176 3.813c.345 0 .625.28.625.624v2.547h2.547a.625.625 0 110 1.25H2.176a.625.625 0 01-.625-.625V4.438c0-.346.28-.625.625-.625z" fill="#4A4D56"/><path fill-rule="evenodd" clip-rule="evenodd" d="M2.109 7.34a8.385 8.385 0 110 5.317.625.625 0 111.186-.396 7.135 7.135 0 100-4.525.625.625 0 11-1.186-.396z" fill="#4A4D56"/><path fill-rule="evenodd" clip-rule="evenodd" d="M13.917 9.333s-5.174-3.268-5.43-3.42a.696.696 0 00-.618-.011c-.223.11-.313.341-.313.555v7.067c0 .284.175.495.276.56.103.064.42.162.669-.024.248-.186 5.431-3.649 5.431-3.649s.291-.173.291-.534c0-.362-.306-.544-.306-.544z" fill="#FFE400"/><path fill-rule="evenodd" clip-rule="evenodd" d="M13.917 9.333s.306.182.306.544c0 .361-.29.534-.29.534S8.748 13.874 8.5 14.06c-.249.185-.566.088-.669.023a.704.704 0 01-.276-.559V6.457c0-.214.09-.445.313-.555a.696.696 0 01.618.01c.256.153 5.43 3.42 5.43 3.42zm-.323.51l-.02.032-.336-.503.336.503-.325.514.325-.514.01.015-.01-.015.02-.031zm-1.133.048l-.024-.014a6344.277 6344.277 0 00-3.63-2.29v4.753a949.456 949.456 0 013.617-2.424l.037-.025z" fill="#4A4D56"/></svg>