<svg width="20" height="20" fill="none" xmlns="http://www.w3.org/2000/svg"><path d="M2.37 5.6c0-.627.508-1.135 1.135-1.135h9.846c.627 0 1.135.508 1.135 1.135v5.656c0 .627-.508 1.136-1.135 1.136H3.505a1.135 1.135 0 01-1.136-1.136V5.6z" fill="#ACEA5E" stroke="#4A4D56" stroke-width="1.5"/><path d="M5.512 8.743c0-.627.509-1.136 1.136-1.136h9.845c.628 0 1.136.509 1.136 1.136v5.656c0 .627-.509 1.135-1.136 1.135H6.648A1.135 1.135 0 015.512 14.4V8.743z" fill="#ACEA5E" stroke="#4A4D56" stroke-width="1.5"/><path d="M12.095 10.523h3.142m-3.142 2.094h3.142" stroke="#4A4D56" stroke-width="1.5" stroke-linecap="round"/><path fill-rule="evenodd" clip-rule="evenodd" d="M1.62 5.286a1.57 1.57 0 011.57-1.571h10.475a1.57 1.57 0 011.571 1.571v6.285a1.57 1.57 0 01-1.571 1.57H3.19a1.571 1.571 0 01-1.572-1.57V5.286z" fill="#ACEA5E"/><path fill-rule="evenodd" clip-rule="evenodd" d="M13.665 4.965H3.19a.321.321 0 00-.322.321v6.285c0 .177.144.32.322.32h10.474a.321.321 0 00.321-.32V5.286a.321.321 0 00-.321-.321zM3.19 3.715c-.868 0-1.572.703-1.572 1.571v6.285c0 .867.704 1.57 1.572 1.57h10.474a1.57 1.57 0 001.571-1.57V5.286a1.57 1.57 0 00-1.571-1.571H3.19z" fill="#4A4D56"/><path fill-rule="evenodd" clip-rule="evenodd" d="M4.762 8.429c0-.868.704-1.572 1.571-1.572h10.475c.867 0 1.57.704 1.57 1.572v6.284a1.57 1.57 0 01-1.57 1.571H6.333a1.571 1.571 0 01-1.57-1.57V8.428z" fill="#ACEA5E"/><path fill-rule="evenodd" clip-rule="evenodd" d="M16.808 8.107H6.333a.321.321 0 00-.32.322v6.284a.32.32 0 00.32.321h10.475a.321.321 0 00.32-.32V8.428a.321.321 0 00-.32-.322zM6.333 6.857c-.867 0-1.57.704-1.57 1.572v6.284a1.57 1.57 0 001.57 1.571h10.475a1.57 1.57 0 001.57-1.57V8.428c0-.868-.703-1.572-1.57-1.572H6.333z" fill="#4A4D56"/><path fill-rule="evenodd" clip-rule="evenodd" d="M11.47 10.523c0-.345.28-.625.625-.625h3.142a.625.625 0 010 1.25h-3.142a.625.625 0 01-.625-.625zm0 2.094c0-.345.28-.625.625-.625h3.142a.625.625 0 110 1.25h-3.142a.625.625 0 01-.625-.625z" fill="#4A4D56"/></svg>