<svg width="20" height="20" fill="none" xmlns="http://www.w3.org/2000/svg"><path d="M1.649 9.688c0-1.023.829-1.852 1.852-1.852h4.363v9.692H3.5a1.852 1.852 0 01-1.852-1.852V9.688z" fill="#D8D8D8"/><path fill-rule="evenodd" clip-rule="evenodd" d="M6.614 9.086H3.5a.602.602 0 00-.602.602v5.988c0 .333.27.602.602.602h3.113V9.086zM3.5 7.836a1.852 1.852 0 00-1.852 1.852v5.988c0 1.023.829 1.852 1.852 1.852h4.363V7.836H3.5z" fill="#4A4D56"/><path d="M12.153 9.453h4.364c1.022 0 1.851.83 1.851 1.852v4.373a1.852 1.852 0 01-1.851 1.852h-4.364V9.453z" fill="#C5821F"/><path fill-rule="evenodd" clip-rule="evenodd" d="M16.517 10.703h-3.114v5.577h3.114c.332 0 .601-.27.601-.602v-4.373a.602.602 0 00-.601-.602zm-4.364-1.25v8.077h4.364c1.022 0 1.851-.83 1.851-1.852v-4.373a1.852 1.852 0 00-1.851-1.852h-4.364z" fill="#4A4D56"/><path d="M6.585 4.303c0-1.023.83-1.852 1.852-1.852h3.125c1.023 0 1.852.83 1.852 1.852v13.225H6.585V4.303z" fill="#FFE400"/><path fill-rule="evenodd" clip-rule="evenodd" d="M11.562 3.701H8.437a.602.602 0 00-.602.602v11.975h4.329V4.303a.602.602 0 00-.602-.602zm-3.125-1.25c-1.023 0-1.852.83-1.852 1.852v13.225h6.829V4.303c0-1.023-.83-1.852-1.852-1.852H8.437z" fill="#4A4D56"/></svg>