<svg width="16" height="16" fill="none" xmlns="http://www.w3.org/2000/svg"><path d="M12.327 10.94l-.406-.291a.5.5 0 00-.069.449l.475-.157zm-1.637 1.498l.163-.473a.5.5 0 00-.418.043l.255.43zm2.407.831l-.163.473a.5.5 0 00.638-.63l-.475.157zm-.263-5.45a4.826 4.826 0 01-.913 2.83l.812.584a5.827 5.827 0 001.1-3.415h-1zM7.919 2.941c2.718 0 4.915 2.186 4.915 4.876h1c0-3.249-2.652-5.876-5.915-5.876v1zM3.005 7.818c0-2.69 2.196-4.876 4.914-4.876v-1c-3.263 0-5.914 2.627-5.914 5.876h1zm4.914 4.876c-2.718 0-4.914-2.186-4.914-4.876h-1c0 3.249 2.65 5.876 5.914 5.876v-1zm2.516-.686a4.919 4.919 0 01-2.516.686v1c1.105 0 2.14-.301 3.026-.826l-.51-.86zm2.825.789l-2.407-.832-.326.946 2.407.83.326-.944zm-1.408-1.7l.77 2.33.95-.315-.77-2.328-.95.314z" fill="#CFCFCF"/><path fill-rule="evenodd" clip-rule="evenodd" d="M6.207 7.384c.13.13.194.287.194.473a.643.643 0 01-.194.472.643.643 0 01-.473.194.643.643 0 01-.472-.194.643.643 0 01-.194-.472.64.64 0 01.194-.473.643.643 0 01.472-.194c.186 0 .344.065.473.194zm2.185 0c.13.13.194.287.194.473a.643.643 0 01-.194.472.643.643 0 01-.473.194.643.643 0 01-.472-.194.643.643 0 01-.194-.472.64.64 0 01.194-.473.643.643 0 01.472-.194c.186 0 .344.065.473.194zm2.185 0c.13.13.194.287.194.473a.643.643 0 01-.194.472.643.643 0 01-.473.194.643.643 0 01-.473-.194.643.643 0 01-.194-.472c0-.186.065-.344.194-.473a.643.643 0 01.473-.194c.186 0 .344.065.473.194z" fill="#CFCFCF"/></svg>