<svg width="24" height="24" fill="none" xmlns="http://www.w3.org/2000/svg"><circle cx="12.001" cy="12.001" r="6.85" stroke="#fff"/><path fill-rule="evenodd" clip-rule="evenodd" d="M7 5.959a3.532 3.532 0 00-.188-.078c.593-.386.982-1.025.982-1.748C7.794 2.957 6.764 2 5.499 2c-1.266 0-2.296.957-2.296 2.133 0 .723.39 1.363.983 1.75A3.5 3.5 0 004 5.958c-1.18.522-2 1.644-2 2.938v1.543c0 .172.15.311.334.311h6.332c.184 0 .334-.14.334-.31V8.895c0-1.294-.819-2.415-2-2.937m13 .001a3.53 3.53 0 00-.188-.078c.593-.386.982-1.025.982-1.748 0-1.176-1.03-2.133-2.295-2.133-1.266 0-2.296.957-2.296 2.133 0 .723.39 1.363.983 1.75a2.5 2.5 0 00-.186.076c-1.181.522-2 1.643-2 2.937v1.543c0 .172.15.311.334.311h6.332c.184 0 .334-.14.334-.31V8.895c0-1.294-.819-2.415-2-2.937m-6.5 11.251a3.572 3.572 0 00-.188-.078c.593-.386.982-1.025.982-1.748 0-1.176-1.03-2.133-2.295-2.133-1.266 0-2.296.957-2.296 2.133 0 .723.39 1.363.983 1.75a2.5 2.5 0 00-.186.076c-1.181.522-2 1.643-2 2.937v1.543c0 .172.15.311.334.311h6.332c.184 0 .334-.14.334-.31v-1.544c0-1.294-.819-2.415-2-2.937" fill="#fff"/></svg>