<svg width="24" height="24" fill="none" xmlns="http://www.w3.org/2000/svg"><path fill-rule="evenodd" clip-rule="evenodd" d="M10.143 11.239a6.44 6.44 0 00-.344-.142c1.085-.705 1.796-1.875 1.796-3.196C11.595 5.75 9.712 4 7.398 4 5.083 4 3.2 5.75 3.2 7.9c0 1.323.712 2.493 1.797 3.199-.114.043-.228.09-.34.14C2.498 12.194 1 14.243 1 16.61v2.82c0 .315.274.569.611.569H13.19c.337 0 .611-.254.611-.568V16.61c0-2.368-1.497-4.417-3.658-5.372" fill="#fff"/><path fill-rule="evenodd" clip-rule="evenodd" d="M19.742 11.239a6.453 6.453 0 00-.343-.142c1.084-.705 1.795-1.875 1.795-3.196C21.194 5.75 19.311 4 16.997 4S12.8 5.75 12.8 7.9c0 1.323.711 2.493 1.797 3.199a5.92 5.92 0 00-.34.14c-2.16.955-3.657 3.004-3.657 5.372v2.82c0 .315.273.569.61.569h11.578c.338 0 .612-.254.612-.568V16.61c0-2.368-1.497-4.417-3.658-5.372" fill="#fff"/></svg>