<svg width="64" height="64" fill="none" xmlns="http://www.w3.org/2000/svg"><rect width="64" height="64" rx="32" fill="#2DC100"/><path d="M28.25 20C22.04 20 17 24.035 17 29c0 2.835 1.62 5.34 4.17 6.99L20 39.5l3.75-2.25c1.335.465 2.805.75 4.365.75a7.83 7.83 0 01-.615-3c0-4.965 4.695-9 10.5-9 .285 0 .57 0 .84.045C37.31 22.535 33.17 20 28.25 20zm-4.5 3.75a1.5 1.5 0 110 3 1.5 1.5 0 010-3zm7.5 0a1.5 1.5 0 110 3 1.5 1.5 0 010-3zM38 27.5c-4.965 0-9 3.36-9 7.5 0 4.14 4.035 7.5 9 7.5 1.005 0 1.965-.12 2.865-.375L44 44l-.93-2.805C45.425 39.83 47 37.565 47 35c0-4.14-4.035-7.5-9-7.5zm-3 3.75a1.5 1.5 0 110 3 1.5 1.5 0 010-3zm6 0a1.5 1.5 0 110 3 1.5 1.5 0 010-3z" fill="#fff"/></svg>