<svg width="264" height="24" fill="none" xmlns="http://www.w3.org/2000/svg"><path d="M86.466 21.057V17.86h-8.58v-4.03h8.398v-3.172h-8.398v-3.77h8.58V3.715H74.194v17.342h12.272zm28.939 0l-6.682-17.342h-4.628l-6.709 17.342h4.057l1.092-2.99h7.748l1.092 2.99h4.03zm-6.136-6.188h-5.746l2.886-7.956 2.86 7.956zm15.896-2.469c0 5.46 4.16 8.995 9.23 8.995 3.146 0 5.616-1.3 7.384-3.276v-6.63h-8.268v3.172h4.628v2.106c-.754.676-2.158 1.326-3.744 1.326-3.146 0-5.434-2.418-5.434-5.694s2.288-5.694 5.434-5.694a4.92 4.92 0 014.108 2.184l3.068-1.664c-1.326-2.054-3.588-3.796-7.176-3.796-5.07 0-9.23 3.484-9.23 8.97zm40.449 8.657v-3.25h-7.332V3.715h-3.692v17.342h11.024zm24.738 0V17.86h-8.58v-4.03h8.398v-3.172h-8.398v-3.77h8.58V3.715H178.08v17.342h12.272z" fill="#fff"/></svg>