<svg width="152" height="16" fill="none" xmlns="http://www.w3.org/2000/svg"><path d="M9.241.959H.896a.22.22 0 00-.167.072.256.256 0 00-.07.167v13.596a.24.24 0 00.07.171.235.235 0 00.167.072h2.792a.243.243 0 00.241-.244v-5.29h4.857a.235.235 0 00.17-.072.243.243 0 00.072-.172v-2.21a.24.24 0 00-.072-.172.238.238 0 00-.17-.072H3.93V3.676h5.312a.22.22 0 00.166-.072.24.24 0 00.071-.168V1.19a.225.225 0 00-.07-.167A.243.243 0 009.24.95m9.996 8.26c1.226-.742 2.053-2.021 2.049-3.752 0-.719-.099-1.362-.317-1.93-.328-.847-.933-1.51-1.827-1.938-.89-.428-2.06-.64-3.548-.64h-3.915a.22.22 0 00-.167.073.248.248 0 00-.07.167v13.596c0 .063.023.123.07.167a.235.235 0 00.167.072h2.796a.235.235 0 00.17-.072.24.24 0 00.071-.167V10.07h1.187c.158 0 .328-.012.494-.036l2.358 4.855c.04.084.122.136.213.136h3.097a.237.237 0 00.206-.12.237.237 0 000-.24l-3.026-5.462-.008.008zm-1.432-3.752c0 .408-.063.728-.17.98-.162.371-.419.603-.807.763-.383.156-.894.228-1.507.224h-.617V3.64h1.056c.72 0 1.227.16 1.547.444.32.283.494.715.498 1.37M26.482.959h-2.796a.22.22 0 00-.166.072.248.248 0 00-.072.168v13.595a.24.24 0 00.072.172.235.235 0 00.166.072h2.796a.22.22 0 00.166-.072.243.243 0 00.072-.172V1.199a.225.225 0 00-.072-.168.243.243 0 00-.166-.072zm11.502 11.329h-5.502V9.195h4.913a.22.22 0 00.166-.072.24.24 0 00.071-.168v-2.17a.24.24 0 00-.071-.172.236.236 0 00-.166-.072h-4.913v-2.9h5.372a.22.22 0 00.166-.073.24.24 0 00.07-.168V1.19a.225.225 0 00-.07-.167.236.236 0 00-.166-.072h-8.401a.235.235 0 00-.17.072.238.238 0 00-.072.167v13.596c0 .063.024.123.072.167a.238.238 0 00.17.072h8.535a.22.22 0 00.166-.072.24.24 0 00.071-.167V12.52a.225.225 0 00-.07-.168.243.243 0 00-.167-.072M51.298.675h-2.642a.22.22 0 00-.167.072.256.256 0 00-.07.168v8.84L44.462.814a.238.238 0 00-.218-.144h-3.65a.22.22 0 00-.166.072.248.248 0 00-.072.168v13.595a.24.24 0 00.072.171.235.235 0 00.166.072h2.622a.235.235 0 00.17-.072.242.242 0 00.071-.171V5.658l3.975 8.944c.04.088.123.143.218.143h3.65a.22.22 0 00.167-.071.242.242 0 00.07-.172V.915a.225.225 0 00-.07-.168.243.243 0 00-.166-.072m7.159.28h-4.18a.235.235 0 00-.17.072.24.24 0 00-.072.172v13.595c0 .064.024.123.072.167a.245.245 0 00.17.072h3.496c2.599 0 4.545-.607 5.838-1.814 1.298-1.207 1.907-2.985 1.907-5.223 0-2.342-.562-4.116-1.753-5.299C62.578 1.514 60.802.955 58.456.96m3.406 9.171c-.273.835-.716 1.335-1.377 1.662-.66.328-1.554.456-2.677.456h-.502V3.684h1.19c.613 0 1.147.068 1.598.216.676.224 1.163.611 1.51 1.259.345.647.535 1.57.535 2.837 0 .875-.095 1.579-.273 2.134m11.087-3.537l-.06.232.06-.232c-1.045-.275-1.725-.551-2.117-.843a1.301 1.301 0 01-.403-.447 1.125 1.125 0 01-.115-.528c0-.4.162-.715.495-.967.336-.248.858-.408 1.566-.408a6.04 6.04 0 012.978.816c.06.036.13.04.194.02a.24.24 0 00.142-.136l.82-2.018a.244.244 0 00-.096-.296c-.941-.6-2.254-1.115-4.362-1.11-1.511 0-2.78.387-3.679 1.114-.898.727-1.412 1.798-1.408 3.081 0 1.159.285 2.098.91 2.821.625.72 1.562 1.207 2.824 1.543 1.139.304 1.796.563 2.124.831a.9.9 0 01.312.412c.06.152.083.34.083.58-.004.503-.162.838-.47 1.078-.313.244-.815.388-1.515.388-1.108 0-2.322-.24-3.659-.915a.25.25 0 00-.186-.012.25.25 0 00-.138.132l-.874 2.054a.24.24 0 00.095.3c1.352.838 3.294 1.242 4.837 1.246 1.653 0 2.982-.412 3.904-1.19.921-.78 1.412-1.923 1.412-3.294 0-.967-.17-1.846-.736-2.577-.565-.731-1.495-1.287-2.939-1.667m15.149-.008l-.06.232.06-.232c-1.044-.275-1.724-.551-2.116-.843a1.302 1.302 0 01-.403-.447 1.125 1.125 0 01-.115-.528c0-.4.162-.715.494-.967.337-.248.859-.408 1.567-.408a6.04 6.04 0 012.978.816c.06.036.13.04.194.02a.24.24 0 00.142-.136l.819-2.018a.244.244 0 00-.095-.296c-.941-.6-2.255-1.115-4.363-1.11-1.51 0-2.78.387-3.678 1.114-.898.727-1.412 1.798-1.408 3.081 0 1.159.285 2.098.91 2.821.624.72 1.562 1.207 2.823 1.543 1.14.304 1.796.563 2.125.831a.9.9 0 01.312.412c.06.152.083.34.083.58-.004.503-.162.838-.47 1.078-.313.244-.815.388-1.516.388-1.107 0-2.321-.24-3.658-.915a.25.25 0 00-.186-.012.231.231 0 00-.135.132l-.874 2.054a.24.24 0 00.095.3c1.353.838 3.295 1.242 4.838 1.246 1.653 0 2.982-.412 3.904-1.19.921-.78 1.412-1.923 1.412-3.294 0-.967-.17-1.846-.736-2.577-.566-.731-1.495-1.287-2.939-1.667m15.426 5.127a.247.247 0 00-.143-.14.23.23 0 00-.198.02c-.787.46-1.862.852-3.302.852-1.08 0-1.926-.364-2.528-1.095-.6-.736-.96-1.879-.96-3.465 0-1.73.407-2.825 1.032-3.48.624-.66 1.495-.924 2.511-.924 1.072 0 1.899.22 2.812.632.119.056.257 0 .313-.116l.933-1.998a.243.243 0 00-.099-.312C102.838 1.106 101.415.67 99.757.67c-1.878 0-3.571.56-4.79 1.754-1.222 1.2-1.95 3.021-1.945 5.475 0 2.593.676 4.464 1.862 5.675 1.187 1.214 2.856 1.746 4.759 1.746 1.894 0 3.666-.56 4.615-1.19a.242.242 0 00.091-.289l-.818-2.114zm10.097-2.518c1.227-.742 2.053-2.021 2.049-3.752 0-.719-.099-1.362-.316-1.93-.328-.847-.934-1.51-1.827-1.938-.89-.428-2.061-.64-3.548-.64h-3.916a.235.235 0 00-.17.073.231.231 0 00-.067.167v13.596c0 .063.023.123.071.167a.235.235 0 00.166.072h2.792a.233.233 0 00.17-.072.24.24 0 00.072-.167V10.07h1.182c.158 0 .329-.012.495-.036l2.357 4.855c.04.084.123.136.214.136h3.097a.235.235 0 00.205-.12.234.234 0 000-.24l-3.026-5.462v.008zm-1.431-3.752c0 .408-.064.728-.17.98-.163.371-.42.603-.807.763-.384.156-.894.228-1.507.224h-.617V3.64h1.056c.72 0 1.226.16 1.546.444.321.283.495.715.499 1.37m14.42 6.834h-5.501V9.195h4.912a.22.22 0 00.166-.072.246.246 0 00.071-.168v-2.17a.242.242 0 00-.237-.244h-4.912v-2.9h5.371a.235.235 0 00.17-.073.238.238 0 00.071-.168V1.19a.223.223 0 00-.071-.167.237.237 0 00-.17-.072h-8.401a.235.235 0 00-.17.072.235.235 0 00-.071.167v13.596c0 .063.023.123.071.167a.237.237 0 00.17.072h8.535a.222.222 0 00.167-.072.242.242 0 00.071-.167V12.52a.226.226 0 00-.071-.168.252.252 0 00-.167-.072m11.154.008h-5.501V9.195h4.912a.22.22 0 00.166-.072.246.246 0 00.071-.168v-2.17a.242.242 0 00-.237-.244h-4.912v-2.9h5.371a.243.243 0 00.241-.24V1.19a.226.226 0 00-.071-.168.239.239 0 00-.17-.072h-8.401a.235.235 0 00-.17.072.235.235 0 00-.071.167v13.596c0 .063.023.123.071.167a.237.237 0 00.17.072h8.535a.218.218 0 00.166-.072.24.24 0 00.072-.167V12.52a.224.224 0 00-.072-.168.248.248 0 00-.166-.072m13.492-11.253a.239.239 0 00-.17-.072h-2.643a.221.221 0 00-.166.072.252.252 0 00-.071.172v8.84l-3.955-8.94a.239.239 0 00-.218-.144h-3.65a.222.222 0 00-.167.072.252.252 0 00-.071.172v13.595a.24.24 0 00.071.171.238.238 0 00.167.072h2.622a.22.22 0 00.166-.072.24.24 0 00.071-.171V5.946l3.975 8.944a.24.24 0 00.218.143h3.651a.245.245 0 00.241-.244V1.2a.242.242 0 00-.071-.172z" fill="#222"/></svg>