<svg width="30" height="30" fill="none" xmlns="http://www.w3.org/2000/svg"><circle cx="15" cy="15" r="15" fill="url(#paint0_radial_2947_33920)"/><mask id="a" style="mask-type:alpha" maskUnits="userSpaceOnUse" x="0" y="0" width="30" height="30"><circle cx="15" cy="15" r="15" fill="#fff"/></mask><g mask="url(#a)"><path fill-rule="evenodd" clip-rule="evenodd" d="M13.503 1.472c.619-.004 1.095-.385 1.097-.872a.717.717 0 00-.306-.6c-.548.025-1.089.08-1.62.162a.746.746 0 00-.2.512c.005.46.441.801 1.029.798zm4.357.054c-.618-.031-1.07-.417-1.078-.915a.687.687 0 01.181-.496A14.93 14.93 0 0118.8.469a.83.83 0 01.063.247c.04.486-.392.84-1.003.81zm-8.611.158c.59-.047 1.07-.46 1.102-.946v-.02c-.634.207-1.25.451-1.843.736.16.165.418.255.741.23zm10.808-.01c-.633-.073-1.065.241-1.045.775.02.532.502.961 1.131 1.005.609.042.991-.285.955-.8-.037-.529-.443-.91-1.041-.98zm-.718 6.94c.001.613-.468 1.064-1.113 1.054-.681-.01-1.192-.511-1.204-1.177-.013-.682.442-1.093 1.148-1.055.687.036 1.168.52 1.17 1.178zm-3.533 3.387c.727.01 1.24-.505 1.215-1.206-.023-.674-.51-1.134-1.205-1.145-.708-.012-1.182.42-1.206 1.105-.027.724.463 1.237 1.196 1.246zm2.424.067c-.723.006-1.175.495-1.14 1.248.031.686.53 1.18 1.195 1.183.689.003 1.197-.532 1.182-1.235-.015-.713-.52-1.202-1.237-1.196zm-4.846 11.835c.66.03 1.184-.426 1.191-1.048.008-.638-.487-1.098-1.197-1.105-.673-.006-1.151.415-1.158 1.006-.006.616.506 1.118 1.164 1.147zm-1.251-3.395c.04.697-.42 1.163-1.11 1.145-.656-.018-1.151-.476-1.202-1.114-.054-.682.399-1.16 1.106-1.149.69.011 1.168.455 1.206 1.118zm-3.515-1.216c.641.027 1.12-.472 1.097-1.16-.021-.67-.477-1.151-1.117-1.183-.692-.035-1.126.404-1.112 1.108.013.693.483 1.207 1.132 1.235zm5.947-1.116c.017.703-.502 1.235-1.197 1.235-.69 0-1.234-.531-1.247-1.223-.012-.666.469-1.16 1.158-1.182.739-.024 1.268.459 1.286 1.17zM8.568 14.51c.645-.021 1.135-.574 1.122-1.272-.015-.704-.504-1.157-1.18-1.106-.641.048-1.053.518-1.06 1.202-.005.697.464 1.197 1.118 1.176zm3.5 1.195c.017.744-.475 1.253-1.187 1.238-.673-.014-1.155-.504-1.174-1.187-.018-.696.427-1.195 1.106-1.23.739-.038 1.24.43 1.256 1.18zm8.523-3.63c.653.032 1.101-.403 1.106-1.055.005-.713-.437-1.203-1.126-1.246-.655-.04-1.112.371-1.127 1.034-.016.693.476 1.235 1.147 1.268zm3.304 5.923c-.014.663-.485 1.188-1.096 1.218-.606.03-1.069-.466-1.045-1.137.025-.675.516-1.17 1.153-1.168.609.002 1.004.442.988 1.087zm-4.744-11.66c0-.694.693-.925 1.12-.897.638.032 1.093.434 1.164 1.03.027 1.715-2.284 1.022-2.284-.133zm3.475 1.348c-.625-.054-1.058.364-1.013 1.001.044.634.556 1.153 1.16 1.176.58.022.982-.407.957-1.003-.026-.638-.478-1.12-1.104-1.174zm-8.007-1.462c.031-.627.532-1.009 1.24-.955.646.048 1.088.496 1.07 1.095-.018.615-.548 1.034-1.251.976-.67-.054-1.09-.503-1.059-1.116zm3.35-2.86c-.636-.03-1.054.301-1.062.854-.01.58.454 1.036 1.107 1.085.645.047 1.122-.358 1.101-.918-.02-.573-.491-.991-1.145-1.022zm1.534 12.39c-.01-.728.474-1.231 1.166-1.222.675.008 1.097.455 1.102 1.155.006.72-.463 1.225-1.146 1.229-.645.003-1.113-.476-1.122-1.162zm5.02-9.939c-.58-.089-.952.22-.939.8.015.62.44 1.117 1.025 1.2.588.084.976-.3.927-.892a1.199 1.199 0 00-1.013-1.108zm-5.081 12.368c-.03.688-.57 1.208-1.247 1.199-.657-.01-1.118-.484-1.12-1.166 0-.735.475-1.219 1.206-1.225.715-.005 1.19.489 1.16 1.192zm1.009 3.391c.64-.02 1.116-.47 1.177-1.106.067-.696-.335-1.15-1.026-1.136-.658.014-1.144.464-1.2 1.111-.059.677.39 1.152 1.049 1.131zM8.521 9.802c-1.386-.23-.924-2.08.272-2.237.653-.033 1.085.401 1.036 1.058-.152.717-.614 1.179-1.308 1.179zM22.8 12.18c-.6.005-1.026.474-1.012 1.131.015.683.51 1.213 1.12 1.207.612-.006 1.054-.527 1.025-1.197-.029-.679-.49-1.146-1.133-1.141zm-8.237 1.06c.003.712-.54 1.261-1.244 1.255a1.213 1.213 0 01-1.215-1.265c.016-.674.516-1.164 1.205-1.183.736-.02 1.25.467 1.254 1.194zM1.7 9.243c.043-.351-.044-.628-.216-.796a14.892 14.892 0 00-.764 1.9c.49-.019.898-.34.98-1.104zM8.113 2.65c-.284.915-.977 1.377-1.67.915-.229-.229-.33-.457-.328-.67.482-.355.986-.68 1.51-.976.33.09.52.354.488.731zm13.189 1.866c.056.558.567 1.033 1.154 1.075.565.04.945-.33.904-.857-.044-.566-.495-1.004-1.102-1.068-.606-.064-1.013.29-.956.85zM30 14.472c-.02-.585-.07-1.163-.155-1.728-.462.46-.302 1.345.155 1.728zM27.406 7.12c.064.56.456 1.01.941 1.077a.125.125 0 00.02 0h.009l.009.001a15.019 15.019 0 00-.922-1.574c-.055.136-.079.3-.057.496zm.356 10.68c-.01.624-.412 1.134-.938 1.183-.532.05-.913-.391-.89-1.047.021-.642.38-1.09.907-1.133.554-.046.93.366.92.997zM1.266 21.074c.166.377.346.747.542 1.107.005-.052.009-.104.009-.157-.04-.42-.252-.766-.551-.95zm28.37-2.739c.102-.446.183-.9.244-1.36-.318.36-.395.946-.244 1.36zm-1.06.551c-.515.047-.899.528-.92 1.154-.019.586.317.953.803.893a.906.906 0 00.397-.15c.179-.427.34-.865.479-1.311-.082-.394-.356-.621-.76-.586zm.859-7.557c.054.63-.257 1.066-.765 1.053-.506-.012-.902-.488-.93-1.12-.026-.611.292-.997.785-.967.501.03.858.436.91 1.034zm-13.608 3.19c-.604.136-1.298.598-1.298 1.29.232 1.387 2.311 1.618 2.522-.03.025-.734-.482-1.258-1.224-1.26zm-.102 7.199c-.705-.027-1.162-.527-1.11-1.231.047-.661.541-1.075 1.262-1.049.689.025 1.147.503 1.12 1.157-.027.677-.565 1.149-1.272 1.123zm9.166-11.7c-.614-.077-1.015.316-.999 1 .017.655.411 1.136.977 1.196.593.062 1.01-.374.994-1.02-.015-.626-.41-1.105-.972-1.176zm-10.32-1.506c-.022.622-.526 1.1-1.186 1.12-.686.019-1.208-.476-1.199-1.122.01-.649.526-1.119 1.228-1.122.7-.003 1.182.458 1.157 1.124zm10.392 6.041c-.61.007-1.001.481-.98 1.2.018.662.426 1.092.997 1.064.587-.027.997-.537.976-1.204-.02-.637-.417-1.066-.993-1.06zM14.529 2.41c0-.463.463-1.155 1.172-.928.623.008 1.07.356 1.105.867-.197 1.216-2.045 1.216-2.277.06zm12.399 12.135c.848-.102.815-.777.784-1.402a6.531 6.531 0 01-.011-.336c-.231-.693-1.849-.462-1.725.596.014.665.42 1.148.952 1.142zm-.2-4.414c-.51-.055-.914-.518-.971-1.117-.063-.648.264-1.025.822-.97.548.054.956.512 1 1.122.042.598-.324 1.022-.85.965zm-15.776-.425c-.705.028-1.19.535-1.185 1.235.006.657.48 1.113 1.152 1.094.708-.019 1.199-.54 1.187-1.255-.011-.682-.468-1.102-1.154-1.074zm18.578 5.968c-.022.605-.366 1.023-.856 1.035-.505.012-.862-.454-.837-1.101.024-.623.377-1.034.871-1.028.524.007.846.439.822 1.094zM6.585 21.41c.614.03 1.026-.43.958-1.094-.064-.634-.527-1.082-1.134-1.101-.64-.021-1.004.415-.933 1.097.066.626.511 1.067 1.109 1.098zm18.112-.055c-1.387-.23-.924-2.08.177-2.23.596-.033.967.405.906 1.047-.159.49-.621 1.183-1.083 1.183zm1.849 1.849c.52 0 .65-.391.778-.779.042-.128.085-.256.141-.369.057-.595-.281-.97-.834-.907-1.01.206-1.472 2.055-.085 2.055zm-2.32-19.36c-.553-.072-.978-.476-1.05-.996a.815.815 0 01.041-.414c.581.38 1.133.801 1.654 1.256-.15.13-.37.191-.645.155zm-10.159-.511c-.693-.232-1.386 0-1.744.986.007.536.472.935 1.097.932 1.11.392 1.572-1.456.647-1.918zm11.278 1.585c-.032-.28.03-.497.168-.636.504.496.973 1.026 1.404 1.588a.705.705 0 01-.542.14c-.529-.063-.966-.527-1.03-1.092zm-3.317-3.089c.069.008.135.01.198.006a15.076 15.076 0 00-1.126-.556c.193.29.538.505.928.55zm.685 19.644c.597-.021.962.372.915.964a1.25 1.25 0 01-1.133 1.143c-.592.044-1.022-.39-.968-1.001a1.22 1.22 0 011.186-1.106zM19.15 26.67c0-.61-.536-.684-1.017-.75a7.923 7.923 0 01-.194-.028c-.634.049-1.056.434-1.07.971.432 1.424 2.05.962 2.281-.193zm-2.16-3.894c.036-.65.532-1.078 1.245-1.07.683.006 1.11.474 1.033 1.109-.072.59-.58 1.028-1.203 1.039-.66.012-1.11-.433-1.075-1.078zm3.19 2.958c.642-.035 1.116-.473 1.16-1.072.042-.585-.33-.937-.976-.904-.664.034-1.152.482-1.178 1.08-.025.563.39.93.995.896zm2.131-.141c.612-.06.983.287.911.833-.144.937-1.53 1.399-1.761.706-.462-.693 0-1.387.85-1.54zM2.675 8.05c.54-.04.973-.502 1.035-1.105.06-.59-.241-.925-.767-.873l-.01.002-.014.002c-.352.476-.674.975-.97 1.491.095.32.358.51.726.483zm14.322 21.826c.197-.177.51-.305.834-.382.238-.007.44.037.599.12-.47.11-.948.197-1.433.262zm-9.919-2.47a.876.876 0 00-.433.07c.503.337 1.028.641 1.57.916a.15.15 0 01.004-.018l.005-.02c-.068-.513-.546-.908-1.146-.947zm5.65 2.436c.24-.218.583-.357.83-.293.439.012.778.187.94.451-.599-.02-1.19-.07-1.77-.158zm7.331-2.209c.616-.041.972.256.929.763a.938.938 0 01-.158.441c-.425.18-.86.339-1.303.479-.375-.085-.61-.354-.592-.731.026-.516.49-.91 1.124-.952zm5.777-2.25c-.265.171-.518.37-.63.622.216-.2.426-.409.63-.622zM4.785 5.834c-.524.051-.872-.303-.83-.823.006-.081.023-.159.046-.235.258-.277.526-.545.804-.802.064-.02.13-.035.197-.045.575-.08.937.25.875.817-.061.554-.544 1.035-1.092 1.088zm10.92 18.097c-.67.032-1.095.441-1.082 1.029.012.578.455.959 1.101.957.67 0 1.162-.43 1.169-1.024.005-.595-.483-.996-1.188-.962zM6.01 26.364a1.54 1.54 0 01-.216.495 15.12 15.12 0 01-1.448-1.278c.135-.115.323-.204.572-.249.574.06 1.026.487 1.092 1.032zm-2.17-2.173c-.08-.566-.477-.976-1.008-1.038-.14.032-.254.08-.353.136.367.552.77 1.077 1.205 1.575.141-.137.187-.353.156-.673zm21.564.071a1.217 1.217 0 01-1.089 1.088c-.554.054-.896-.282-.844-.85a1.18 1.18 0 011.029-1.087c.596-.083.964.271.904.85zM.594 14.561c1.226-.368 1.226-1.986.07-2.217-.22 0-.369.07-.477.18A15.111 15.111 0 000 14.23a.721.721 0 00.594.33zm4.712 1.069c.018-.664.426-1.093 1.044-1.086.607.006 1.037.47 1.05 1.144.016.702-.44 1.196-1.066 1.171-.631-.025-1.046-.525-1.028-1.229zM4.26 14.534c.56.006 1.01-.507 1.024-1.171.014-.68-.393-1.124-.981-1.09-.579.035-.99.534-.98 1.18.01.615.404 1.075.937 1.08zM1.582 11.29c.035-.608.405-1.051.927-1.106.533-.056.88.308.873.934-.007.66-.397 1.156-.936 1.197-.54.04-.9-.395-.864-1.025zm.84 3.279c-.552-.024-.932.41-.936 1.055-.003.616.35 1.081.858 1.126.519.046.908-.357.94-.985.034-.688-.317-1.173-.862-1.196zM4.4 10.023c-.552.016-.924-.452-.854-1.055.123-1.014 1.51-1.476 1.972-.552.23.924-.463 1.386-1.118 1.607zm5.84-7.572c-.071.535.343.92.985.9.763.213 1.225-.48 1.225-.942-.231-1.155-1.849-1.155-2.21.042zm1.983 3.818c.004.634-.475 1.11-1.161 1.145-.652.033-1.102-.364-1.094-.948.008-.624.485-1.084 1.159-1.122.657-.038 1.091.323 1.096.925zM9.049 3.522c-.99.273-1.452 1.197-.759 1.66.693.461 1.387.23 1.786-.807.032-.57-.393-.916-1.027-.853zm-1.568 7.435c-.02.68-.5 1.19-1.126 1.2-.628.01-1.014-.46-.955-1.146.054-.645.483-1.078 1.096-1.104.601-.025 1.005.396.985 1.05zm-.913-3.272a1.224 1.224 0 001.179-1.101c.059-.59-.31-.972-.888-.943-.632.032-1.083.454-1.151 1.076-.066.594.274.986.86.968zm1.283 16.931c.065.59-.336.965-.937.901-.582-.062-1.012-.477-1.083-1.044-.072-.578.255-.942.844-.916.62.028 1.111.47 1.176 1.059zm1.3 2.965c.594.064 1.037-.292 1.008-.828-.028-.546-.5-.97-1.135-1.019-.617-.046-.987.269-.955.797.032.551.48.985 1.082 1.05zm3.114-2.673c.016.6-.446.98-1.107.925-.622-.05-1.079-.48-1.11-1.045-.033-.596.417-.982 1.107-.931.656.047 1.094.465 1.11 1.051zM8.88 23.711c.62.033 1.064-.408 1.015-1.03-.05-.63-.554-1.085-1.216-1.098-.631-.013-1.001.379-.957.992.046.627.53 1.102 1.158 1.136zm5.709 3.18c-.001.54-.483.929-1.11.905-.621-.022-1.11-.45-1.114-.982-.005-.51.442-.875 1.078-.87.676.005 1.147.397 1.146.947zm-3.144 2.556c.62.02 1.02-.326.969-.85-.05-.497-.495-.838-1.124-.86-.642-.021-1.038.335-.966.854.068.484.53.836 1.12.856zM5.324 18c.023.66-.397 1.125-.957 1.08-.557-.046-.994-.571-1.006-1.203-.011-.634.4-1.071.985-1.029.556.04.956.51.978 1.152zm-1.868 2.065c-.057-.624-.44-1.05-.972-1.083-.525-.034-.852.347-.825.94.03.618.437 1.102.973 1.152.541.052.884-.359.824-1.01zm-2.794-3.33c.499.033.86.509.862 1.141.002.616-.376 1.031-.858.958a.828.828 0 01-.207-.062 14.97 14.97 0 01-.35-1.845.7.7 0 01.553-.192zm4.023 6.608c.551.077.957-.323.914-.922-.042-.589-.457-1.054-1.008-1.131-.583-.081-.976.294-.942.88.034.583.487 1.097 1.036 1.173zm11.033 4.479c.63-.006 1.055.327 1.052.816-.392.804-2.01 1.266-2.24.111 0-.462.462-1.155 1.188-.927z" fill="#57ABFF" style="mix-blend-mode:multiply" opacity=".19"/></g><circle cx="15" cy="15" r="15" fill="url(#paint1_radial_2947_33920)"/><mask id="b" style="mask-type:alpha" maskUnits="userSpaceOnUse" x="0" y="0" width="30" height="30"><circle cx="15" cy="15" r="15" fill="#fff"/></mask><g mask="url(#b)"><path fill-rule="evenodd" clip-rule="evenodd" d="M13.503 1.472c.619-.004 1.095-.385 1.097-.872a.717.717 0 00-.306-.6c-.548.025-1.089.08-1.62.162a.746.746 0 00-.2.512c.005.46.441.801 1.029.798zm4.357.054c-.618-.031-1.07-.417-1.078-.915a.687.687 0 01.181-.496A14.93 14.93 0 0118.8.469a.83.83 0 01.063.247c.04.486-.392.84-1.003.81zm-8.611.158c.59-.047 1.07-.46 1.102-.946v-.02c-.634.207-1.25.451-1.843.736.16.165.418.255.741.23zm10.808-.01c-.633-.073-1.065.241-1.045.775.02.532.502.961 1.131 1.005.609.042.991-.285.955-.8-.037-.529-.443-.91-1.041-.98zm-.718 6.94c.001.613-.468 1.064-1.113 1.054-.681-.01-1.192-.511-1.204-1.177-.013-.682.442-1.093 1.148-1.055.687.036 1.168.52 1.17 1.178zm-3.533 3.387c.727.01 1.24-.505 1.215-1.206-.023-.674-.51-1.134-1.205-1.145-.708-.012-1.182.42-1.206 1.105-.027.724.463 1.237 1.196 1.246zm2.424.067c-.723.006-1.175.495-1.14 1.248.031.686.53 1.18 1.195 1.183.689.003 1.197-.532 1.182-1.235-.015-.713-.52-1.202-1.237-1.196zm-4.846 11.835c.66.03 1.184-.426 1.191-1.048.008-.638-.487-1.098-1.197-1.105-.673-.006-1.151.415-1.158 1.006-.006.616.506 1.118 1.164 1.147zm-1.251-3.395c.04.697-.42 1.163-1.11 1.145-.656-.018-1.151-.476-1.202-1.114-.054-.682.399-1.16 1.106-1.149.69.011 1.168.455 1.206 1.118zm-3.515-1.216c.641.027 1.12-.472 1.097-1.16-.021-.67-.477-1.151-1.117-1.183-.692-.035-1.126.404-1.112 1.108.013.693.483 1.207 1.132 1.235zm5.947-1.116c.017.703-.502 1.235-1.197 1.235-.69 0-1.234-.531-1.247-1.223-.012-.666.469-1.16 1.158-1.182.739-.024 1.268.459 1.286 1.17zM8.568 14.51c.645-.021 1.135-.574 1.122-1.272-.015-.704-.504-1.157-1.18-1.106-.641.048-1.053.518-1.06 1.202-.005.697.464 1.197 1.118 1.176zm3.5 1.195c.017.744-.475 1.253-1.187 1.238-.673-.014-1.155-.504-1.174-1.187-.018-.696.427-1.195 1.106-1.23.739-.038 1.24.43 1.256 1.18zm8.523-3.63c.653.032 1.101-.403 1.106-1.055.005-.713-.437-1.203-1.126-1.246-.655-.04-1.112.371-1.127 1.034-.016.693.476 1.235 1.147 1.268zm3.304 5.923c-.014.663-.485 1.188-1.096 1.218-.606.03-1.069-.466-1.045-1.137.025-.675.516-1.17 1.153-1.168.609.002 1.004.442.988 1.087zm-4.744-11.66c0-.694.693-.925 1.12-.897.638.032 1.093.434 1.164 1.03.027 1.715-2.284 1.022-2.284-.133zm3.475 1.348c-.625-.054-1.058.364-1.013 1.001.044.634.556 1.153 1.16 1.176.58.022.982-.407.957-1.003-.026-.638-.478-1.12-1.104-1.174zm-8.007-1.462c.031-.627.532-1.009 1.24-.955.646.048 1.088.496 1.07 1.095-.018.615-.548 1.034-1.251.976-.67-.054-1.09-.503-1.059-1.116zm3.35-2.86c-.636-.03-1.054.301-1.062.854-.01.58.454 1.036 1.107 1.085.645.047 1.122-.358 1.101-.918-.02-.573-.491-.991-1.145-1.022zm1.534 12.39c-.01-.728.474-1.231 1.166-1.222.675.008 1.097.455 1.102 1.155.006.72-.463 1.225-1.146 1.229-.645.003-1.113-.476-1.122-1.162zm5.02-9.939c-.58-.089-.952.22-.939.8.015.62.44 1.117 1.025 1.2.588.084.976-.3.927-.892a1.199 1.199 0 00-1.013-1.108zm-5.081 12.368c-.03.688-.57 1.208-1.247 1.199-.657-.01-1.118-.484-1.12-1.166 0-.735.475-1.219 1.206-1.225.715-.005 1.19.489 1.16 1.192zm1.009 3.391c.64-.02 1.116-.47 1.177-1.106.067-.696-.335-1.15-1.026-1.136-.658.014-1.144.464-1.2 1.111-.059.677.39 1.152 1.049 1.131zM8.521 9.802c-1.386-.23-.924-2.08.272-2.237.653-.033 1.085.401 1.036 1.058-.152.717-.614 1.179-1.308 1.179zM22.8 12.18c-.6.005-1.026.474-1.012 1.131.015.683.51 1.213 1.12 1.207.612-.006 1.054-.527 1.025-1.197-.029-.679-.49-1.146-1.133-1.141zm-8.237 1.06c.003.712-.54 1.261-1.244 1.255a1.213 1.213 0 01-1.215-1.265c.016-.674.516-1.164 1.205-1.183.736-.02 1.25.467 1.254 1.194zM1.7 9.243c.043-.351-.044-.628-.216-.796a14.892 14.892 0 00-.764 1.9c.49-.019.898-.34.98-1.104zM8.113 2.65c-.284.915-.977 1.377-1.67.915-.229-.229-.33-.457-.328-.67.482-.355.986-.68 1.51-.976.33.09.52.354.488.731zm13.189 1.866c.056.558.567 1.033 1.154 1.075.565.04.945-.33.904-.857-.044-.566-.495-1.004-1.102-1.068-.606-.064-1.013.29-.956.85zM30 14.472c-.02-.585-.07-1.163-.155-1.728-.462.46-.302 1.345.155 1.728zM27.406 7.12c.064.56.456 1.01.941 1.077a.125.125 0 00.02 0h.009l.009.001a15.019 15.019 0 00-.922-1.574c-.055.136-.079.3-.057.496zm.356 10.68c-.01.624-.412 1.134-.938 1.183-.532.05-.913-.391-.89-1.047.021-.642.38-1.09.907-1.133.554-.046.93.366.92.997zM1.266 21.074c.166.377.346.747.542 1.107.005-.052.009-.104.009-.157-.04-.42-.252-.766-.551-.95zm28.37-2.739c.102-.446.183-.9.244-1.36-.318.36-.395.946-.244 1.36zm-1.06.551c-.515.047-.899.528-.92 1.154-.019.586.317.953.803.893a.906.906 0 00.397-.15c.179-.427.34-.865.479-1.311-.082-.394-.356-.621-.76-.586zm.859-7.557c.054.63-.257 1.066-.765 1.053-.506-.012-.902-.488-.93-1.12-.026-.611.292-.997.785-.967.501.03.858.436.91 1.034zm-13.608 3.19c-.604.136-1.298.598-1.298 1.29.232 1.387 2.311 1.618 2.522-.03.025-.734-.482-1.258-1.224-1.26zm-.102 7.199c-.705-.027-1.162-.527-1.11-1.231.047-.661.541-1.075 1.262-1.049.689.025 1.147.503 1.12 1.157-.027.677-.565 1.149-1.272 1.123zm9.166-11.7c-.614-.077-1.015.316-.999 1 .017.655.411 1.136.977 1.196.593.062 1.01-.374.994-1.02-.015-.626-.41-1.105-.972-1.176zm-10.32-1.506c-.022.622-.526 1.1-1.186 1.12-.686.019-1.208-.476-1.199-1.122.01-.649.526-1.119 1.228-1.122.7-.003 1.182.458 1.157 1.124zm10.392 6.041c-.61.007-1.001.481-.98 1.2.018.662.426 1.092.997 1.064.587-.027.997-.537.976-1.204-.02-.637-.417-1.066-.993-1.06zM14.529 2.41c0-.463.463-1.155 1.172-.928.623.008 1.07.356 1.105.867-.197 1.216-2.045 1.216-2.277.06zm12.399 12.135c.848-.102.815-.777.784-1.402a6.531 6.531 0 01-.011-.336c-.231-.693-1.849-.462-1.725.596.014.665.42 1.148.952 1.142zm-.2-4.414c-.51-.055-.914-.518-.971-1.117-.063-.648.264-1.025.822-.97.548.054.956.512 1 1.122.042.598-.324 1.022-.85.965zm-15.776-.425c-.705.028-1.19.535-1.185 1.235.006.657.48 1.113 1.152 1.094.708-.019 1.199-.54 1.187-1.255-.011-.682-.468-1.102-1.154-1.074zm18.578 5.968c-.022.605-.366 1.023-.856 1.035-.505.012-.862-.454-.837-1.101.024-.623.377-1.034.871-1.028.524.007.846.439.822 1.094zM6.585 21.41c.614.03 1.026-.43.958-1.094-.064-.634-.527-1.082-1.134-1.101-.64-.021-1.004.415-.933 1.097.066.626.511 1.067 1.109 1.098zm18.112-.055c-1.387-.23-.924-2.08.177-2.23.596-.033.967.405.906 1.047-.159.49-.621 1.183-1.083 1.183zm1.849 1.849c.52 0 .65-.391.778-.779.042-.128.085-.256.141-.369.057-.595-.281-.97-.834-.907-1.01.206-1.472 2.055-.085 2.055zm-2.32-19.36c-.553-.072-.978-.476-1.05-.996a.815.815 0 01.041-.414c.581.38 1.133.801 1.654 1.256-.15.13-.37.191-.645.155zm-10.159-.511c-.693-.232-1.386 0-1.744.986.007.536.472.935 1.097.932 1.11.392 1.572-1.456.647-1.918zm11.278 1.585c-.032-.28.03-.497.168-.636.504.496.973 1.026 1.404 1.588a.705.705 0 01-.542.14c-.529-.063-.966-.527-1.03-1.092zm-3.317-3.089c.069.008.135.01.198.006a15.076 15.076 0 00-1.126-.556c.193.29.538.505.928.55zm.685 19.644c.597-.021.962.372.915.964a1.25 1.25 0 01-1.133 1.143c-.592.044-1.022-.39-.968-1.001a1.22 1.22 0 011.186-1.106zM19.15 26.67c0-.61-.536-.684-1.017-.75a7.923 7.923 0 01-.194-.028c-.634.049-1.056.434-1.07.971.432 1.424 2.05.962 2.281-.193zm-2.16-3.894c.036-.65.532-1.078 1.245-1.07.683.006 1.11.474 1.033 1.109-.072.59-.58 1.028-1.203 1.039-.66.012-1.11-.433-1.075-1.078zm3.19 2.958c.642-.035 1.116-.473 1.16-1.072.042-.585-.33-.937-.976-.904-.664.034-1.152.482-1.178 1.08-.025.563.39.93.995.896zm2.131-.141c.612-.06.983.287.911.833-.144.937-1.53 1.399-1.761.706-.462-.693 0-1.387.85-1.54zM2.675 8.05c.54-.04.973-.502 1.035-1.105.06-.59-.241-.925-.767-.873l-.01.002-.014.002c-.352.476-.674.975-.97 1.491.095.32.358.51.726.483zm14.322 21.826c.197-.177.51-.305.834-.382.238-.007.44.037.599.12-.47.11-.948.197-1.433.262zm-9.919-2.47a.876.876 0 00-.433.07c.503.337 1.028.641 1.57.916a.15.15 0 01.004-.018l.005-.02c-.068-.513-.546-.908-1.146-.947zm5.65 2.436c.24-.218.583-.357.83-.293.439.012.778.187.94.451-.599-.02-1.19-.07-1.77-.158zm7.331-2.209c.616-.041.972.256.929.763a.938.938 0 01-.158.441c-.425.18-.86.339-1.303.479-.375-.085-.61-.354-.592-.731.026-.516.49-.91 1.124-.952zm5.777-2.25c-.265.171-.518.37-.63.622.216-.2.426-.409.63-.622zM4.785 5.834c-.524.051-.872-.303-.83-.823.006-.081.023-.159.046-.235.258-.277.526-.545.804-.802.064-.02.13-.035.197-.045.575-.08.937.25.875.817-.061.554-.544 1.035-1.092 1.088zm10.92 18.097c-.67.032-1.095.441-1.082 1.029.012.578.455.959 1.101.957.67 0 1.162-.43 1.169-1.024.005-.595-.483-.996-1.188-.962zM6.01 26.364a1.54 1.54 0 01-.216.495 15.12 15.12 0 01-1.448-1.278c.135-.115.323-.204.572-.249.574.06 1.026.487 1.092 1.032zm-2.17-2.173c-.08-.566-.477-.976-1.008-1.038-.14.032-.254.08-.353.136.367.552.77 1.077 1.205 1.575.141-.137.187-.353.156-.673zm21.564.071a1.217 1.217 0 01-1.089 1.088c-.554.054-.896-.282-.844-.85a1.18 1.18 0 011.029-1.087c.596-.083.964.271.904.85zM.594 14.561c1.226-.368 1.226-1.986.07-2.217-.22 0-.369.07-.477.18A15.111 15.111 0 000 14.23a.721.721 0 00.594.33zm4.712 1.069c.018-.664.426-1.093 1.044-1.086.607.006 1.037.47 1.05 1.144.016.702-.44 1.196-1.066 1.171-.631-.025-1.046-.525-1.028-1.229zM4.26 14.534c.56.006 1.01-.507 1.024-1.171.014-.68-.393-1.124-.981-1.09-.579.035-.99.534-.98 1.18.01.615.404 1.075.937 1.08zM1.582 11.29c.035-.608.405-1.051.927-1.106.533-.056.88.308.873.934-.007.66-.397 1.156-.936 1.197-.54.04-.9-.395-.864-1.025zm.84 3.279c-.552-.024-.932.41-.936 1.055-.003.616.35 1.081.858 1.126.519.046.908-.357.94-.985.034-.688-.317-1.173-.862-1.196zM4.4 10.023c-.552.016-.924-.452-.854-1.055.123-1.014 1.51-1.476 1.972-.552.23.924-.463 1.386-1.118 1.607zm5.84-7.572c-.071.535.343.92.985.9.763.213 1.225-.48 1.225-.942-.231-1.155-1.849-1.155-2.21.042zm1.983 3.818c.004.634-.475 1.11-1.161 1.145-.652.033-1.102-.364-1.094-.948.008-.624.485-1.084 1.159-1.122.657-.038 1.091.323 1.096.925zM9.049 3.522c-.99.273-1.452 1.197-.759 1.66.693.461 1.387.23 1.786-.807.032-.57-.393-.916-1.027-.853zm-1.568 7.435c-.02.68-.5 1.19-1.126 1.2-.628.01-1.014-.46-.955-1.146.054-.645.483-1.078 1.096-1.104.601-.025 1.005.396.985 1.05zm-.913-3.272a1.224 1.224 0 001.179-1.101c.059-.59-.31-.972-.888-.943-.632.032-1.083.454-1.151 1.076-.066.594.274.986.86.968zm1.283 16.931c.065.59-.336.965-.937.901-.582-.062-1.012-.477-1.083-1.044-.072-.578.255-.942.844-.916.62.028 1.111.47 1.176 1.059zm1.3 2.965c.594.064 1.037-.292 1.008-.828-.028-.546-.5-.97-1.135-1.019-.617-.046-.987.269-.955.797.032.551.48.985 1.082 1.05zm3.114-2.673c.016.6-.446.98-1.107.925-.622-.05-1.079-.48-1.11-1.045-.033-.596.417-.982 1.107-.931.656.047 1.094.465 1.11 1.051zM8.88 23.711c.62.033 1.064-.408 1.015-1.03-.05-.63-.554-1.085-1.216-1.098-.631-.013-1.001.379-.957.992.046.627.53 1.102 1.158 1.136zm5.709 3.18c-.001.54-.483.929-1.11.905-.621-.022-1.11-.45-1.114-.982-.005-.51.442-.875 1.078-.87.676.005 1.147.397 1.146.947zm-3.144 2.556c.62.02 1.02-.326.969-.85-.05-.497-.495-.838-1.124-.86-.642-.021-1.038.335-.966.854.068.484.53.836 1.12.856zM5.324 18c.023.66-.397 1.125-.957 1.08-.557-.046-.994-.571-1.006-1.203-.011-.634.4-1.071.985-1.029.556.04.956.51.978 1.152zm-1.868 2.065c-.057-.624-.44-1.05-.972-1.083-.525-.034-.852.347-.825.94.03.618.437 1.102.973 1.152.541.052.884-.359.824-1.01zm-2.794-3.33c.499.033.86.509.862 1.141.002.616-.376 1.031-.858.958a.828.828 0 01-.207-.062 14.97 14.97 0 01-.35-1.845.7.7 0 01.553-.192zm4.023 6.608c.551.077.957-.323.914-.922-.042-.589-.457-1.054-1.008-1.131-.583-.081-.976.294-.942.88.034.583.487 1.097 1.036 1.173zm11.033 4.479c.63-.006 1.055.327 1.052.816-.392.804-2.01 1.266-2.24.111 0-.462.462-1.155 1.188-.927z" fill="#CE1C64" style="mix-blend-mode:multiply" opacity=".19"/></g><defs><radialGradient id="paint0_radial_2947_33920" cx="0" cy="0" r="1" gradientUnits="userSpaceOnUse" gradientTransform="rotate(90 -.044 15.044) scale(18.7622)"><stop stop-color="#5CADFF"/><stop offset="1" stop-color="#2793FF"/></radialGradient><radialGradient id="paint1_radial_2947_33920" cx="0" cy="0" r="1" gradientUnits="userSpaceOnUse" gradientTransform="rotate(90 -.044 15.044) scale(18.7622)"><stop stop-color="#FF3B89"/><stop offset="1" stop-color="#DB156C"/></radialGradient></defs></svg>